<svg xmlns="http://www.w3.org/2000/svg" xmlns:xlink="http://www.w3.org/1999/xlink"><defs><symbol viewBox="0 0 88 24" id="appstore"><path d="M14.11 10.83a4.5 4.5 0 0 0 2.72 4.11c-.02.07-.42 1.49-1.42 2.9-.83 1.26-1.71 2.49-3.11 2.5-1.37.04-1.82-.79-3.37-.79-1.58 0-2.06.78-3.36.83-1.33.05-2.35-1.33-3.21-2.57C.6 15.29-.74 10.67 1.08 7.53a5.02 5.02 0 0 1 4.2-2.56c1.33-.03 2.58.9 3.39.9s2.33-1.12 3.9-.95c.68.02 2.55.26 3.76 2.02a4.62 4.62 0 0 0-2.22 3.89zm-2.55-7.59A3.83 3.83 0 0 1 8.5 4.68a4.34 4.34 0 0 1 1.07-3.15A4.7 4.7 0 0 1 12.6-.02a4.56 4.56 0 0 1-1.03 3.26zm21.4 16.97h-1.82l-1-3.13h-3.46l-.95 3.13h-1.76l3.42-10.64h2.12l3.44 10.64zm-3.12-4.44l-.9-2.78c-.1-.28-.27-.95-.53-2h-.04l-.5 2-.88 2.78h2.85zm11.91.5c0 1.31-.36 2.33-1.07 3.1a3.13 3.13 0 0 1-2.37 1.01c-1.02 0-1.74-.36-2.2-1.09v4.03h-1.69v-8.28c0-.8-.01-1.66-.07-2.52h1.5l.11 1.21H36a2.86 2.86 0 0 1 2.59-1.38c.9 0 1.66.36 2.26 1.07.6.74.9 1.7.9 2.85zm-1.73.07c0-.74-.17-1.37-.5-1.85-.36-.5-.86-.76-1.48-.76a1.89 1.89 0 0 0-1.81 1.52c-.06.17-.08.35-.1.52v1.28c0 .55.18 1.03.52 1.41.35.38.8.57 1.33.57.64 0 1.15-.24 1.5-.74.37-.48.54-1.14.54-1.95zm10.58-.07c0 1.31-.36 2.33-1.07 3.1a3.13 3.13 0 0 1-2.37 1.01c-1.02 0-1.74-.36-2.2-1.09v4.03h-1.7v-8.28c0-.8-.02-1.66-.07-2.52h1.5l.1 1.21h.04a2.86 2.86 0 0 1 2.6-1.38c.9 0 1.65.36 2.26 1.07.6.74.91 1.7.91 2.85zm-1.74.07a3.3 3.3 0 0 0-.5-1.85c-.37-.5-.87-.76-1.5-.76a1.89 1.89 0 0 0-1.81 1.52c-.05.2-.08.38-.08.52v1.28c0 .55.17 1.03.52 1.41.34.38.8.57 1.33.57.64 0 1.14-.24 1.5-.74a3.2 3.2 0 0 0 .54-1.95zm11.61.88c0 .9-.3 1.64-.95 2.21a4.2 4.2 0 0 1-2.9.94 5.24 5.24 0 0 1-2.77-.66l.4-1.42c.74.45 1.57.66 2.47.66.64 0 1.14-.14 1.5-.43.37-.3.54-.68.54-1.16 0-.43-.15-.8-.45-1.09-.3-.3-.78-.57-1.47-.83-1.86-.7-2.8-1.71-2.8-3.06 0-.88.33-1.59.99-2.14a3.94 3.94 0 0 1 2.6-.83c.98 0 1.79.17 2.43.5l-.43 1.38a4.19 4.19 0 0 0-2.04-.48c-.6 0-1.08.16-1.42.45a1.3 1.3 0 0 0-.43.97c0 .41.15.77.48 1.03.28.26.8.52 1.56.83.91.37 1.59.8 2.02 1.3.47.48.67 1.09.67 1.83zm5.66-3.4h-1.89v3.73c0 .95.33 1.42 1 1.42.32 0 .56-.02.76-.1l.06 1.3c-.33.13-.78.2-1.33.2-.68 0-1.2-.21-1.58-.63-.38-.41-.57-1.1-.57-2.07V13.8h-1.12v-1.28h1.12v-1.4l1.68-.5v1.92h1.88l-.01 1.28zm8.47 2.48a4.2 4.2 0 0 1-1.02 2.9 3.63 3.63 0 0 1-2.82 1.18 3.47 3.47 0 0 1-2.7-1.12c-.67-.74-1-1.7-1-2.83 0-1.2.34-2.16 1.04-2.92a3.59 3.59 0 0 1 2.78-1.14 3.5 3.5 0 0 1 2.71 1.12c.68.72 1 1.67 1 2.81zm-1.77.04c0-.7-.15-1.31-.45-1.82a1.7 1.7 0 0 0-1.54-.91c-.69 0-1.2.31-1.57.91-.31.5-.45 1.13-.45 1.85 0 .71.16 1.32.45 1.82.36.6.88.91 1.56.91.65 0 1.16-.3 1.54-.93.3-.52.46-1.12.46-1.83zm7.31-2.32a2.82 2.82 0 0 0-.53-.05c-.6 0-1.07.23-1.38.68-.28.4-.44.9-.44 1.52v4.02h-1.7v-5.25c0-.81-.03-1.6-.06-2.42h1.49l.07 1.47h.05c.17-.5.46-.92.84-1.21a2.16 2.16 0 0 1 1.66-.38v1.62zm7.64 2c0 .25-.01.5-.06.77H82.6c.02.76.26 1.35.74 1.74.43.37.99.54 1.68.54a5.7 5.7 0 0 0 2.07-.36l.26 1.17c-.72.31-1.59.47-2.57.47-1.2 0-2.13-.35-2.8-1.06a3.91 3.91 0 0 1-1.02-2.81c0-1.16.3-2.13.95-2.89a3.23 3.23 0 0 1 2.68-1.22c1.1 0 1.95.41 2.5 1.22.47.66.7 1.45.7 2.42zm-1.62-.46c.02-.5-.1-.95-.33-1.31-.3-.49-.74-.71-1.36-.71a1.6 1.6 0 0 0-1.37.7c-.28.35-.45.8-.5 1.32h3.56zM26.2 5.8c-.47 0-.89-.02-1.23-.07V.58c.48-.07.97-.1 1.45-.1 1.95 0 2.85.96 2.85 2.54 0 1.8-1.07 2.78-3.07 2.78zm.27-4.67c-.26 0-.48.02-.67.06v3.9c.1.02.3.02.57.02 1.28 0 2-.73 2-2.1 0-1.2-.65-1.88-1.9-1.88zm5.6 4.7c-1.1 0-1.81-.83-1.81-1.93 0-1.16.72-1.99 1.88-1.99 1.1 0 1.82.78 1.82 1.94 0 1.15-.76 1.98-1.89 1.98zm.04-3.31c-.6 0-1 .57-1 1.36 0 .78.4 1.35.98 1.35.59 0 .99-.6.99-1.37.01-.77-.38-1.34-.97-1.34zm8.14-.54l-1.18 3.77h-.77l-.5-1.65c-.12-.4-.22-.82-.3-1.23h-.03a7.5 7.5 0 0 1-.3 1.23l-.53 1.64h-.77l-1.11-3.77h.86l.44 1.8.26 1.2h.01c.07-.3.16-.7.31-1.2l.54-1.8h.7l.5 1.76c.13.43.23.85.32 1.25h.02a10 10 0 0 1 .26-1.25l.46-1.76h.8zm4.34 3.77h-.83V3.59c0-.68-.26-1-.76-1s-.85.43-.85.91v2.25h-.85v-2.7c0-.33 0-.69-.03-1.07H42l.04.59h.01c.23-.4.7-.66 1.2-.66.8 0 1.31.6 1.31 1.6l.02 2.24zm2.31 0h-.84V.24h.84v5.5zm3.06.08c-1.1 0-1.81-.83-1.81-1.93 0-1.16.72-1.99 1.88-1.99 1.1 0 1.82.78 1.82 1.94 0 1.15-.76 1.98-1.89 1.98zM50 2.52c-.6 0-1 .57-1 1.36 0 .78.4 1.35.98 1.35.59 0 .99-.6.99-1.37 0-.77-.38-1.34-.97-1.34zm5.15 3.23l-.07-.43h-.02a1.3 1.3 0 0 1-1.1.51c-.68 0-1.16-.46-1.16-1.1 0-.94.81-1.42 2.21-1.42v-.07c0-.5-.26-.74-.78-.74-.38 0-.69.09-.98.28l-.18-.56c.35-.22.78-.33 1.3-.33.99 0 1.49.52 1.49 1.56v1.38c0 .38.02.68.05.9l-.76.02zm-.12-1.89c-.94 0-1.4.23-1.4.76 0 .4.24.6.57.6.43 0 .83-.34.83-.77v-.59zm4.89 1.89l-.03-.6h-.02c-.24.44-.64.68-1.21.68-.92 0-1.6-.8-1.6-1.91 0-1.18.7-2 1.67-2 .5 0 .86.16 1.07.51h.02V.23h.84v4.5c0 .36.02.7.04 1.02h-.78zm-.12-2.21c0-.54-.35-.99-.88-.99-.62 0-1 .55-1 1.33 0 .76.4 1.28.98 1.28.54 0 .9-.47.9-1v-.62zm6.17 2.3c-1.1 0-1.82-.84-1.82-1.94 0-1.16.73-1.99 1.89-1.99 1.09 0 1.81.78 1.81 1.94 0 1.15-.76 1.98-1.88 1.98zM66 2.51c-.6 0-.98.57-.98 1.36 0 .78.4 1.35.98 1.35.6 0 .99-.6.99-1.37-.02-.77-.4-1.34-.99-1.34zm6.37 3.23h-.85V3.59c0-.68-.26-1-.76-1s-.83.43-.83.91v2.25h-.85v-2.7c0-.33 0-.69-.03-1.07h.74l.03.59h.02c.23-.4.7-.66 1.2-.66.79 0 1.3.6 1.3 1.6v2.24h.03zM78 2.6h-.92v1.83c0 .47.16.7.49.7.15 0 .28-.02.38-.04l.02.64c-.16.07-.38.09-.66.09-.66 0-1.06-.37-1.06-1.32V2.6h-.55v-.62h.55v-.7l.83-.23v.93H78v.62zm4.44 3.15h-.83V3.6c0-.67-.26-1.01-.76-1.01-.43 0-.84.29-.84.9v2.27h-.83V.24H80V2.5h.01c.26-.42.64-.62 1.14-.62.8 0 1.28.62 1.28 1.6v2.27zM87 4.07h-2.52c.01.71.48 1.12 1.19 1.12.38 0 .7-.06 1.02-.17l.14.59c-.37.15-.78.22-1.27.22-1.17 0-1.88-.74-1.88-1.9 0-1.15.7-2.02 1.78-2.02.97 0 1.57.71 1.57 1.8 0 .1 0 .22-.03.36zm-.76-.6c0-.6-.3-1-.83-1-.49 0-.87.4-.92 1h1.75z" /></symbol><symbol viewBox="0 0 24 24" id="download-app"><path fill="#F68B1E" d="M16.71 2H7.78A1.8 1.8 0 006 3.82v16.36c0 1 .8 1.82 1.78 1.82h8.93a1.8 1.8 0 001.79-1.82V3.82a1.8 1.8 0 01-1.81 0L16.71 2zm0 16.36H7.78V5.64h8.93v12.72z" /><path fill="#F68B1E" d="M15.06 11.48a.13.13 0 01-.08 0h-1.53V7.86a.14.14 0 01-.14 0h-2.28c.04-.03.1-.03.14 0v3.53H9.35c.06.02.1.08.1.14l2.78 2.83 2.8-2.83.03-.05zm.2 3.24v2H8.82v-2h6.44z" /></symbol><symbol viewBox="0 0 24 24" id="express"><path d="M21.9 2.09a.24.24 0 00-.3-.06L2.16 12.41c-.1.05-.17.18-.17.31 0 .14.06.27.16.33l5.3 2.18c.1.05.21.04.3-.04l10.71-9.1-8.3 9.29c-.06.07-.2.26-.2.36l-.07 5.93c0 .14.08.27.2.31l.08.02c.08 0 .16-.04.22-.12l1.68-5.3 4.78 1.3c.08.05.17.05.24 0a.35.35 0 00.16-.21L22 2.47a.42.42 0 00-.09-.38z" fill="#F90" /></symbol><symbol viewBox="0 0 24 24" id="flag-dz"><path fill="#F0F0F0" d="M12 2a10 10 0 010 20c0-.43-1.3-10-1.3-10L12 2z" /><path fill="#496E2D" d="M12 22a10 10 0 010-20" /><path fill="#D80027" d="M14.15 10.08l-.82 1.13-1.33-.43.82 1.13-.82 1.13 1.33-.43.82 1.13v-1.4l1.33-.43-1.33-.43z" /><path fill="#D80027" d="M12.83 14.83a2.83 2.83 0 111.34-5.32A3.47 3.47 0 008.27 12a3.48 3.48 0 005.9 2.49c-.4.21-.85.34-1.34.34z" /></symbol><symbol viewBox="0 0 24 24" id="flag-eg"><g fill="none" fill-rule="evenodd"><path fill="#000" d="M2.832 16h18.336A10.002 10.002 0 0 1 12 22c-4.1 0-7.625-2.468-9.168-6z" /><path fill="#D80027" d="M2.832 8C4.375 4.468 7.9 2 12 2c4.1 0 7.625 2.468 9.168 6H2.832z" /><path fill="#F0F0F0" d="M2.832 16A9.966 9.966 0 0 1 2 12c0-1.422.297-2.775.832-4h18.336A9.966 9.966 0 0 1 22 12a9.966 9.966 0 0 1-.832 4H2.832z" /><path fill="#FF9811" d="M16 11h-3a1 1 0 0 0-2 0H8c0 .552.481 1 1.033 1H9a1 1 0 0 0 1 1 1 1 0 0 0 1 1h2a1 1 0 0 0 1-1 1 1 0 0 0 1-1h-.033c.552 0 1.033-.448 1.033-1z" /></g></symbol><symbol viewBox="0 0 24 24" id="flag-en"><g fill="none" fill-rule="evenodd" transform="translate(2 2)"><circle cx="10" cy="10" r="10" fill="#F0F0F0" /><path fill="#0052B4" d="M2.068 3.912a9.964 9.964 0 0 0-1.723 3.48h5.202l-3.48-3.48zm17.588 3.48a9.964 9.964 0 0 0-1.723-3.48l-3.48 3.48h5.203zM.345 12.609a9.965 9.965 0 0 0 1.723 3.48l3.48-3.48H.344zM16.089 2.068a9.964 9.964 0 0 0-3.48-1.723v5.202l3.48-3.48zM3.912 17.933a9.964 9.964 0 0 0 3.48 1.723v-5.202l-3.48 3.48zM7.392.345a9.965 9.965 0 0 0-3.48 1.723l3.48 3.48V.344zm5.217 19.311a9.965 9.965 0 0 0 3.48-1.723l-3.48-3.48v5.203zm1.845-7.047l3.48 3.48a9.964 9.964 0 0 0 1.722-3.48h-5.202z" /><g fill="#D80027"><path d="M19.915 8.696h-8.61V.085a10.1 10.1 0 0 0-2.61 0v8.61H.086a10.1 10.1 0 0 0 0 2.61h8.61v8.61a10.099 10.099 0 0 0 2.61 0v-8.61h8.61a10.099 10.099 0 0 0 0-2.61z" /><path d="M12.609 12.609l4.462 4.462c.205-.205.401-.42.588-.642l-3.82-3.82h-1.23zm-5.218 0L2.93 17.07c.205.205.42.401.642.588l3.82-3.82v-1.23zm0-5.218L2.93 2.93c-.205.205-.401.42-.588.642l3.82 3.82h1.23zm5.218 0L17.07 2.93c-.205-.205-.42-.401-.642-.588l-3.82 3.82v1.23z" /></g></g></symbol><symbol viewBox="0 0 24 24" id="flag-fr"><defs><path id="flag-fr_a" d="M13 .45780228C17.057107 1.73206592 20 5.52235821 20 10c0 4.4776418-2.942893 8.2679341-7 9.5421977V.45780228z" /><path id="flag-fr_b" d="M7 19.5421977V.45780228C7.94704122.16035383 8.95479429 0 10 0c1.0452057 0 2.0529588.16035383 3 .45780228V19.5421977C12.0529588 19.8396462 11.0452057 20 10 20c-1.04520571 0-2.05295878-.1603538-3-.4578023z" /><path id="flag-fr_c" d="M7 19.5421977C2.94289305 18.2679341 0 14.4776418 0 10 0 5.52235821 2.94289305 1.73206592 7 .45780228V19.5421977z" /></defs><g fill="none" fill-rule="evenodd" transform="translate(2 2)"><use fill="#D80027" xlink:href="#flag-fr_a" /><use fill="#F0F0F0" xlink:href="#flag-fr_b" /><use fill="#0052B4" xlink:href="#flag-fr_c" /></g></symbol><symbol viewBox="0 0 24 24" id="flag-ma"><defs><circle id="flag-ma_a" cx="10" cy="10" r="10" /></defs><g fill="none" fill-rule="evenodd" transform="translate(2 2)"><use fill="#E33B44" fill-rule="nonzero" xlink:href="#flag-ma_a" /><path fill="#0A6135" d="M10 11.074l1.237.926-.457-1.523 1.22-.95-1.519-.014L10 8l-.482 1.513L8 9.528l1.22.95L8.762 12 10 11.074zM6.292 16l1.368-4.566L4 8.584l4.555-.043L10 4l1.446 4.541L16 8.585l-3.659 2.85L13.708 16 10 13.222 6.293 16z" mask="url(#flag-ma_b)" /></g></symbol><mask id="flag-ma_b" fill="#fff"><use xlink:href="#flag-ma_a" /></mask><symbol viewBox="0 0 24 24" id="flash-sales">
    <g fill="#FFBA00" transform="translate(3.75 1.783)">
      <path d="M11.5812155,2.213275 C10.6670511,1.88706997 9.65908071,2.34883302 9.31128722,3.25315583 C8.96349373,4.15747863 9.40316746,5.1733844 10.3014233,5.54095455 C10.5145603,5.62180974 10.7411413,5.66157779 10.969141,5.65814808 L10.9876887,5.64272788 L10.9876887,5.65814808 C11.7171181,5.64884274 12.367351,5.19734077 12.6294504,4.51815877 C12.8915498,3.83897678 12.7126833,3.06901967 12.1778337,2.57410772 C12.0049057,2.41555877 11.8020996,2.2929023 11.5812155,2.213275 L11.5812155,2.213275 Z M12.1252818,4.32892669 C11.9423217,4.80691201 11.4886613,5.12778635 10.9760002,5.14181436 C10.4633392,5.15584237 9.99273119,4.8602589 9.78378453,4.39299738 C9.57483788,3.92573585 9.6687393,3.37890101 10.0216699,3.00767222 C10.3746005,2.63644342 10.9169919,2.51399582 11.3957384,2.69746934 C12.0469934,2.9488646 12.3728185,3.67749798 12.1252818,4.32892669 Z" />
      <path d="M16.0759447,6.43532625 L12.9846592,0.57564957 C12.7337459,0.0974779514 12.1659196,-0.120404927 11.6584977,0.0667829108 L5.40791833,2.36130894 C5.11699902,2.46659131 4.88519386,2.6911174 4.77111351,2.97811701 L0.0723594968,15.2125051 C-0.141637025,15.7669124 0.135083622,16.389455 0.690616604,16.6034073 L5.36154905,18.3921507 L10.0293902,20.1778101 C10.5851,20.3913051 11.209105,20.115233 11.42356,19.561002 L16.1254053,7.32969796 C16.2399493,7.03856425 16.2218963,6.71212147 16.0759447,6.43532625 Z M4.89785622,10.7529828 L4.9658645,10.7005541 L4.76493094,10.6450413 L10.969141,5.65814808 C10.7411413,5.66157779 10.5145603,5.62180974 10.3014233,5.54095455 C9.38043113,5.18815918 8.92032615,4.15744164 9.2736149,3.23847958 C9.62690364,2.31951752 10.659875,1.86011557 11.5811245,2.21224161 C12.502374,2.56436764 12.9632314,3.59475057 12.6106136,4.51396911 C12.3497625,5.19052411 11.7048314,5.6426238 10.9784149,5.65814808 L10.8207593,5.99430848 L10.8949502,5.93262767 L8.96598799,9.99739287 L12.4034975,10.9750337 L5.76032488,17.1739548 L8.15607118,11.6781949 L4.89785622,10.7529828 Z" />
    </g>
</symbol><symbol viewBox="0 0 93 23" id="googleplay"><path d="M46.5 12.4a3.4 3.4 0 0 1 3.4 3.4 3.4 3.4 0 1 1-3.4-3.4zm0 5.5a2 2 0 0 0 2-2.1 2 2 0 1 0-2 2zm-7.4-5.5a3.4 3.4 0 0 1 3.4 3.4 3.4 3.4 0 1 1-3.4-3.4zm0 5.5a2 2 0 0 0 1.9-2.1 2 2 0 1 0-2 2zm-9-4.5h5v1a5 5 0 0 1-1.2 3.3c-1 1-2.3 1.5-3.7 1.5a5.3 5.3 0 1 1 0-10.6 5 5 0 0 1 3.6 1.5l-1 1c-.7-.7-1.6-1-2.6-1a3.8 3.8 0 0 0 0 7.7c1 0 2-.4 2.6-1.1a3 3 0 0 0 .8-1.8h-3.4v-1.5zm36.3 1.2l.2.3-4.5 2c.2.6.9 1 1.6 1a2 2 0 0 0 1.7-1l1.1.8c-.6 1-1.7 1.5-2.8 1.5a3.3 3.3 0 0 1-3.4-3.4 3.2 3.2 0 0 1 3.2-3.4c1.4 0 2.5 1 3 2.2zm-4.6 1.1l3-1.3c-.2-.4-.7-.7-1.2-.7a1.9 1.9 0 0 0-1.8 2zM58.1 19V9h1.5v10h-1.5zm-2.4-5.8v-.6H57v6c0 2.6-1.4 3.6-3.2 3.6-1.3 0-2.5-.8-3-2l1.3-.6a2 2 0 0 0 1.7 1.3c1.2 0 1.8-.7 1.8-2v-.5c-.4.5-1.1.8-1.8.8a3.4 3.4 0 0 1 0-6.8c.7 0 1.3.3 1.8.8zm-1.8 4.7a1.9 1.9 0 0 0 1.9-2.1 2 2 0 0 0-1.9-2 2 2 0 0 0 0 4zM73.4 9a3.1 3.1 0 1 1 0 6.2h-2V19h-1.5V9h3.5zm0 4.8a1.7 1.7 0 0 0 0-3.4h-2v3.4h2zm9.3-1.4c1.7 0 3 1 3 2.8V19h-1.4v-.8c-.5.6-1.2 1-2 1A2.3 2.3 0 0 1 80 17c0-1.5 1.4-2.3 2.8-2.3a3 3 0 0 1 1.6.4V15a1.4 1.4 0 0 0-1.6-1.3c-.6 0-1.1.2-1.4.7L80 14c.5-1 1.6-1.6 2.7-1.5zm-.2 5.4c1 0 1.7-.6 1.8-1.5-.4-.3-.9-.4-1.4-.4-.7 0-1.6.3-1.6 1s.7 1 1.2 1zm8.5-5.2h1.7L88.6 22H87l1.5-3.3-2.6-6.1h1.6l1.7 4.3 1.8-4.3zM77.5 19V9H79v10h-1.5zM30 3.2c0 .6-.2 1.2-.6 1.6-.4.5-1 .7-1.7.7a2.5 2.5 0 0 1-1.8-4.3c.5-.5 1.1-.7 1.8-.7.3 0 .6 0 1 .2l.7.5-.4.4c-.3-.3-.8-.5-1.3-.5a1.9 1.9 0 0 0-2 1.9A1.9 1.9 0 0 0 29 4.4c.3-.3.4-.6.4-1h-1.7v-.6H30v.4zm3.7-2h-2.2v1.5h2v.6h-2v1.5h2.2v.6h-2.8V.6h2.8v.6zm2.6 4.2h-.6V1.2h-1.3V.6h3.3v.6h-1.4v4.2zm3.8 0V.6h.6v4.8H40zm3.3 0h-.6V1.2h-1.4V.6h3.3v.6h-1.3v4.2zm7.6-.6c-1 1-2.6 1-3.5 0-1-1-1-2.6 0-3.6a2.5 2.5 0 0 1 3.5 0c1 1 1 2.6 0 3.6zm-3-.4c.6.7 1.8.7 2.5 0 .7-.8.7-2 0-2.8-.7-.7-1.9-.7-2.6 0a2 2 0 0 0 0 2.8zm4.6 1V.6h.7l2.4 3.7V.6h.6v4.8h-.7l-2.4-4v4h-.6zm-52 17c-.3-.1-.5-.5-.5-1.1V2c0-.5.2-.9.5-1l8.9 10.7L.6 22.4zm1.3-.5l8-9.6 2.7 3.2-10.7 6.4zM12.6 8l-2.7 3L2 1.5 12.6 8zm.7.4l4.1 2.5c.8.5.8 1.2 0 1.7l-4.2 2.6-2.8-3.4 2.9-3.4z" /></symbol><symbol viewBox="0 0 24 24" id="jumia-pay"><path fill="#378EF9" d="M14.05 13.68c.28.27.58.5.91.71-1.26 2.95-3.44 4.84-5.8 5.57l-.06.02-.05.02-.06-.02C5.39 18.9 2.18 15.14 2 8.97a20.3 20.3 0 01.25-3.8l.02-.16h.17c2.3 0 4.92-.4 6.53-.98L9.05 4l.06.03c1.6.58 4.23.98 6.52.98h.17c-.6.25-1.17.6-1.64 1.04a21.25 21.25 0 01-5-.86l-.05-.02-.06-.02.11 13.66a7.5 7.5 0 002.54-1.53 9.4 9.4 0 002.35-3.6" /><path fill="#F90" d="M21.33 7.54a4.17 4.17 0 00-1.6-1.5 4.2 4.2 0 00-4.99.7 4.3 4.3 0 00-1.15 2.13 4.13 4.13 0 00.88 3.5 4.32 4.32 0 001.24 1.03 4.23 4.23 0 004.02 0l.18-.1a4.44 4.44 0 001.31-1.24l.11-.17a4.16 4.16 0 000-4.35zm-.5 1.15l-1.55 1.5.36 2.13-1.92-1-1.92 1 .37-2.13-1.56-1.5 2.15-.32.97-1.93.96 1.93 2.15.32z" /></symbol><symbol viewBox="0 0 24 24" id="jumia-star"><path d="M12.14 2.33a9.6 9.6 0 11.02 19.22 9.6 9.6 0 01-.02-19.22zm0 1.44l-2.42 4.9-5.42.79 3.92 3.82-.93 5.4 4.85-2.55L17 18.67l-.92-5.4 3.92-3.81-5.42-.79-2.43-4.9z" fill="#F90" /></symbol><symbol viewBox="0 0 34 24" id="pay-aaib"><path fill-rule="evenodd" d="M9 16.2a3.7 3.7 0 0 1 0-5.7c-.5 2.1-.8 2.6 0 5.7zm1.6-7.8a5 5 0 0 0-4.3 5.4c.2 2.3 2.2 4.5 4.4 4.6l-1.2-.9C8 16.6 7 15.3 7 13.4c0-2 1-3.3 2.6-4.3l1-.7zm1.9-1.5l-.1-.2a7 7 0 0 0-6.9 3.7 6.4 6.4 0 0 0 1 7.2c1.4 1.8 4.2 2.8 6.1 2.2-.6-.2-1-.4-1.4-.4-3.3-.3-5.8-3-5.7-6 0-3.2 2.4-5.8 5.7-6.1.4 0 .8-.3 1.3-.4zm8.8.7c.4-1.7.4-1.7 1.2-1.6l-.6 3.2a7.6 7.6 0 0 0-6.6-2.5c-1.6.3-3 1-4.2 2.1a6.4 6.4 0 0 0-.8 8c2 3 5 3.8 9.9 2.3-.1.5-.1 1-.3 1.4l-.6.2c-.4-.5-.8-.1-1.1-.1-2.7 0-5.5.3-8.2 0a7.2 7.2 0 0 1-6-7.7 7.6 7.6 0 0 1 7.3-7l2.3.2h.7c2.5-.6 4.8-.1 7 1.5zM17.7 11l.3-1.3-1.3-.3 1 1.6zm1.4 5.2l.8-4.6c1 1.3.6 3.3-.8 4.6zm-1.5.9c.7-.4 1.8-6.2 1.1-7l-.5 2.9c0 .2-.3.3-.5.5l-.3-.6a5.3 5.3 0 0 0-1.5-3c-.2-.3-.5-.3-.8-.4 2.2 2.7 2.2 5 0 7.6.2 0 .6 0 .8-.2.4-.4.7-1 1-1.5.2-.5.5-.5 1-.3l-.3 2zM16 13.5a4 4 0 0 0-1.5-3.1c-.2-.2-.7-.2-.9 0-2 1.4-2 4.5 0 6h.9a4 4 0 0 0 1.5-2.9zm-4.6-.2c0-2.6 2.2-4.7 5-4.7 2.6 0 4.8 2.2 4.8 4.8 0 2.6-2.3 4.7-5 4.7a4.8 4.8 0 0 1-4.8-4.8zm9.1 7.3l.6-3.2a6.7 6.7 0 0 1-5.5 2c-2-.2-3.7-1.2-4.8-3a6 6 0 0 1 1.8-8c3.2-2.2 6.6-1.3 9.6 2.4l.8-4.4c0-.6.4-.6 1-.4l-1.4 7c0 .2-.4.3-.8.6 0-.6 0-1-.2-1.3A5.5 5.5 0 0 0 16.1 8c-2.6.1-5 2-5.3 4.6-.3 2.6 1.2 5 3.8 5.8 2.6.8 5.4-.3 6.7-2.7.2-.4.3-1 1-.6l-1 5.4-.6.4-.2-.3zm1.4 0l1.1-6.3 1.4-7.8c.1-.6.3-.8 1-.5l-1.7 9.4-.8 4.8c-.1.5-.3.7-1 .5zM29.6 6l-1.8 10.5-.7 3.7c0 .5-.3.7-1 .5l.8-4.4 1.7-9.8c.1-.5.3-.8 1-.5zm-1.4 0l-2.5 14.3c0 .2-.5.4-.7.6l-.2-.2.7-4.4 1.7-9.8c.1-.5.3-.8 1-.5zm-4.9 14.7l1-5.4 1.5-8.8c.1-.5.3-.8 1-.5l-1.1 6.2-1.4 7.9c0 .4-.1.9-1 .6zm5.3-17.5c-.2 2.2-.2 2.2-1 2 0-1.6.1-2.1 1-2zm-1.5 0c-.3 2.2-.3 2.2-1.1 2 0-1.6.2-2.1 1-2zm1.9 2c0-1.6.2-2 1-2 0 1.8-.2 2.2-1 2z" /></symbol><symbol viewBox="0 0 24 24" id="pay-airtelmomo"><path fill-rule="evenodd" d="M7.12 15.22c-.5 0-.9.4-.9.87 0 .5.4.88.89.88.5 0 .88-.39.88-.88a.86.86 0 0 0-.87-.88zm-.69 7.67h1.39L7.8 17.4l-1.38.23.01 5.26zm-2.45-1.03c-.13.1-.41.18-.71.18-.56 0-.81-.42-.8-.92 0-.4.26-.87.95-.87h.56v1.61zm-.58-4.54a4.1 4.1 0 0 0-1.87.5l-.15.07.37.83.21-.1c.43-.2.9-.33 1.3-.31.51.02.72.25.72.72v.28h-.82c-1.32.01-2.14.7-2.16 1.79 0 1.02.87 1.9 2.06 1.9.97 0 1.78-.32 2.33-.87v-2.92c-.01-1.43-1.03-1.9-2-1.89zm14.3 1.03c.6 0 .7.66.7 1.07h-1.5c.03-.52.25-1.07.8-1.07zm.3 3.64c-.38 0-.64-.12-.8-.3-.25-.27-.36-.82-.34-1.4h2.99v-.15c-.03-1.94-.7-2.82-2.16-2.82-1.63 0-2.26 1.5-2.27 2.9 0 .88.33 1.77.95 2.28.37.3.9.47 1.5.47.32 0 .66-.05.97-.15.6-.18 1.04-.5 1.04-.5l-.39-.8A2.7 2.7 0 0 1 18 22zm-9.09-3.6.01 4.5h1.41v-4.25c.18-.17.57-.33.94-.35.34-.01.57.06.57.06l.38-.88a2.42 2.42 0 0 0-.93-.16c-.6 0-1.54.18-2.38 1.07zm13.88 3.6c-.58-.05-.7-.3-.7-.72l-.02-5.42-1.38.24.01 5.1c0 1.2.67 1.72 1.77 1.72.24 0 .53-.06.53-.06v-.87h-.21zM14 15.87l-1.42.23.02 5.12c0 1.15.68 1.7 1.8 1.69a3 3 0 0 0 .53-.05V22h-.2c-.6-.02-.71-.35-.71-.72l-.01-2.89h.91V17.4h-.91v-1.51zm3.36-12.4a3.4 3.4 0 0 0-1.33-1.78c-.08-.06-.89-.7-2.42-.7a8.5 8.5 0 0 0-4.55 1.6l-.05.04-.15.1-.12.08c-.34.23-.65.47-.95.73-.68.66-1.46 1.77-1.41 2.7.02.4.19.73.5.97.28.21.62.32 1.03.32a5 5 0 0 0 2.37-.84l.11-.08.33-.22.1-.07c.89-.6 1.8-1.2 2.84-1.56.27-.1.5-.14.72-.14.1 0 .2 0 .3.03.32.07.55.25.69.53.24.48.19 1.25-.14 1.95a8.5 8.5 0 0 1-2.26 2.8c-.54.47-1.04.82-1.48 1.06l-.04.03c-.21.1-.44.24-.69.33l-.03.01c-.08.03-.14.06-.2.07-.66.19-.65-.13-.55-.37.05-.14.24-.37.47-.6a13.34 13.34 0 0 1 .81-.79l.04-.03c.18-.18.42-.43.4-.78-.01-.47-.5-.76-.95-.77h-.03c-.43 0-.84.25-1.11.46-.27.22-.55.54-.74.84-.28.44-.86 1.55-.29 2.44.23.35.6.53 1.13.53.36 0 .79-.09 1.27-.27.73-.26 1.3-.62 1.85-.97l.15-.1c.59-.36 1.15-.8 1.74-1.3a7.93 7.93 0 0 0 2.52-3.61 4.5 4.5 0 0 0 .12-2.63" /></symbol><symbol viewBox="0 0 64 24" id="pay-banktransfer"><path fill-rule="evenodd" d="M19.22 9.42a.73.73 0 0 0-.34-.9.55.55 0 0 0-.26-.07H17.5v1.42h1.12c.09 0 .18-.02.25-.06a.73.73 0 0 0 .34-.39zM17.5 6.08V7.3h.9c.09 0 .18-.02.26-.05a.57.57 0 0 0 .34-.32.62.62 0 0 0 .04-.25.6.6 0 0 0-.38-.57.67.67 0 0 0-.25-.04h-.91zm2.78 1.66a2.07 2.07 0 0 1 .66 1.48 2 2 0 0 1-1.13 1.75c-.22.1-.46.16-.7.16h-3.06a.2.2 0 0 1-.13-.05c-.04-.03-.05-.07-.05-.14V5.02c0-.06.01-.1.05-.14a.18.18 0 0 1 .13-.06h2.8a1.75 1.75 0 0 1 1.28.54 1.86 1.86 0 0 1 .53 1.3 1.73 1.73 0 0 1-.38 1.08zm3.61.54l-.16.47h1.3l-.65-1.94a13.28 13.28 0 0 0-.32.97l-.17.5zm-.96 2.69c-.03.1-.1.16-.21.16h-1.25a.2.2 0 0 1-.13-.05c-.03-.02-.04-.07-.02-.12l2.3-5.97c0-.02 0-.04.02-.06a.3.3 0 0 1 .13-.1.2.2 0 0 1 .07 0h1.08c.05 0 .09 0 .12.04l.08.08.1.24 2.22 5.75c.02.05.02.1-.01.13-.03.04-.09.06-.16.06h-1.21a.26.26 0 0 1-.15-.04.23.23 0 0 1-.09-.12 31.16 31.16 0 0 1-.32-.86h-2.24a38.6 38.6 0 0 1-.33.86zm10.68-6.15c.06 0 .1.02.15.05.04.04.06.08.06.14v5.95c0 .06-.02.1-.05.13a.22.22 0 0 1-.14.04h-1.35a.14.14 0 0 1-.1-.04.67.67 0 0 1-.08-.1l-1.11-1.85-1.12-1.85v3.65c0 .06-.01.1-.04.14-.03.03-.08.05-.15.05h-1.2c-.06 0-.11-.02-.14-.06a.2.2 0 0 1-.05-.13V5.01c0-.05.02-.1.05-.13.03-.04.08-.06.14-.06h1.38l.12.03c.04.02.08.06.11.1a314.2 314.2 0 0 0 2.13 3.44v-3.4a.2.2 0 0 1 .07-.12.18.18 0 0 1 .12-.05h1.2zm7.19 6.24c0 .05-.03.07-.1.07h-1.59a.27.27 0 0 1-.14-.05 13.7 13.7 0 0 1-.88-1.26l-.35-.56a21.3 21.3 0 0 0-.39-.6l-.53.63v1.65c0 .13-.07.19-.2.19h-1.25c-.12 0-.19-.06-.19-.19V5.01c0-.05.02-.1.05-.13a.17.17 0 0 1 .14-.06h1.24c.05 0 .09.02.14.05.04.04.07.08.07.14v2.31a354.04 354.04 0 0 0 1.8-2.34.36.36 0 0 1 .12-.12c.05-.03.1-.04.14-.04h1.6c.07 0 .1.02.1.06 0 .03 0 .07-.04.1l-1.99 2.64 2.2 3.33.05.11zM20.74 13c.04.03.06.07.07.13v1.06c0 .05-.02.1-.06.14a.18.18 0 0 1-.15.07h-1.45v4.65a.2.2 0 0 1-.06.14.18.18 0 0 1-.14.06h-1.24a.2.2 0 0 1-.13-.06.18.18 0 0 1-.06-.14V14.4h-1.45a.2.2 0 0 1-.15-.05c-.03-.04-.05-.1-.05-.16v-1.06c0-.05.02-.1.05-.13a.2.2 0 0 1 .15-.05h4.53c.06 0 .1.01.14.05zm4.36 2.3a.85.85 0 0 0 .04-.27.83.83 0 0 0-.38-.67.7.7 0 0 0-.26-.1 22.88 22.88 0 0 0-.45-.01h-.58v1.56h.78a1.9 1.9 0 0 0 .26-.02.66.66 0 0 0 .47-.26c.05-.07.09-.15.12-.24zm1.77 3.53l.08.14c.03.06.04.1.04.14 0 .05-.01.08-.04.1a.18.18 0 0 1-.12.04h-1.45a.21.21 0 0 1-.13-.04.2.2 0 0 1-.07-.12l-1.03-1.93h-.68v1.9c0 .13-.07.2-.2.2h-1.25a.2.2 0 0 1-.13-.05c-.04-.03-.05-.08-.05-.14v-5.93c0-.06.01-.1.04-.14.03-.03.08-.05.14-.05h2.73a2.04 2.04 0 0 1 1.47.6 2.07 2.07 0 0 1 .61 1.46 1.91 1.91 0 0 1-.3 1.04 2.07 2.07 0 0 1-.74.73l1.08 2.05zm2.8-1.96h1.3l-.65-1.94a13.44 13.44 0 0 0-.32.97 35.04 35.04 0 0 1-.33.97zm1.5-3.56l2.21 5.75c.02.06.02.1-.01.14-.03.03-.08.05-.16.05H32a.26.26 0 0 1-.15-.03.23.23 0 0 1-.08-.13 31.93 31.93 0 0 1-.33-.86H29.2a37.7 37.7 0 0 1-.32.86c-.04.11-.11.16-.22.16h-1.24a.2.2 0 0 1-.14-.04c-.03-.03-.04-.07-.01-.13l2.29-5.97c0-.01 0-.03.02-.05a.3.3 0 0 1 .13-.1.2.2 0 0 1 .07-.01h1.08c.05 0 .1.01.13.04l.07.08.1.24zm8.38-.36c.06 0 .11.01.15.05.04.03.06.08.06.14v5.95c0 .05-.02.1-.05.12a.22.22 0 0 1-.14.04h-1.34a.14.14 0 0 1-.1-.04.67.67 0 0 1-.09-.1l-1.11-1.84-1.11-1.85v3.65c0 .06-.02.1-.05.14-.02.03-.07.04-.15.04h-1.2c-.06 0-.1-.02-.14-.05a.2.2 0 0 1-.04-.13v-5.93c0-.06.01-.1.05-.14.03-.03.07-.05.13-.05h1.38c.04 0 .08 0 .13.03.04.02.07.05.1.1a309.55 309.55 0 0 0 2.14 3.43v-3.4a.2.2 0 0 1 .06-.12.18.18 0 0 1 .12-.04h1.2zm5.53 3.04c.18.15.33.33.43.54.1.2.15.45.15.75a1.87 1.87 0 0 1-.7 1.5 3.07 3.07 0 0 1-2.7.39 3.65 3.65 0 0 1-1.16-.72l-.18-.2h-.02v-.02h-.01l-.01-.01-.01-.01c-.06-.07-.1-.13-.1-.17 0-.05.04-.1.1-.16l.73-.7c.06-.05.1-.07.14-.07.03 0 .06.01.08.03l.1.07.19.16a2.47 2.47 0 0 0 .68.43c.14.05.29.08.44.08.15 0 .27-.02.36-.05a.6.6 0 0 0 .23-.13c.06-.06.1-.12.12-.19a.7.7 0 0 0 .04-.22.33.33 0 0 0-.1-.24 1.03 1.03 0 0 0-.24-.18c-.1-.06-.2-.1-.3-.14l-.27-.1a6.15 6.15 0 0 1-.89-.38 2.73 2.73 0 0 1-.63-.46c-.17-.17-.3-.35-.38-.55a1.74 1.74 0 0 1 .03-1.4c.1-.21.26-.4.45-.55.2-.15.43-.27.7-.35a3.18 3.18 0 0 1 2.36.24 3.95 3.95 0 0 1 .5.35c.07.06.12.11.15.16.04.05.06.1.06.13a.2.2 0 0 1-.03.1.65.65 0 0 1-.08.11l-.64.7c-.05.04-.1.07-.15.07a.18.18 0 0 1-.1-.04 1.35 1.35 0 0 1-.11-.08l-.04-.04a3.4 3.4 0 0 0-.4-.28 1.5 1.5 0 0 0-.26-.1.9.9 0 0 0-.26-.05c-.1 0-.18.01-.27.03a.73.73 0 0 0-.21.07.41.41 0 0 0-.15.13.36.36 0 0 0-.05.2c0 .09.02.15.06.21.04.06.1.11.17.16a10.44 10.44 0 0 0 .7.28c.3.1.58.2.83.32.25.1.47.24.65.38zm5.83-3.04c.06 0 .1.02.14.05.03.04.05.09.05.15v1.05c0 .05-.02.1-.05.14-.03.04-.08.06-.15.06h-2.56v1.32h1.9c.04 0 .09.02.13.04.03.03.05.08.05.15v1.01c0 .05-.02.1-.05.14a.16.16 0 0 1-.13.07h-1.9v1.94c0 .12-.07.18-.2.18h-1.28c-.1-.01-.16-.07-.16-.18v-5.93c0-.06.02-.1.05-.14a.17.17 0 0 1 .12-.05h4.04zm5.7 4.85c.13 0 .19.06.19.2v1.06a.1.1 0 0 1-.03.07c-.02.08-.07.12-.18.12h-4.26a.2.2 0 0 1-.14-.04c-.03-.03-.05-.08-.05-.14v-5.93c0-.06.02-.1.05-.14a.18.18 0 0 1 .14-.05h4.18c.06 0 .11.02.15.05.03.04.05.09.05.15v1.05c0 .05-.02.1-.05.14-.04.04-.09.06-.15.06h-2.74v1.06h2.11c.06 0 .1.01.14.04.03.02.05.06.05.12v.92c0 .04-.02.08-.05.11-.03.04-.07.06-.13.06h-2.12v1.09h2.84zm4.5-2.5a.85.85 0 0 0 .04-.27.83.83 0 0 0-.38-.67.7.7 0 0 0-.26-.1 22.72 22.72 0 0 0-.45-.01h-.58v1.56h.77a1.9 1.9 0 0 0 .27-.02.66.66 0 0 0 .46-.26c.06-.07.1-.15.13-.24zm1.84 3.67c.03.06.05.1.05.14 0 .05-.01.08-.04.1a.18.18 0 0 1-.12.04h-1.45a.2.2 0 0 1-.13-.04.2.2 0 0 1-.07-.12l-1.03-1.93h-.68v1.9c0 .13-.07.2-.2.2h-1.25a.2.2 0 0 1-.13-.05c-.04-.03-.05-.08-.05-.14v-5.93c0-.06.01-.1.04-.14.03-.03.08-.05.14-.05h2.73a2.04 2.04 0 0 1 1.47.6 2.07 2.07 0 0 1 .61 1.46 1.9 1.9 0 0 1-.3 1.04 2.07 2.07 0 0 1-.75.73l1.09 2.05.07.14zM12.94 9.3c0 .17.02.37.04.6.02.24-.03.5-.05.8-.02.3-.06.62-.16.95-.08.33-.15.7-.32 1.03l-.23.54c-.08.18-.2.34-.3.52-.2.36-.45.68-.72 1-.26.33-.58.59-.87.88-.32.25-.63.53-.96.73a9 9 0 0 1-.96.58c-.31.18-.62.31-.9.45-.44.18-.83.33-1.15.44a7.03 7.03 0 0 1 .58 2.26 6.9 6.9 0 0 1-2.12-1.03 9.32 9.32 0 0 1-1.6-1.45c-.37-.4-.42-.98-.17-1.43l.05-.09a9.46 9.46 0 0 1 2.45-2.87l.57-.38c.2-.12.42-.23.66-.33a5.23 5.23 0 0 1-.06 1.42c-.06.44-.16.86-.3 1.27 0 .04-.03.08-.04.13l.45-.08c.24-.06.53-.1.8-.2.3-.07.6-.17.89-.3.31-.1.6-.26.91-.4.28-.19.6-.34.86-.57.28-.2.56-.42.78-.69.12-.12.25-.24.36-.37l.29-.42c.21-.26.34-.56.48-.84.16-.28.25-.56.32-.83.08-.27.19-.51.21-.74l.1-.59.08-.52.03.53zm-9.14.98c-.28.2-.57.4-.8.66-.12.13-.26.24-.36.37l-.3.4c-.23.26-.37.56-.52.84-.16.27-.26.55-.35.81-.08.27-.2.5-.23.74l-.11.58-.1.52v-.53l-.03-.6c-.01-.25.05-.5.07-.8.03-.3.07-.62.18-.94.1-.33.18-.7.36-1.03l.24-.53c.09-.17.21-.33.32-.5.2-.36.47-.67.75-.98.27-.33.6-.58.9-.86.32-.24.64-.5.97-.7.34-.21.66-.4.98-.55.32-.18.63-.3.92-.42.45-.17.84-.3 1.16-.4a7.06 7.06 0 0 1-.51-2.28 7.2 7.2 0 0 1 2.09 1.09c.6.44 1.1.95 1.56 1.5.35.4.38.99.12 1.43l-.05.09a9.46 9.46 0 0 1-2.54 2.8l-.58.36c-.2.1-.42.21-.66.3a5.16 5.16 0 0 1 .09-1.41c.08-.44.2-.86.34-1.26l.04-.13-.44.06c-.25.05-.54.1-.82.17-.3.07-.59.16-.9.27-.3.1-.6.26-.91.4-.29.17-.61.31-.88.53z" /></symbol><symbol viewBox="0 0 24 24" id="pay-cashondelivery"><defs><path id="pay-cashondelivery_a" d="M21.7 13.13c.78-.14 1.17.93.48 1.33l-12.36 7.3a.67.67 0 0 1-.63.02L3 18.84H1v-7.37h5l3 2.83 2.17 2.2a1.07 1.07 0 0 1 0 1.5 1.03 1.03 0 0 1-1.48 0l-2.84-2.88-.7.7 2.84 2.88a2 2 0 0 0 1.44.6 2.01 2.01 0 0 0 1.44-.6 2.08 2.08 0 0 0 0-2.92l-.83-.83 10.67-1.82zM17 8.32v2.1H8.28L8 10.06V8.32h9zm-4 5.26h-3l-1-2.1h8v1.05l-4 1.05zm-6-9.5V2h9v2.08H7zm2 3.18v-2.1h9v2.1H9z" /></defs><use xlink:href="#pay-cashondelivery_a" /></symbol><symbol viewBox="0 0 63 24" id="pay-dhl"><path fill-rule="evenodd" d="M13.67 8H23.8c2.58 0 3.23 2.04 2.51 3.03l-1.16 1.58h-3.91c-.75 0-.52-.3-.4-.47l.9-1.23c.23-.32.23-.5-.25-.5h-9.58L13.67 8zm-2.47 7.82L14.73 11h4.38c.49 0 .48.18.24.5l-.9 1.23c-.11.17-.34.48.4.48h5.87a6.09 6.09 0 0 1-4.91 2.61h-8.6zm20.21-2.62l-1.91 2.62h-5.05l1.92-2.62h5.04zm7.74-.59H26.8L30.18 8h5.04l-1.93 2.65h2.25L37.48 8h5.04l-3.37 4.61zm-.44.6l-1.91 2.61h-5.05l1.92-2.62h5.04zM59 14.79h-7.4l.4-.55h7v.55zm-8.02 1.03h-.14v-.55H59v.55h-8.02zm1.78-2.62h6.24v.56h-6.65l.4-.56zM49.5 8l-3.37 4.61h-5.35L44.17 8h5.34zm-9.15 5.2h11.46l-1.91 2.62h-8.1c-2.08 0-2.64-1-2-1.86l.55-.75zM4 14.25h7.44l-.4.55H4v-.55zm0-1.04h8.2l-.41.56H4v-.56zm0 2.07h6.68l-.4.55H4v-.55z" /></symbol><symbol viewBox="0 0 52 24" id="pay-fawry"><path fill-rule="evenodd" d="M43.96 15.02c.63-1.71 1.11-3.48 1.66-5.24-1.4-.26-1.42-.24-1.74.93-.21.76-.44 1.5-.74 2.5-.32-.41-.58-.64-.7-.92-.22-.55-.38-1.13-.56-1.7-.32-1.03-.53-1.13-1.7-.76.74 1.55.4 3.72 2.68 4.3-.14.75-.62.84-1.23.82-.17-.01-.48.18-.5.32-.03.18.12.49.28.57.9.47 2.2.11 2.55-.82zm-4.4-4.32c.05 0 .08-.05.23-.15-.07-.27-.15-.86-.2-.86-.63.03-1.24.15-1.92.26-.22-.5-.8-.31-1.26-.23-.14.03-.25.57-.26.87-.04 1.05 0 2.1-.02 3.16-.02.47.1.65.61.67.66.03 1-.13.89-.87-.04-.24 0-.5 0-.75-.07-1.63-.14-2.1 1.94-2.1zm-4.43.6l.47-1.55c-1.37-.2-1.45-.15-1.8 1.02l-.43 1.38a6.46 6.46 0 0 1-.65-1.67c-.13-.52-.3-.84-.93-.84-.6 0-.91.18-1.04.79-.13.59-.35 1.15-.6 1.93l-.5-1.6c-.36-1.17-.48-1.24-1.77-1 .05.22.08.43.15.64.36 1.11.75 2.22 1.07 3.34.15.5.45.67.93.67.51.01.82-.16.97-.7.18-.7.44-1.37.74-2.25.29.9.53 1.58.72 2.27.14.5.43.68.92.68.51 0 .83-.17.98-.7.22-.82.51-1.61.77-2.42zm-7.51 2.25c0-.72.02-1.45 0-2.17-.04-.9-.56-1.57-1.41-1.68-.68-.1-1.4-.1-2.07.01-.61.1-1.18.42-1.07 1.47.55-.18 1.06-.28 1.51-.5.75-.36 1.4-.09 1.52.7-.83.1-1.63.11-2.4.28-.6.14-1 .58-1 1.3-.01.71.35 1.21.97 1.33.67.12 1.4 0 2.1 0 .2 0 .43-.03.62.05.77.32 1.23.04 1.23-.79zm-7.1-3.13c-.09-.72.07-1.2.83-1.24.32-.02.64.06.95 0 .2-.03.54-.28.52-.37-.05-.23-.25-.6-.4-.61a9.18 9.18 0 0 0-2.01.03c-.72.1-1.26.55-1.3 1.33-.07 1.5-.09 3-.1 4.5 0 .1.24.3.39.33.33.05.67.01 1.08.01v-2.93h.94c.92 0 .98-.09.71-1.05h-1.62zm-4.1 5c1.41-1.77 1.63-4.89.45-6.01l-1.36 2.54-.24-.09-.05-1.06h-1.5c.2-.31.36-.5.47-.73.31-.64.66-1.28.9-1.96.2-.54.06-.96-.55-1.26a5.7 5.7 0 0 0-6.44 1 5.76 5.76 0 0 0-1.22 6.45c.29.64.69.79 1.29.64a8.36 8.36 0 0 0 3.6-2.15l-.69-.97 3.5-.26-.44 3.48-.74-.56-4.08 2.37c2.1 1.42 5.33.8 7.1-1.43zM46.88 5c.65.18 1.13.78 1.13 1.5v10.95c0 .65-.39 1.2-.94 1.43-.3.08-.63.1-.94.1-10 .02-19.98.01-29.98.02H5.82c-.36-.02-.7-.08-1.03-.2-.47-.26-.79-.76-.79-1.35V6.5c0-.71.48-1.31 1.13-1.49h41.74zm-21.48 7.42l.08-.12.67.45c-.2.23-.4.47-.63.67-.08.07-.23.08-.35.1-.44.06-.9.07-.96-.5-.06-.6.44-.55.82-.6h.37z" /></symbol><symbol viewBox="0 0 86 24" id="pay-interswitch"><path fill-rule="evenodd" d="M4 10.12v-.91h1.7v7.94H4v-7.03zm65.26 11.66c.22-.4.42-.81.66-1.21 1-1.68 2.06-3.33 2.97-5.06.53-1 .9-2.1 1.16-3.19.26-1.07.02-1.52-1.04-1.9-1.19-.43-2.44-.67-3.67-.98-.4-.1-.83-.13-1.25-.2a857.34 857.34 0 0 1 0-.16c.2-.07.4-.16.62-.2 2.77-.5 5.56-.87 8.39-.8.53.01 1.06.07 1.59.17.9.17 1.08.45.83 1.3-.12.44-.26.87-.48 1.26a43.5 43.5 0 0 1-8.67 10.48c-.28.26-.63.43-.95.64l-.16-.15zM35.94 11.12l.27-.06c1.6-.07 1.6-.07 1.95 1.47.17.76.37 1.52.56 2.27h.17l.74-2.71c.29-1.1.28-1.1 1.49-1l.98 3.8h.15c.26-1.1.56-2.18.78-3.28.1-.45.27-.61.73-.57.38.04.76.01 1.3.01-.7 2.01-1.35 3.93-2.03 5.84-.2.55-.71.23-1.08.26-.16.01-.44-.19-.5-.35-.35-.98-.64-1.97-1-3.06-.32 1.07-.6 2.05-.94 3.01-.06.18-.33.41-.47.4-.38-.04-.92.31-1.13-.29l-1.97-5.74zm26.05-1.9V11c.49-.03.9-.08 1.3-.07 1.33.04 2.18.79 2.25 2.1.07 1.35.01 2.7.01 4.09h-1.7v-2.1-1.35c-.06-1.2-.64-1.56-1.84-1.1v4.55h-1.75v-.58-6.42c-.01-.43.05-.69.57-.7.36 0 .72-.12 1.16-.2zm-49.26 7.92H11.1v-1.7c-.01-.7.03-1.42-.06-2.13-.03-.29-.29-.71-.53-.78-.4-.1-.86 0-1.29.08-.08.02-.14.34-.14.53v4H7.31V12.8c0-1.36.12-1.54 1.5-1.73a8.53 8.53 0 0 1 2.13-.03c.99.12 1.68.76 1.75 1.7.12 1.45.03 2.92.03 4.4zm10.5-3.8c-.2-.92-.6-1.26-1.33-1.2-.63.05-.99.47-1.03 1.2h2.36zm1.43 1.23h-3.78c.06 1.12.65 1.3 3.51 1.13l.16 1.3c-1.38.4-2.74.58-4.05-.16-1.28-.73-1.75-2.7-1.07-4.25a2.9 2.9 0 0 1 3.48-1.57c1.38.37 2.17 1.93 1.75 3.55zm5.63 2.4c.06-.32.1-.58.16-.83l.11-.44c.7.08 1.39.19 2.07.22.21 0 .43-.21.64-.32-.14-.2-.24-.47-.43-.58-.43-.24-.9-.38-1.35-.59a1.75 1.75 0 0 1-1.05-1.83c.1-.83.58-1.33 1.36-1.55a4.89 4.89 0 0 1 2.95.17c-.1.43-.2.84-.28 1.25-.53-.07-1.01-.2-1.49-.17-.27 0-.54.25-.81.38.19.21.34.48.58.62.42.24.9.38 1.34.6.72.36.99.99.93 1.77-.06.79-.52 1.26-1.25 1.48-1.16.34-2.3.24-3.48-.18zm22.89-1.24l.06.07c.37 1.24.25 1.42-1.06 1.5a5.55 5.55 0 0 1-.86-.02c-1.18-.12-1.87-.83-1.9-2.14-.06-1.75-.04-3.5-.01-5.24 0-.15.24-.38.4-.43.4-.12.8-.16 1.29-.24v1.8h1.72v1.46h-1.68c0 .86-.04 1.65.01 2.43.05.74.39.99 1.15.93.28-.02.56-.07.88-.12zm-37.06-6.5v1.8h1.71v1.43h-1.65c0 .89-.03 1.72 0 2.54.03.6.4.87 1 .82.34-.02.68-.07 1.02-.1.02.02.04.03.04.05.37 1.28.24 1.46-1.1 1.5-1.9.08-2.71-.66-2.74-2.52-.03-1.59 0-3.17-.02-4.76 0-.34.08-.52.46-.55.4-.03.8-.13 1.28-.21zM59 11.28l-.33 1.25c-.95-.12-2-.51-2.55.64-.35.72-.38 1.55.15 2.2.7.83 1.66.43 2.6.32l.24 1.26c-1.3.74-3.4.42-4.27-.6-.94-1.1-.94-3.15 0-4.33.91-1.15 2.7-1.48 4.16-.74zm23-6.81a2.36 2.36 0 0 1-4.71 0 2.36 2.36 0 0 1 4.71 0zM27.87 17.14h-1.75v-2.88c0-.73-.03-1.47.02-2.2a.9.9 0 0 1 .4-.64c1.01-.54 2.1-.61 3.25-.3l-.24 1.27-.2.03c-1.35-.14-1.48-.02-1.48 1.32v3.4zm18.4-.02v-6.05h1.66v6.05h-1.66z" /></symbol><symbol viewBox="0 0 85 24" id="pay-jumiapay"><defs><path id="pay-jumiapay_a" d="M53.52 9.1a2.63 2.63 0 0 1 .33-.42 19.14 19.14 0 0 0-.08-1.23 43.45 43.45 0 0 1-1.35-.11 13.66 13.66 0 0 1-2.7-.57c-.45.15-1.41.44-2.71.57-.61.05-1.05.09-1.37.1-.09.72-.12 1.42-.1 2.1.12 4.26 2.19 6.5 4.16 7.21 1.54-.54 3.15-2.04 3.83-4.74a.3.3 0 0 1-.03-.04c-.05-.07-.08-.16-.12-.24a2.54 2.54 0 0 1-.09-.2c-.57 2.72-2.1 4.25-3.6 4.84-1.82-.72-3.7-2.84-3.8-6.83a14.74 14.74 0 0 1 .07-1.74l1.09-.1a12.9 12.9 0 0 0 2.66-.55c.5.17 1.44.43 2.67.55l1.07.1c.04.43.07.88.07 1.3zm.54 3.55c-.8 2.63-2.5 4.27-4.35 4.85l-.03.02-.04-.02c-2.49-.78-4.7-3.5-4.82-7.95-.02-.84.03-1.76.17-2.73l.02-.1s.44.03 1.91-.12c1.69-.16 2.77-.6 2.77-.6s1.1.42 2.78.6c1.47.15 1.9.12 1.9.12l.01.1c.07.46.11.9.14 1.32a2.64 2.64 0 0 1 1.21-.3 2.44 2.44 0 0 1 1.35.4l.21.14.2.17.08.09c.1.09.18.18.25.3l.14.21c.25.4.39.9.44 1.37 0 .54-.14 1.01-.39 1.44l-.07.1-.16.22a1.9 1.9 0 0 1-.17.2 3.63 3.63 0 0 1-.5.42.37.37 0 0 1-.11.08c-.37.2-.81.33-1.25.33-.44 0-.88-.11-1.25-.33l-.2-.15-.22-.16a3.04 3.04 0 0 1-.02-.02zm.41-2.08l.3.3-.23 1.4 1.2-.66 1.18.66-.22-1.4.96-.99-1.33-.2-.6-1.26-.6 1.26-.6.1c-.01.27-.03.53-.06.8zm-.63-.7l-.04.01.04.04v-.04zm-43.82 6.81a1.76 1.76 0 0 1-.39-.64 2.7 2.7 0 0 1-.14-.92V9.37h1.28v5.66c0 .68.58 1.03 1.74 1.03h1.98c1.14 0 1.72-.35 1.72-1.03V9.37h1.27v5.77c0 .77-.25 1.34-.74 1.7-.5.4-1.32.57-2.44.57h-1.61l-.7-.01a4.83 4.83 0 0 1-.73-.1 3.78 3.78 0 0 1-.68-.22 2.13 2.13 0 0 1-.56-.4zm19.63.79v-.02h-1.28v-5.6l-3.35 5.22c-.1.14-.2.27-.35.34a.9.9 0 0 1-.42.11c-.33 0-.58-.14-.79-.45l-3.4-5.26v5.64h-1.28v-7.29c0-.26.07-.44.19-.59a.65.65 0 0 1 .49-.2c.32 0 .56.13.74.39l4.05 6.02 3.98-6.02a.8.8 0 0 1 .7-.39c.23 0 .4.07.53.24.12.16.2.38.2.64v7.22zm1.25-8.1h1.28v8.03H30.9V9.37zm9.62 5.85h-4.7l-1.2 2.23h-1.5l4.33-7.57c.19-.34.43-.5.73-.5.32 0 .56.16.76.49l4.24 7.58h-1.44l-1.22-2.23zm-2.39-4.09l-1.6 2.77h3.21l-1.6-2.77zM7.02 13.84l.02-3V9.39h1.28l-.06 4.45c0 2.27-.72 3.46-2.35 3.83-1.12.26-1.68.31-1.9.33L4 16.5a7.81 7.81 0 0 0 2.05-.39c.7-.29 1-1 .97-2.27zm57.13-4.58c1.69 0 2.78 1.06 2.78 2.71 0 1.67-1.07 2.71-2.78 2.71h-2.44v2.84h-1.14V9.26h3.58zm-2.44 1.15v3.17h2.4c1.08 0 1.68-.56 1.68-1.59s-.6-1.58-1.69-1.58h-2.38zm8.11-1.15h1.27l3.35 8.26h-1.25l-.93-2.3h-3.63l-.93 2.3h-1.25l3.37-8.26zm1.99 4.86l-1.36-3.4-1.35 3.4h2.7zm7.8-4.86H81l-3.33 5.02v3.26h-1.13v-3.26L73.2 9.26h1.39l2.52 3.8 2.51-3.8z" /></defs><use xlink:href="#pay-jumiapay_a" /></symbol><symbol viewBox="0 0 36 24" id="pay-mastercard"><defs><path id="pay-mastercard_a" d="M18 2.87a8.75 8.75 0 0 0-3.3 6.87 8.76 8.76 0 0 0 3.3 6.87 8.75 8.75 0 0 0 3.3-6.87A8.75 8.75 0 0 0 18 2.87zM23.35 1a8.55 8.55 0 0 0-4.8 1.46l.22.18a9.46 9.46 0 0 1 3.2 7.1 9.46 9.46 0 0 1-3.2 7.1l-.21.18a8.55 8.55 0 0 0 4.79 1.46c4.78 0 8.65-3.91 8.65-8.74S28.13 1 23.35 1zm-6.12 15.84l.21.18a8.55 8.55 0 0 1-4.79 1.46C7.87 18.48 4 14.57 4 9.74S7.87 1 12.65 1a8.55 8.55 0 0 1 4.8 1.46l-.22.18a9.46 9.46 0 0 0-3.2 7.1 9.46 9.46 0 0 0 3.2 7.1zm14.5-1.68v-.34h-.09l-.1.23-.1-.23h-.09v.34h.06v-.26l.1.22h.06l.1-.22v.26h.06zm-.56 0v-.28h.12v-.06H31v.05h.11v.29h.06zm.27 7.54v.06h.06a.05.05 0 0 0 .02 0l.01-.03v-.02a.05.05 0 0 0-.03 0h-.06zm.06-.04a.1.1 0 0 1 .06.02.06.06 0 0 1 .02.05.06.06 0 0 1-.02.04.08.08 0 0 1-.05.02l.07.09h-.05l-.07-.08h-.02v.08h-.04v-.22h.1zm-.02.29a.17.17 0 0 0 .13-.05.17.17 0 0 0 .05-.13.18.18 0 0 0-.1-.17.18.18 0 0 0-.25.17.18.18 0 0 0 .1.17h.07zm0-.41a.23.23 0 0 1 .17.07.23.23 0 0 1 .07.16.22.22 0 0 1-.07.16.23.23 0 0 1-.17.07.23.23 0 0 1-.23-.23.23.23 0 0 1 .07-.16.23.23 0 0 1 .16-.07zm-21.43-.82c0-.41.27-.75.7-.75.41 0 .69.32.69.75 0 .42-.28.74-.7.74-.43 0-.69-.34-.69-.75zm1.86 0v-1.16h-.5v.28a.87.87 0 0 0-.72-.34c-.65 0-1.15.5-1.15 1.21s.5 1.22 1.15 1.22c.32 0 .56-.13.72-.34v.29h.5v-1.16zm16.88 0c0-.41.26-.75.7-.75.41 0 .69.32.69.75 0 .42-.28.74-.7.74-.43 0-.69-.34-.69-.75zm1.86 0v-2.1h-.5v1.22a.87.87 0 0 0-.73-.34c-.64 0-1.14.5-1.14 1.21s.5 1.22 1.14 1.22c.33 0 .57-.13.73-.34v.29h.5v-1.16zm-12.54-.77c.32 0 .53.2.58.56H17.5c.05-.33.26-.56.61-.56zm.01-.45c-.67 0-1.14.5-1.14 1.21 0 .74.49 1.22 1.17 1.22.35 0 .67-.08.95-.32l-.25-.38a1.09 1.09 0 0 1-.67.25c-.32 0-.61-.15-.68-.57h1.7l.01-.2c0-.72-.45-1.21-1.09-1.21zm6.03 1.21c0-.4.27-.74.7-.74.41 0 .7.32.7.75 0 .42-.29.74-.7.74-.43 0-.7-.34-.7-.75zm1.86 0v-1.16h-.5v.29a.87.87 0 0 0-.72-.34c-.65 0-1.15.5-1.15 1.21s.5 1.22 1.15 1.22c.32 0 .56-.13.72-.34v.29h.5v-1.16zm-4.68 0c0 .7.49 1.22 1.23 1.22.34 0 .57-.07.82-.27l-.24-.41a1 1 0 0 1-.6.2c-.4 0-.69-.29-.69-.74 0-.44.3-.73.7-.74a1 1 0 0 1 .6.21l.23-.4c-.25-.2-.48-.28-.82-.28-.74 0-1.23.51-1.23 1.21zm6.44-1.21a.68.68 0 0 0-.6.34v-.29h-.5v2.32h.5v-1.3c0-.38.16-.6.49-.6.1 0 .2.02.31.07l.16-.48a1.06 1.06 0 0 0-.36-.06zm-13.39.24a1.7 1.7 0 0 0-.94-.24c-.58 0-.95.28-.95.74 0 .38.28.61.79.68l.24.04c.27.04.4.1.4.24 0 .18-.18.28-.53.28-.34 0-.6-.11-.76-.24l-.23.4c.27.2.62.3 1 .3.65 0 1.04-.32 1.04-.76 0-.41-.3-.63-.8-.7l-.24-.03c-.22-.03-.39-.08-.39-.23 0-.17.16-.27.44-.27.3 0 .57.1.71.2l.22-.41zm6.45-.24a.68.68 0 0 0-.61.34v-.29h-.5v2.32h.5v-1.3c0-.38.17-.6.5-.6.1 0 .2.02.3.07l.16-.48a1.06 1.06 0 0 0-.35-.06zm-4.27.05h-.81v-.7h-.5v.7h-.48v.47h.47v1.05c0 .54.2.86.8.86.21 0 .46-.07.62-.18l-.14-.43a.92.92 0 0 1-.44.13c-.25 0-.33-.15-.33-.39v-1.04h.81v-.47zM9.1 22.87v-1.45c0-.55-.34-.92-.9-.92-.3 0-.6.08-.8.41a.84.84 0 0 0-.77-.41.76.76 0 0 0-.67.34v-.29h-.5v2.33h.5v-1.3c0-.4.23-.6.57-.6.33 0 .5.21.5.6v1.3h.5v-1.3c0-.4.23-.6.56-.6.35 0 .5.21.5.6v1.3h.51z" /></defs><use xlink:href="#pay-mastercard_a" /></symbol><symbol viewBox="0 0 50 24" id="pay-max"><path fill-rule="evenodd" d="M27.5 7.43c.43.1.48.47.48.84l-.02 7.61c0 .31 0 .65-.38.74-.17.04-.42 0-.53-.11-.13-.11-.19-.35-.19-.54v-5.35l-.13-.04-1.4 3.01c-.39.83-.74 1.67-1.16 2.48-.14.25-.45.57-.68.57-.22 0-.53-.33-.65-.59-.87-1.8-1.7-3.63-2.6-5.59-.04.23-.07.33-.07.42 0 1.69-.02 3.37 0 5.06 0 .4-.12.7-.52.73-.43.02-.61-.3-.61-.7V8.14c0-.35.14-.65.51-.72.37-.07.58.17.73.5l2.9 6.25.34.67 1.32-2.87 1.85-4c.15-.34.37-.65.8-.55zm18.26 8.1c.13.2.26.46.23.68-.01.16-.27.4-.43.41a.86.86 0 0 1-.61-.31c-.53-.7-1.01-1.44-1.52-2.16l-.86-1.21-1.54 2.2c-.26.37-.51.75-.79 1.11-.21.29-.46.6-.87.3-.38-.3-.27-.67-.04-1 .73-1.05 1.45-2.11 2.21-3.15.26-.35.27-.6 0-.97a56.6 56.6 0 0 1-2-2.87 1 1 0 0 1-.18-.64c.02-.18.22-.41.4-.45.15-.04.43.08.54.22.42.53.79 1.1 1.18 1.65l1.12 1.62c.75-1.08 1.43-2.08 2.13-3.06.2-.28.4-.66.85-.4.36.2.42.58.14 1l-2.17 3.12-.24.36c.82 1.18 1.65 2.35 2.45 3.54zm-13.14-3.18h2.09L33.66 9.6l-1.04 2.75zm1.67-4.33c.97 2.55 1.9 5.12 2.84 7.68l.15.5c-.14.13-.3.39-.48.41-.19.03-.5-.13-.58-.3-.34-.77-.63-1.56-.92-2.35-.09-.26-.2-.38-.5-.38-.74.02-1.48 0-2.23-.02-.3-.01-.44.11-.54.4a40.9 40.9 0 0 1-.8 2.12c-.14.32-.27.72-.75.54-.46-.18-.43-.53-.29-.93.94-2.56 1.87-5.13 2.83-7.68.1-.25.43-.54.67-.56.19-.02.51.32.6.57zm-21.6 6.02V9.76l-2.28 2.18 2.29 2.1zm-5.5.05l2.27-2.15-2.27-2.18v4.33zm5.98-5.46c.12.05.23.29.23.44l-.03 5.97c0 .34-.16.49-.5.49H7.1c-.43 0-.6-.17-.6-.61.02-1.9 0-3.81 0-5.71 0-.2.12-.4.2-.6.19.1.43.14.58.28l2.2 2.12.47.44.5-.47 2.26-2.2c.12-.1.35-.2.47-.15zm2.2 6.3V9.12a2.54 2.54 0 0 0-2.55-2.55h-5.8A2.54 2.54 0 0 0 4.48 9.1v5.83a2.54 2.54 0 0 0 2.54 2.55h5.8a2.54 2.54 0 0 0 2.54-2.55zm-2.55-8.86a3.04 3.04 0 0 1 3.03 3.04v5.83a3.04 3.04 0 0 1-3.03 3.03h-5.8A3.04 3.04 0 0 1 4 14.94V9.1a3.04 3.04 0 0 1 3.02-3.04h5.8z" /></symbol><symbol viewBox="0 0 30 24" id="pay-mcash"><path fill-rule="evenodd" d="M15.4 22.53a10.56 10.56 0 0 0 10.12-10.5c0-5.87-4.7-10.55-10.58-10.55a10.55 10.55 0 0 0-10.56 10.5A10.6 10.6 0 0 0 15.4 22.53zm10.52-10.88a10.92 10.92 0 0 1-9.76 11.2 10.92 10.92 0 0 1-12.1-9.68 10.91 10.91 0 0 1 9.7-12.01 10.95 10.95 0 0 1 12.16 10.49zM18.63 10c.03-.5-.27-.72-.75-.61-.6.13-1.32 1.13-1.29 1.76h1.9c.05-.4.13-.77.14-1.15zm-.3 2.11c.04-.16.05-.33.08-.54-.59 0-1.14.01-1.7-.01-.28-.01-.4.09-.42.35l-.03.33h1.9c.05 0 .15-.07.16-.13zm-4.43-1.14c.05-.34.1-.67.1-1 0-.48-.27-.68-.73-.59-.57.12-1.31 1.13-1.26 1.78h1.7c.06 0 .18-.12.19-.2zm-.17 1.12c.04-.15.04-.32.06-.5h-2.02l-.14.66h1.92c.06 0 .16-.1.18-.16zm7.17.2h1.4l-.1.36h-1.14c-.2 0-.34.03-.34.28 0 .14-.06.3-.06.44 0 .2-.03.53.08.59.18.1.45.02.68.01.05 0 .1-.03.15-.05.21.54.1.9-.37 1.17-.8.43-1.62.55-2.46.13-.46-.23-.61-.68-.64-1.15-.03-.35.03-.71.05-1.07v-.32h-1.97l-.21 1.44c-.05.36-.09.71-.15 1.06-.01.08-.13.18-.2.19h-2.36l.38-2.71h-1.9c-.07.01-.18.15-.2.24l-.27 1.89-.1.56h-2.5l.19-1.5c.04-.33.12-.65.15-.98.01-.06-.1-.17-.17-.18H7.65l-.02-.44h1.45l.1-.65H7.95c-.16 0-.31.01-.32-.22 0-.23.13-.26.32-.25h1.3l.17-1.53c-.18-.03-.32-.09-.45-.07-.33.03-.44-.15-.48-.41l-.1-.8 2.45-.83c.2-.06.38-.15.58-.2.2-.04.34.02.36.25l.14 1.56c0 .06 0 .13.08.22l.5-.66a3.3 3.3 0 0 1 2.41-1.36c.88-.06 1.58.37 1.69 1.44l.04.47.9-1a2.92 2.92 0 0 1 2.2-.88c.87-.02 1.55.65 1.51 1.54-.02.74-.12 1.48-.2 2.26.27 0 .56 0 .85.04.13.02.24.13.36.2-.1.07-.21.19-.34.21-.19.04-.39.02-.59.02-.44 0-.46.03-.45.48 0 .06 0 .12.02.2zm-.52 4.31h.95c-.44.5-.16 1.06-.24 1.57a.15.15 0 0 0 .02.1c.05.09.11.16.17.24-.13.02-.26.06-.39.07a1.16 1.16 0 0 1-.3 0c-.1 0-.17-.06-.25-.09.05-.06.12-.11.14-.18.04-.17.06-.35.09-.54h-.87l.25.82-.76-.01c-.04 0-.11-.16-.1-.23.04-.18.15-.34.17-.51.03-.25.03-.51 0-.76-.02-.15-.14-.28-.25-.47h.92l-.23.77h.88l-.2-.78zm-7.23 1.2l.13-.13-.31-.6-.26.5.44.23zm.44-.62c.1.28.2.57.33.84.06.14.16.25.28.44-.04.03-.12.11-.2.12-.23.03-.45.02-.67.01-.06 0-.14-.05-.15-.1-.02-.04.03-.11.06-.17l.13-.17c-.08-.04-.15-.1-.23-.11a1.72 1.72 0 0 0-.42 0c-.05.01-.13.06-.16.1-.01.04.05.11.08.17.03.06.1.14.08.18-.02.05-.11.1-.18.1-.17.02-.36.04-.52 0-.07-.02-.17-.2-.15-.25.16-.34.35-.65.52-.98.07-.13.11-.27.16-.39l-.2-.34c.12-.03.23-.09.34-.09.22 0 .5-.07.66.04.15.1.16.4.24.6zm3.55.38a.56.56 0 0 1-.1.93 1.16 1.16 0 0 1-1 .07c-.1-.04-.12-.3-.19-.5.28.08.47.15.67.19.06 0 .2-.07.21-.12a.35.35 0 0 0-.1-.26c-.1-.09-.24-.13-.35-.22-.22-.16-.43-.35-.36-.66.08-.32.36-.42.65-.48h.18c.48 0 .5 0 .46.58-.1-.06-.18-.12-.25-.14a1 1 0 0 0-.35-.07c-.05 0-.15.13-.14.16a.65.65 0 0 0 .2.24c.15.1.33.17.47.28zm-7.12-1.03c.1.04.23.15.25.24.02.14-.05.28-.07.35-.25-.11-.44-.27-.6-.25-.32.04-.5.3-.45.62.04.24.1.56.27.66.17.12.48.02.78.01.04.28-.28.5-.74.41-.77-.15-1.04-1-.52-1.68.28-.36.66-.5 1.08-.36z" /></symbol><symbol viewBox="0 0 30 24" id="pay-mtnmomo"><path fill-rule="evenodd" d="M14.98 16.27c5.73 0 10.37-1.91 10.37-4.27 0-2.35-4.64-4.26-10.37-4.26-5.73 0-10.37 1.9-10.37 4.26s4.64 4.27 10.37 4.27zM4 22.97V1.03h21.97v21.92H4zm13.85-13.1l-.27 1.08h-1.16l-.57 2.27h-1.22l.57-2.27h-1.16l.27-1.08h3.54zm-6.74 2.48l1.13-2.48H14l-1.07 4.26h-1.12l.64-2.75-1.34 2.75h-.9v-2.75l-.7 2.75H8.33L9.4 9.87h1.71v2.48zm8.81-.21l.59-2.27h1.12l-1.07 4.26H19.4l-.6-2.32-.58 2.32h-1.13l1.07-4.26h1.24l.53 2.27zm-5.52 2l.15-.62h1.22l-.15.61H14.4z" /></symbol><symbol viewBox="0 0 26 24" id="pay-orangemomo"><path fill-rule="evenodd" d="M4.8 10.47c-.42-.11-.68-.4-.78-.83L4 9.58v-.35l.19-.45c.02-.05.07-.1.1-.14l4.34-4.42.08-.05-.02-.03H6a1.1 1.1 0 0 1-1.1-1.21c.05-.57.5-1.02 1.07-1.02h5.4c.6 0 1.08.49 1.08 1.11V8.5a1.1 1.1 0 0 1-.93 1.1 1.09 1.09 0 0 1-1.25-1.08V5.74l-.03-.02-.16.18-4.2 4.28c-.3.3-.67.41-1.09.3zm17.17-8.54c0 .03.02.05.03.08v.2l-.09.3c-.05.16-.15.3-.27.42L19.99 4.6l-2.6 2.65-.13.13h2.76c.56 0 1.02.47 1.06 1.03a1.1 1.1 0 0 1-1.14 1.18h-5.26a1.08 1.08 0 0 1-1.13-1.08V3a1.08 1.08 0 1 1 2.16.02V5.8c.04-.02.06-.02.07-.04l1.47-1.5 1.5-1.52 1.36-1.38c.16-.17.36-.28.58-.33.03 0 .06-.02.08-.03h.26l.09.03c.47.12.75.42.85.9zM7.03 18.03h1.1l.05.01v3.94h-.8v-2.74h-.02l-.2.6c-.24.68-.48 1.37-.7 2.07-.03.06-.06.08-.12.08h-.5c-.06 0-.1-.02-.11-.08l-.6-1.74-.3-.88-.03-.03V22H4v-3.96h1.12c.07 0 .1.02.12.1l.84 2.51c0 .03.02.06.04.1l.19-.6.64-2.03c.02-.05.03-.08.08-.08zm-1.98-4.06a1.81 1.81 0 0 0-.02 1.63c.33.71 1.34.68 1.7.1a1.86 1.86 0 0 0 .09-1.62.92.92 0 0 0-.86-.61c-.4-.02-.73.13-.91.5zm-.33 2.5a1.9 1.9 0 0 1-.7-1.31L4 15.08v-.55l.08-.39c.28-1.04 1.16-1.55 2.2-1.38.84.14 1.37.78 1.5 1.61.08.48.05.95-.15 1.4-.3.67-.82 1.03-1.54 1.1-.5.03-.97-.07-1.37-.4zm15.25-1.44h1.23c-.04-.4-.27-.62-.63-.6-.35.02-.6.26-.6.6zm.78-1.19c.65.06 1.1.51 1.21 1.2l.04.2v.3h-2.02c-.04.29.13.59.4.67.28.1.55.05.78-.17l.02-.02c.05-.14.16-.14.28-.13h.47v.05c-.18.54-.59.86-1.14.9-.36.04-.71-.02-1.02-.23a1.4 1.4 0 0 1-.58-1.1 1.6 1.6 0 0 1 .25-1.06c.32-.47.77-.65 1.31-.6zm-1.86 7.22l.6-1.93h.81l-.06.2-1.1 3c-.14.39-.38.63-.8.66l-.02.01h-.37l-.26-.04v-.64l.35.02c.29.02.46-.19.38-.47l-.32-.88-.64-1.75-.04-.1h.83l.62 1.91h.02zm-.98-5.14c.17-.18.22-.4.22-.62 0-.2-.03-.38-.1-.54a.58.58 0 0 0-.56-.33.53.53 0 0 0-.51.34 1.2 1.2 0 0 0 0 1c.2.42.72.4.95.15zm.21-2h.75v2.64c0 .16-.02.33-.06.49a.96.96 0 0 1-.59.66 1.9 1.9 0 0 1-1.4.04c-.36-.13-.6-.37-.65-.77v-.04h.59c.11-.01.18 0 .24.13.09.21.33.28.57.25.33-.03.5-.2.54-.53.03-.16 0-.33 0-.52a.91.91 0 0 1-.37.33c-.67.3-1.4-.05-1.6-.78a1.9 1.9 0 0 1 .13-1.38c.29-.56 1.04-.79 1.56-.47a.9.9 0 0 1 .16.13l.13.17v-.35zm-6.25 1.97c.03-.16.03-.32.03-.47l-.49.1c-.16.03-.32.04-.46.15-.13.09-.16.22-.13.37.02.14.1.23.24.25.13.02.27.03.4 0a.47.47 0 0 0 .41-.4zm-1.13-1.94c.48-.17.97-.16 1.44 0 .34.11.5.36.5.72v1.53c0 .19.04.38.06.58h-.67c-.07 0-.1-.02-.1-.09l-.04-.17c-.2.17-.4.28-.65.3-.18.03-.37.04-.55 0-.49-.08-.73-.42-.7-.92a.73.73 0 0 1 .6-.7c.27-.07.54-.1.8-.14.1-.01.19-.03.27-.06.15-.05.2-.13.2-.28 0-.16-.08-.28-.22-.32a.84.84 0 0 0-.51 0c-.18.06-.25.2-.28.4h-.77c0-.4.23-.72.62-.85zm4.73 6.3h1.23c-.03-.39-.26-.6-.6-.6-.36 0-.6.23-.63.6zm2.04.5h-2.04c-.04.53.45.87.95.66a.6.6 0 0 0 .32-.27c0-.02.03-.04.05-.04h.65c-.08.27-.2.5-.4.67-.28.23-.6.3-.95.3a1.32 1.32 0 0 1-1.13-.57c-.2-.27-.27-.58-.28-.9 0-.43.1-.81.4-1.11.4-.43.91-.54 1.46-.38.54.15.8.57.91 1.1.04.17.04.35.06.54zm-6.96.33c.14-.35.14-.7 0-1.05a.6.6 0 0 0-.56-.39c-.27 0-.47.11-.59.36-.08.18-.1.37-.1.56h-.03c.04.18.06.36.12.52.1.26.3.38.58.39a.6.6 0 0 0 .58-.39zm.09-1.9c.45.21.69.59.77 1.08l.02.3c0 .4-.1.76-.37 1.07-.18.2-.41.33-.68.39-.4.09-.79.07-1.15-.13-.45-.24-.66-.65-.7-1.15-.03-.27-.01-.53.08-.78.2-.55.6-.83 1.15-.9.3-.04.6 0 .88.12zm4.32-4.33c-.06-.29-.25-.42-.54-.39-.33.04-.5.24-.5.63-.02.52-.02 1.04-.02 1.56v.12h-.77v-2.85h.74v.35c.12-.1.22-.22.36-.3.35-.2.73-.18 1.09-.01.22.1.34.3.39.53.03.14.05.3.05.44v1.84H15v-1.59l-.03-.33zm-.57 5.43v1.7h-.77V20.32c0-.12-.03-.25-.07-.37-.05-.16-.16-.24-.32-.27-.4-.06-.66.15-.69.59v1.71h-.78v-2.85h.73v.34l.24-.2c.4-.34 1.1-.25 1.37 0a1 1 0 0 1 .28.63l.01.38zM9.9 13.84c.07 0 .09.03.09.1v.64h-.4c-.3.03-.5.2-.58.5-.03.13-.05.26-.06.4v1.29h-.77v-2.85h.73v.47c.13-.2.3-.36.5-.46a.9.9 0 0 1 .5-.1z" /></symbol><symbol viewBox="0 0 57 24" id="pay-ucountrewards"><path d="M5.4 17h.8c.6 0 1-.2 1-.7s-.4-.7-1-.7h-.8ZM5 19v-3.8h1.3c.8 0 1.3.4 1.3 1a1 1 0 0 1-.9 1l.9 1.7h-.5l-.8-1.6h-.9v1.6Z" /><path d="M12.3 15.2v3.7h2.3v-.4h-1.9v-1.3h1.4v-.4h-1.4v-1.2h1.8v-.4h-2.2z" /><path d="m19.9 19-1-3.8h.4l.6 2.2.2.9.2-1 .5-2.1h.4l.6 2.2.2.9c0-.3 0-.6.2-1l.5-2.1h.4l-1 3.7h-.4l-.7-3.1-.8 3.1Z" /><path d="m28.7 15.7.6 1.8H28Zm-.2-.5-1.3 3.7h.4l.4-1h1.4l.4 1h.5L29 15.2Z" /><path d="M35.2 17h.8c.6 0 .9-.2.9-.7s-.3-.7-.9-.7h-.8Zm-.4 2v-3.8H36c.8 0 1.3.4 1.3 1a1 1 0 0 1-.8 1l.8 1.7H37l-.9-1.6h-.8V19Z" /><path d="M42.5 18.5h.6c.9 0 1.3-.4 1.3-1.4s-.4-1.5-1.3-1.5h-.6Zm-.4.4v-3.7h1a1.7 1.7 0 0 1 1.8 1.9 1.7 1.7 0 0 1-1.9 1.8Z" /><path d="m49.3 18 .4-.2a1 1 0 0 0 1 .8c.5 0 .8-.2.8-.6s-.2-.6-.9-.8-1.2-.5-1.2-1.1a1 1 0 0 1 1.2-1 1.3 1.3 0 0 1 1.3.9l-.3.2a1 1 0 0 0-1-.6c-.5 0-.8.2-.8.5s.3.5 1 .8 1.2.4 1.2 1.1-.5 1-1.3 1a1.4 1.4 0 0 1-1.4-1" /><path d="M19.4 9.8h1.9a3.5 3.5 0 0 1-.4 1.6A3 3 0 0 1 18 13c-2 0-3.5-1.2-3.5-4S16 5 18 5a2.9 2.9 0 0 1 3.2 2.5 4.8 4.8 0 0 1 0 .5h-2c-.2-.7-.4-1.3-1.2-1.3-1 0-1.5.9-1.5 2.3s.5 2.3 1.5 2.3c.8 0 1.1-.5 1.3-1.5" /><path d="M27.6 9c0-1.4-.6-2.3-1.7-2.3s-1.6.9-1.6 2.3.6 2.3 1.6 2.3 1.7-.9 1.7-2.3m-5.3 0a3.7 3.7 0 1 1 7.3 0 3.7 3.7 0 1 1-7.3 0" /><path d="M30.6 9.8V5h2v4.8c0 1 .4 1.5 1.2 1.5s1.1-.5 1.1-1.6V5h2v4.8c0 2-1 3.2-3.1 3.2s-3.2-1.2-3.2-3.2" /><path d="M42.8 5v4.3L40.1 5h-2v8h1.8V8.7l2.9 4.3h1.9V5h-1.9z" /><path d="M45.7 5v1.7h2.1V13h2V6.7H52V5h-6.3z" /><path d="M7.1 5H5v3.7A4.3 4.3 0 0 0 9.2 13a4.3 4.3 0 0 0 4.2-4.3v-.4h-2v.4a2.1 2.1 0 0 1-2 2.1H9a2.1 2.1 0 0 1-2-2.1Z" /><path d="M11.3 5h2.1v2.1h-2.1z" /><path fill="none" d="M0 0h57v24H0z" /></symbol><symbol viewBox="0 0 42 24" id="pay-verve"><path fill-rule="evenodd" d="M18.12 12.93a1.17 1.17 0 0 0-1.15-1.22c-.7-.02-1.23.5-1.22 1.21h2.37zM14.18 8.7h-1.76c-.21 0-.31.06-.39.27a159.3 159.3 0 0 1-1.22 3.28c-.29.74-.6 1.46-.93 2.25l-.18-.39L7.7 9c-.04-.1-.15-.26-.22-.27-.62-.02-1.25 0-1.89 0l.05.22a71.42 71.42 0 0 0 3.34 7.75c.05.09.2.17.3.18.37.02.75 0 1.12.01.21.01.32-.07.4-.27.93-2.12 1.88-4.23 2.8-6.35.22-.49.38-1 .58-1.55zm5.48 5.47h-3.95c.1.56.39.93.87 1.15.52.23 1.06.2 1.6.14.36-.04.71-.12 1.12-.2l.16 1.31c0 .04-.1.13-.16.14-1 .3-2.02.43-3.06.16a2.8 2.8 0 0 1-1.7-1.23 5.86 5.86 0 0 1-8.09 1.2 5.99 5.99 0 0 1-2.18-6.63 5.92 5.92 0 0 1 5.44-4.16 5.95 5.95 0 0 1 5.91 4.68c1.15-.39 2.29-.52 3.24.41.83.81.9 1.89.8 3.03zm16.78-1.25c-.04-.74-.52-1.22-1.19-1.23-.68 0-1.16.49-1.2 1.23h2.4zm-2.4 1.25c.12.78.7 1.3 1.55 1.31.66 0 1.31-.1 2.03-.15l.14 1.24c0 .05-.1.13-.15.15-1.01.3-2.03.42-3.07.14a2.83 2.83 0 0 1-2.14-2.61c-.07-.7-.04-1.4.24-2.07a2.94 2.94 0 0 1 4.1-1.38c.73.43 1.06 1.13 1.2 1.93.06.38.04.77.06 1.16 0 .21-.09.3-.31.29h-3.65zm-8.4-3.56h1.68l1.29 4.08h.15l1.29-4.08h1.71c-.25.8-.46 1.6-.76 2.37-.47 1.22-1 2.42-1.5 3.63-.07.2-.18.27-.38.24a1.32 1.32 0 0 0-.42 0c-.58.13-.84-.17-1.07-.67a38.23 38.23 0 0 1-1.94-5.32l-.05-.25zm-4.6 6.22l-.01-.31v-5.05c0-.22.05-.35.25-.46a4.4 4.4 0 0 1 3.4-.33l-.23 1.32c-.4 0-.76-.05-1.12 0-.5.08-.55.17-.55.68v4.15h-1.74z" /></symbol><symbol viewBox="0 0 31 24" id="pay-visa"><defs><path id="pay-visa_a" d="M6.28 15.89l-.86-6.28 2.08 1.34L4 8.12h3.37l.34 3.69.1 1.31.62-1.4 1.67-3.6h2.21L8.4 15.89H6.28zm5.56 0l1.45-7.77h1.98l-1.44 7.77h-1.99zm5.34.11c-.9 0-1.73-.21-2.19-.57l-.14-.1.68-1.69.22.14a3.1 3.1 0 0 0 1.58.43c.42 0 .91-.16.91-.63 0-.24-.14-.46-.84-.83-.76-.42-1.61-1.03-1.61-2.15 0-1.53 1.25-2.6 3.05-2.6.73 0 1.32.13 1.8.4l.16.1-.63 1.72-.23-.12a2.58 2.58 0 0 0-1.19-.3c-.63 0-.9.28-.9.54 0 .28.35.5.93.84 1.03.55 1.53 1.25 1.53 2.13 0 1.6-1.26 2.69-3.13 2.69zm7.76-.11l-.15-1.9h-1.71l-.86 1.9H20.1l3.7-7.77h2.3l.9 7.77h-2.06zm-.49-5.18l-.2.55-.5 1.18h.84l-.1-1.25-.04-.48z" /></defs><use xlink:href="#pay-visa_a" /></symbol><symbol viewBox="0 0 24 24" id="pickup"><path fill="#F90" d="M21.48 13.31c.58.48.64 1.31.13 1.85v.01l-4.25 4.63a3.43 3.43 0 01-2.5 1.07H8.22l-1.16 1.09L2 18.05l2.91-2.7a5.9 5.9 0 016.05-1.14h3.6c.74 0 1.34.56 1.34 1.26s-.6 1.27-1.35 1.27h-2.78c-.25 0-.45.18-.45.42 0 .23.2.42.45.42h3.15c.46 0 .89-.19 1.19-.5l3.4-3.65c.5-.55 1.4-.6 1.97-.12zm-2.64-7.98v7.12h-9V5.33h9zm-4.51 1.12h-.57l-.24.01V8.9H12.1l2.27 2.05 2.23-1.99h-1.27v-2.5h-.99zm-.36-3.37V4.5H9.84l1.53-1.43h2.6zm3.37 0l1.6 1.43H14.8V3.08h2.54z" /></symbol><symbol viewBox="0 0 24 24" id="price-tag"><path fill="#F7A24B" d="M16.4 5.8a1.8 1.8 0 113.6 0 1.8 1.8 0 01-3.6 0m-4 15.6l9-9c.4-.4.6-.9.6-1.4V4a2 2 0 00-2-2h-7a2 2 0 00-1.4.6l-9 9a2 2 0 000 2.8l7 7a2 2 0 002.8 0" /></symbol><symbol viewBox="0 0 24 24" id="prime"><path d="M11.04 4.3a1.57 1.57 0 012.23.4c.52.75.34 1.78-.38 2.3a1.2 1.2 0 01-.12.13c-.1 4.94 2.72 5.12 3.04 5.13h.03c2.23.04 3.25-2.34 3.45-2.9a1.68 1.68 0 01-.51-1.21c0-.92.71-1.66 1.6-1.66.88 0 1.6.72 1.62 1.62.02.92-.68 1.67-1.57 1.7L18 17.93v.02c0 .58-2.69 1.05-6.01 1.05-3.33 0-6.03-.47-6.03-1.05L3.51 9.8a1.59 1.59 0 01-1.12-.57 1.7 1.7 0 01.16-2.33c.67-.6 1.69-.53 2.27.16a1.7 1.7 0 01-.16 2.34c.23.61 1.25 2.9 3.44 2.86h.03c.32 0 3.14-.19 3.03-5.13h.01l-.1-.1a1.7 1.7 0 01-.03-2.73zm1.2 7.93A2.8 2.8 0 009.37 15a2.82 2.82 0 002.68 2.95 2.85 2.85 0 002.85-2.85c0-1.55-1.18-2.8-2.68-2.86zm-.18.8l.62 1.26 1.37.2-1 .97.24 1.37-1.23-.65-1.23.65.23-1.37-1-.97 1.38-.2.62-1.25z" fill="#F68B1E" /></symbol><symbol viewBox="0 0 24 24" id="promo"><path d="M11.19 2.66c.43-.56 1.14-.56 1.57 0l1.9 2.45 3.07-.69c.7-.16 1.24.29 1.2.99l-.17 3.06 2.81 1.4c.64.32.77 1 .28 1.5l-2.15 2.26 1.23 2.82c.28.65-.07 1.25-.79 1.33l-3.12.38-.92 2.93c-.22.68-.88.91-1.48.53l-2.65-1.67-2.64 1.67c-.6.38-1.27.15-1.48-.53l-.92-2.93-3.12-.38c-.72-.08-1.07-.68-.8-1.33l1.24-2.82-2.15-2.25c-.49-.51-.37-1.2.27-1.51l2.81-1.4-.16-3.06c-.04-.7.5-1.15 1.2-.99l3.07.7zm3.24 10.11c-.5 0-.91.17-1.26.51-.35.34-.52.75-.52 1.23s.17.89.52 1.23c.35.34.77.5 1.26.5s.9-.16 1.25-.5c.35-.35.52-.76.52-1.23 0-.48-.17-.89-.52-1.22a1.7 1.7 0 00-1.25-.52zM14.22 9H12.7l-3.01 7.1h1.5zm.2 4.84c.46 0 .69.22.69.67 0 .45-.23.67-.68.67-.46 0-.69-.22-.69-.67 0-.45.23-.67.69-.67zm-4.9-4.98c-.5 0-.91.17-1.26.5-.34.35-.52.76-.52 1.23 0 .48.18.89.52 1.22.35.34.77.51 1.26.51.48 0 .9-.17 1.25-.5.34-.34.52-.75.52-1.23s-.18-.89-.52-1.23c-.34-.33-.76-.5-1.25-.5zm0 1.06c.45 0 .67.22.67.66 0 .45-.22.68-.67.68-.46 0-.69-.23-.69-.67 0-.45.23-.67.69-.67z" fill="#b81a0a" /></symbol><symbol viewBox="0 0 79 24" id="venture-deals"><g fill="none" fill-rule="evenodd"><path d="M0 0h79v24H0z" /><path fill="#2B88DE" d="M16.24 16.79l.83.55a.45.45 0 0 1-.24.81h-.08a1.12 1.12 0 0 1-.4-.11l-.68-.44.28-.35.3-.46zm-5.87-1.25l-.02.16a.28.28 0 0 1-.37-.13c-.37-.76.64-2.42 1.52-2.3a.26.26 0 0 1 .22.24l-.46.7-.64 1-.13.17-.12.16zm1.66 1a.88.88 0 0 0-.14.27.76.76 0 0 1-.87 0 .76.76 0 0 1-.23-1.01l.21-.34c.4-.66.86-1.33 1.28-2 .06-.08.13-.16.22-.22a.68.68 0 0 1 .8 0l.12.09a.72.72 0 0 1 .29.73.88.88 0 0 0-.23.23l-1.46 2.25zm2.52-2.13c.28.15.38.5.24.78a29.7 29.7 0 0 1-1.51 2.41.65.65 0 0 1-.55.12.58.58 0 0 1-.35-.87l1.48-2.22a.55.55 0 0 1 .7-.22zm1.15 1.14c.21.17.32.44.27.7-.25.5-.54.97-.87 1.42a.94.94 0 0 1-1.3.34.23.23 0 0 1-.1-.11c.43-.51 1.51-2.4 1.51-2.4a.47.47 0 0 1 .42 0l.07.05zm5.47-1.12a.5.5 0 0 1-.1.38.34.34 0 0 1-.12.15.39.39 0 0 1-.14.08h-.32a.4.4 0 0 1-.14-.06l-.83-.62-2.21-1.64a.22.22 0 0 0-.1 0h-.08a.27.27 0 0 0-.13.16v.06a.25.25 0 0 0 .1.15l1.78 1.44.98.7a.67.67 0 0 1 .19.87l-.1.13a.34.34 0 0 1-.09.07h-.04l-.1.05h-.4l-.17-.08-1.99-1.44-1-.71a.24.24 0 0 0-.11 0 .14.14 0 0 0-.08 0 .2.2 0 0 0-.08.06.24.24 0 0 0 0 .2.24.24 0 0 0 .09.12l2.57 1.84c.15.1.25.26.26.44a.64.64 0 0 1-.14.48.79.79 0 0 1-.16.13.75.75 0 0 1-.19.06h-.25a.79.79 0 0 1-.2-.09l-1.29-.87-.15-.11a1.2 1.2 0 0 0-.59-1.23l-.07-.04a.93.93 0 0 0-.5-.15.93.93 0 0 0 0-.27.06.06 0 0 0 0-.05.47.47 0 0 0 0-.1 1.02 1.02 0 0 0-.95-.63h-.12a1.18 1.18 0 0 0-.5-.95l-.13-.08a1.2 1.2 0 0 0-.68-.23 1.1 1.1 0 0 0-.68.23 2.7 2.7 0 0 0-.26.18.7.7 0 0 0-.45-.27h-.14a1.94 1.94 0 0 0-1.49.96 3.2 3.2 0 0 1-1-1.45c-.07-.1-.07-.2-.07-.3a2.27 2.27 0 0 1-.05-.34 2.75 2.75 0 0 1 .59-1.82l.5-.61a2.63 2.63 0 0 1 2.02-.94h.29l-.3.21a3.13 3.13 0 0 0-.3.32c-.06.07-.12.14-.16.21a1.47 1.47 0 0 0-.14.3 1.16 1.16 0 0 0 0 .62c.03.1.06.2.11.3.08.15.19.3.31.41.15.15.33.25.53.3h.17l.2-.06c.2 0 .4-.04.6-.1l.39-.16h.17l.28-.12a3.64 3.64 0 0 1 1.09-.2c.5.02 1 .2 1.39.53l.32.23c.2.15.4.33.65.55l1.18.88L21 14.2l.1.07a.78.78 0 0 1 .07.15zm.6-2.1c.22.01.45 0 .67-.02-.02.19-.06.38-.12.57a4.9 4.9 0 0 1-.4.87.26.26 0 0 1-.13.13.39.39 0 0 1-.14.05h-.18a.35.35 0 0 1-.15-.07l-3.56-2.58-.35-.31-.34-.27a2.94 2.94 0 0 0-1.94-.83 4.2 4.2 0 0 0-1.22.21l-.4.17-.36.15a1.75 1.75 0 0 1-.57.13.88.88 0 0 1-.8-.52.7.7 0 0 1-.04-.55.88.88 0 0 1 .1-.22l.1-.16.11-.1a3 3 0 0 1 .65-.48l.31-.2.48-.2c.3-.11.58-.22.88-.3l.24-.07c.22-.06.44-.15.64-.15l.35-.05a1.61 1.61 0 0 1 .27 0h.37c.6.14 1.16.37 1.68.67l.24.12a2.98 2.98 0 0 0 0 .39 3.62 3.62 0 0 0 3.61 3.61z" /><path fill="#F90" fill-rule="nonzero" d="M24.63 8.71a2.86 2.86 0 1 0-2.87 2.86h.33a2.86 2.86 0 0 0 2.54-2.86zm-4.1.14l-.88-.87 1.48-.19.65-1.32.65 1.32 1.46.21-1.02 1.03.25 1.46-1.3-.69-1.3.69.24-1.46-.24-.18z" /><path fill="#2B88DE" fill-rule="nonzero" d="M26.25 16.1V8.07h5.66c.44 0 .89.04 1.32.15.33.07.63.23.87.47.23.25.38.55.45.88.1.42.14.84.13 1.27v2.5c0 .44-.06.87-.17 1.28-.06.33-.22.63-.44.88-.24.24-.55.4-.88.47a5.14 5.14 0 0 1-1.32.15l-5.62-.02zm6.8-5.19a2.52 2.52 0 0 0-.06-.62.88.88 0 0 0-.2-.4.88.88 0 0 0-.37-.2 2.19 2.19 0 0 0-.58-.07h-4v4.95h4c.18 0 .37-.01.56-.06a.79.79 0 0 0 .37-.2.94.94 0 0 0 .21-.4c.05-.2.08-.41.07-.62V10.9zm5.44 5.2a5 5 0 0 1-1.3-.16 1.8 1.8 0 0 1-.88-.47 1.83 1.83 0 0 1-.44-.87 5.39 5.39 0 0 1-.13-1.29v-2.5c-.01-.42.03-.85.13-1.27.06-.33.21-.63.44-.88.24-.23.54-.4.87-.47a5 5 0 0 1 1.3-.15h4.94V9.6h-4.93a2.02 2.02 0 0 0-.56.07.73.73 0 0 0-.35.2.8.8 0 0 0-.19.38 3.57 3.57 0 0 0-.04.59v.54h6.07v1.43h-6.07v.56c0 .2.01.4.04.6a.88.88 0 0 0 .18.38.66.66 0 0 0 .35.19c.18.04.37.06.57.05h4.97v1.52H38.5zm13.26-1.85H46.8l-1.02 1.84h-1.83l4.14-7.42c.12-.2.27-.4.46-.56a1.35 1.35 0 0 1 1.5 0c.18.16.33.35.44.56l4.12 7.42h-1.84l-1.02-1.84zm-4.2-1.39h3.44l-1.75-3.16-1.7 3.17zm10.04 3.23a5 5 0 0 1-1.3-.15 1.8 1.8 0 0 1-.88-.47 1.9 1.9 0 0 1-.44-.87 5.39 5.39 0 0 1-.13-1.29V8.07h1.57v5.25c0 .2.02.4.07.6a.92.92 0 0 0 .2.4c.1.1.24.19.39.23.2.05.41.07.62.07h4.24v1.53l-4.34-.05zm4.98 0v-1.48H68c.21.02.43-.02.62-.13a.66.66 0 0 0 .18-.55v-.43a.68.68 0 0 0-.18-.54.97.97 0 0 0-.61-.16h-3.4a3.5 3.5 0 0 1-.98-.12 1.29 1.29 0 0 1-.94-1.01 3.88 3.88 0 0 1-.09-.88v-.46c0-.36.03-.7.11-1.05.06-.26.18-.5.35-.7a1.4 1.4 0 0 1 .64-.39 2.87 2.87 0 0 1 .87-.13h5.64V9.6h-5.45a.79.79 0 0 0-.54.16.88.88 0 0 0-.17.64v.26a.73.73 0 0 0 .16.54.74.74 0 0 0 .54.15h3.34c.34 0 .67.04 1 .12a1.4 1.4 0 0 1 1.05 1c.09.3.13.6.12.92v.64c0 .32-.04.64-.12.95a1.44 1.44 0 0 1-.38.65c-.2.17-.43.3-.67.36a3.67 3.67 0 0 1-1.01.12h-5.5z" /></g></symbol><symbol viewBox="0 0 66 24" id="venture-food"><path fill="#F90" d="M12.46 12.84c.29.21.35.62.15.92l-3.42 4.96a.64.64 0 01-.9.16.68.68 0 01-.16-.93L11.56 13c.2-.3.6-.37.9-.15zm2.35.93c.3.2.36.62.15.92l-1.73 2.5a.64.64 0 01-.9.16.68.68 0 01-.15-.92l1.73-2.5c.21-.3.61-.38.9-.16zm13.63-5.74v1.33h-5.15c-.44-.05-.89.1-1.22.42-.27.4-.4.9-.35 1.39v.98h5.08v1.33h-5.08v3.6h-1.3v-5.95c-.01-.48.03-.97.13-1.44.07-.36.23-.7.47-.97.24-.25.55-.44.88-.53.46-.12.92-.18 1.4-.16h5.14zm6.63 0a5 5 0 011.4.16c.33.1.64.28.88.54.23.27.4.6.47.96.1.47.14.96.13 1.44v2.84c0 .49-.04.98-.13 1.45-.07.36-.23.69-.47.96a1.9 1.9 0 01-.89.53c-.45.12-.92.18-1.4.17h-2.84c-.47 0-.94-.05-1.39-.17a1.88 1.88 0 01-.88-.53c-.24-.27-.4-.6-.47-.96-.1-.47-.14-.96-.13-1.45v-2.84c-.01-.48.03-.97.13-1.44.07-.36.23-.7.47-.96.24-.26.55-.45.88-.54a4.9 4.9 0 011.39-.16h2.85zm9.87 0a5 5 0 011.4.16c.33.1.64.28.88.54.24.27.4.6.47.96.1.47.14.96.13 1.44v2.84c.01.49-.03.98-.13 1.45-.07.36-.23.69-.47.96a1.9 1.9 0 01-.88.53c-.46.12-.93.18-1.4.17h-2.85a5 5 0 01-1.38-.17 1.9 1.9 0 01-.89-.53c-.23-.27-.4-.6-.47-.96-.1-.47-.14-.96-.13-1.45v-2.84c0-.48.04-.97.13-1.44.07-.36.24-.7.47-.96.24-.26.55-.44.89-.54.45-.12.92-.17 1.38-.16h2.85zm10.18 0c.47-.01.94.05 1.4.17.33.09.64.27.88.53.24.27.4.6.47.96.1.47.14.96.13 1.44v2.84c0 .49-.04.98-.14 1.45-.07.36-.23.69-.46.96a1.9 1.9 0 01-.89.53c-.46.12-.93.18-1.4.17h-5.96V8.03h5.97zM35.08 9.36h-2.86c-.27 0-.55.02-.81.08a.9.9 0 00-.48.28c-.12.16-.2.34-.23.54a5.8 5.8 0 00-.05.87v2.84c0 .3.01.6.05.9.03.2.1.39.23.54.13.14.3.23.47.27.27.05.55.07.82.07h2.85c.26 0 .52-.02.77-.07a.95.95 0 00.48-.27c.13-.15.22-.34.25-.54.06-.3.08-.6.08-.9v-2.84c0-.3-.02-.58-.08-.87-.03-.2-.12-.39-.25-.54a.96.96 0 00-.48-.28c-.25-.06-.51-.09-.77-.08zm9.87 0H42.1c-.28 0-.55.02-.82.08a.9.9 0 00-.48.28c-.12.16-.2.35-.22.54-.04.3-.06.58-.06.87v2.84c0 .3.02.6.06.9.02.2.1.39.22.54.13.14.3.23.48.27.27.05.54.07.82.07h2.85c.26 0 .51-.02.76-.07a.95.95 0 00.49-.27c.13-.15.21-.34.25-.54.05-.3.08-.6.07-.9v-2.84c0-.3-.02-.58-.07-.87-.04-.2-.12-.39-.25-.54a.96.96 0 00-.49-.28c-.25-.06-.5-.08-.76-.08zm10.17 0h-4.67v6.39h4.67a3 3 0 00.7-.08.96.96 0 00.5-.27c.14-.15.23-.33.28-.54.07-.29.1-.58.1-.88v-2.85c0-.3-.02-.58-.07-.86-.04-.2-.13-.39-.26-.54a1 1 0 00-.49-.28 3.01 3.01 0 00-.77-.09zm-44.36 1.46c.29.21.35.63.15.93l-1.74 2.5a.64.64 0 01-.53.28.62.62 0 01-.37-.12.68.68 0 01-.15-.93l1.74-2.5c.2-.3.6-.37.9-.16zM14.89 5c.64 0 1.27.16 1.82.48l.16.1.3.2.28.24.13.13c.13.13.25.27.36.43.07.1.15.2.21.31a4.1 4.1 0 010 4.08l-.1.17-.22.3-.25.27c-.07.1-.18.17-.27.26-.15.12-.3.22-.45.32l-.17.11a3.76 3.76 0 01-3.94-.2l-.29-.23a3.6 3.6 0 01-.74-.85l-.1-.15-.19-.33a4.68 4.68 0 01-.37-1.7c0-.28.03-.54.09-.8a3.77 3.77 0 011.04-1.99l.13-.13.29-.24.3-.2.16-.1A3.56 3.56 0 0114.9 5zm0 .85l-.88 1.82-1.95.3 1.4 1.4-.32 2.01 1.73-.95 1.75.95-.32-2 1.4-1.41-1.94-.3-.87-1.82z" /></symbol><symbol viewBox="0 0 71 24" id="venture-jumia"><g fill="none" fill-rule="evenodd"><path fill="#434343" fill-rule="nonzero" d="M59.41 12.58a.43.43 0 0 0 .02-.15c.37-.02.73-.1 1.07-.25l-.6 2.2a.72.72 0 0 1-.7.54h-6.61a.7.7 0 0 1-.7-.55l-1.6-6.51a.52.52 0 0 0-.5-.4h-.66a.42.42 0 0 1-.42-.42.43.43 0 0 1 .42-.42h1.26a.7.7 0 0 1 .7.54l.21.88c.07.23.27.39.51.4h4.13a3.33 3.33 0 0 0 2.44 3.94.47.47 0 0 0-.08.2l-.16.98a.38.38 0 0 0 .09.32c.08.08.2.11.31.1h.16a.52.52 0 0 0 .49-.41v-.11l.23-.88zm-7.4-1.81c.07.23.3.38.54.36h.33a.38.38 0 0 0 .37-.44l-.14-.88a.5.5 0 0 0-.49-.4h-.51a.37.37 0 0 0-.36.45l.07.22.18.69zm1.58 3.05a.36.36 0 0 0 .08-.3l-.16-.98a.5.5 0 0 0-.5-.41h-.22a.37.37 0 0 0-.29.15.36.36 0 0 0-.06.3l.23.88.04.13a.5.5 0 0 0 .5.38h.06a.4.4 0 0 0 .32-.15zm1.83-.22v-1.05a.43.43 0 0 0-.42-.43h-.15a.36.36 0 0 0-.3.15.38.38 0 0 0-.08.31l.18 1.03c.02.2.2.36.4.36a.38.38 0 0 0 .38-.38zm0-2.87v-.87a.42.42 0 0 0-.41-.43h-.6a.39.39 0 0 0-.29.14.36.36 0 0 0-.09.3l.15.88a.49.49 0 0 0 .48.4H55a.43.43 0 0 0 .43-.42zm1.91 1.85a.38.38 0 0 0-.04-.32.36.36 0 0 0-.29-.13h-.2a.43.43 0 0 0-.42.43v1.04c0 .2.17.37.38.37a.42.42 0 0 0 .4-.36l.17-1.03zm-4.3 3.05a1.23 1.23 0 0 1 1.2 1.24 1.24 1.24 0 1 1-1.2-1.25zm5.8 0a1.23 1.23 0 0 1 1.2 1.24 1.24 1.24 0 1 1-1.2-1.25zm-50.64.4v-1.5H10c.22 0 .43-.02.64-.07a.88.88 0 0 0 .4-.23.88.88 0 0 0 .24-.36c.05-.19.07-.39.06-.58V8.17h1.68v5.16c0 .43-.05.85-.14 1.26a1.75 1.75 0 0 1-.47.83 1.98 1.98 0 0 1-.87.47c-.46.1-.92.15-1.39.14H8.2zm8.9 0a5.53 5.53 0 0 1-1.38-.14 1.94 1.94 0 0 1-.88-.47 1.75 1.75 0 0 1-.46-.83 4.72 4.72 0 0 1-.14-1.26V8.17h1.65v5.1c-.01.2.01.4.06.6.05.15.12.29.22.4a.88.88 0 0 0 .42.2c.2.05.41.07.63.06h2.5c.22 0 .43-.01.64-.06a.8.8 0 0 0 .4-.2.97.97 0 0 0 .24-.4c.07-.2.12-.4.14-.6v-5.1h1.65v5.16c0 .43-.04.85-.13 1.26-.08.32-.25.6-.47.83a1.94 1.94 0 0 1-.88.47 5.56 5.56 0 0 1-1.38.14h-2.84zm17.16 0v-5.17l-3.65 5.01a.88.88 0 0 1-.73.33.88.88 0 0 1-.74-.33l-3.63-5.01v5.17h-1.51V8.7a.6.6 0 0 1 .25-.54c.34-.2.75-.23 1.11-.09a.97.97 0 0 1 .33.28l4.2 5.9 4.27-5.9c.08-.1.18-.2.3-.28.13-.06.28-.09.44-.09a1.12 1.12 0 0 1 .64.18.6.6 0 0 1 .26.54v7.32h-1.54zm2.82 0V8.15h1.67v7.88h-1.67zm10.58-1.81h-5.17l-1.07 1.8H39.5l4.38-7.25c.12-.21.28-.4.47-.56a1.51 1.51 0 0 1 1.56 0c.2.16.35.34.48.56l4.31 7.26h-1.93l-1.12-1.81zm-4.38-1.35h3.61l-1.82-3.1-1.79 3.1z" /><path fill="#F90" d="M59.26 6.15a2.8 2.8 0 1 1 0 5.6 2.8 2.8 0 0 1 0-5.6zm0 .42L58.55 8l-1.58.23 1.14 1.11-.26 1.58 1.4-.75 1.43.75-.28-1.58 1.14-1.11L59.97 8l-.71-1.43z" /><path d="M0 0h71v24H0z" /></g></symbol><symbol viewBox="0 0 66 24" id="venture-jumia-now"><g fill="none" fill-rule="evenodd"><path d="M0 0h65v24H0z" /><path fill="#E85B31" d="M31.09 15.77c-.18 0-.35-.02-.5-.08a1.24 1.24 0 0 1-.42-.27l-5.5-5.13v5.32H23.1V8.65c0-.23.08-.4.25-.52.16-.1.38-.17.64-.17.2 0 .35.03.48.08a.94.94 0 0 1 .31.2l5.54 5.3V8.13h1.6v6.95c0 .25-.08.43-.24.53-.15.11-.35.16-.6.16zm9.01-5c0-.23-.02-.43-.06-.58a.8.8 0 0 0-.2-.37.79.79 0 0 0-.4-.2 2.93 2.93 0 0 0-.61-.05h-2.72a3.13 3.13 0 0 0-.65.05.79.79 0 0 0-.4.2.73.73 0 0 0-.18.37c-.04.15-.05.35-.05.58v2.2c0 .25.01.45.05.6a.7.7 0 0 0 .19.38.78.78 0 0 0 .4.18c.16.04.37.05.64.05h2.72c.25 0 .45-.01.62-.05a.78.78 0 0 0 .39-.18.77.77 0 0 0 .2-.38c.04-.15.06-.35.06-.6v-2.2zm-4.07 4.84a5.9 5.9 0 0 1-1.38-.14 2 2 0 0 1-.89-.44 1.64 1.64 0 0 1-.47-.79c-.09-.32-.14-.72-.14-1.2V10.7c0-.47.05-.87.14-1.2.1-.33.25-.6.47-.8a2 2 0 0 1 .89-.43c.37-.1.83-.14 1.38-.14h2.87c.56 0 1.02.04 1.4.14a2 2 0 0 1 .88.44c.22.2.37.46.47.79.09.33.13.73.13 1.2v2.34c0 .48-.04.88-.13 1.2a1.64 1.64 0 0 1-.47.8c-.23.2-.52.34-.89.43-.37.1-.83.14-1.4.14h-2.86zm13.44-5.38l-2.3 4.83a1.41 1.41 0 0 1-.42.52c-.18.13-.4.2-.66.2a.96.96 0 0 1-.64-.2 1.34 1.34 0 0 1-.37-.52l-2.93-6.93h1.87l2.21 5.4 2.25-4.9c.1-.24.24-.42.39-.52.14-.1.35-.14.63-.14s.48.05.64.14c.15.1.28.28.38.52l2.16 4.9 2.3-5.4h1.83l-.38.83-.54 1.23c-.2.45-.4.92-.63 1.41l-.63 1.42a121.32 121.32 0 0 0-.9 2.04 1.38 1.38 0 0 1-.4.52.93.93 0 0 1-.6.2c-.27 0-.49-.07-.66-.2a1.36 1.36 0 0 1-.4-.52l-2.2-4.82zM17.53 8.51l.28-.42c.29.4.73.69 1.23.79l-.3.44a5.36 5.36 0 0 1 1.82 4.03 5.42 5.42 0 0 1-5.44 5.39 5.45 5.45 0 0 1-4.57-2.48h1.4a4.33 4.33 0 0 0 3.17 1.38c2.39 0 4.33-1.93 4.33-4.3s-1.94-4.29-4.33-4.29a4.33 4.33 0 0 0-2.99 1.2h-1.45a5.45 5.45 0 0 1 3.88-2.27v-.57a4.45 4.45 0 0 1-.94-.16V6.18c.8-.25 2.1-.25 2.91 0v1.07a4.29 4.29 0 0 1-.83.15V8c.65.07 1.26.25 1.83.52zm-2.13 4.04l2.2-1.51.22.24-1.88 1.9a.85.85 0 0 1-.29.83.87.87 0 0 1-1.22-.1.85.85 0 0 1 .1-1.2.87.87 0 0 1 .87-.16z" /><path fill="#F90" d="M9.83 11.81v-.68h3.64v.68H9.83zM8.66 13.6v-.69h3.65v.69H8.66zM8 15.38v-.69h3.65v.69H8zm12.66-8.85l-.74-.1-.34-.67-.33.66-.74.11.54.52-.13.73.66-.34.67.34-.13-.73.54-.52zM19.58 5a1.78 1.78 0 0 1 1.79 1.77c0 .98-.8 1.77-1.79 1.77a1.78 1.78 0 0 1-1.78-1.77c0-.98.8-1.77 1.78-1.77z" /></g></symbol><symbol viewBox="0 0 80 24" id="venture-jumia-party"><g fill="none" fill-rule="evenodd"><path d="M0 0h80v24H0z" /><path fill="#C48E2C" d="M29.42 10.77c0-.42-.09-.71-.27-.86-.18-.16-.5-.23-.96-.23h-4.45v2.67h4.47c.46 0 .77-.07.95-.21.17-.14.26-.42.26-.83v-.54zm-5.68 3V16H22V8.17h6.23c.56 0 1.02.05 1.4.14.37.08.67.23.9.43.23.2.39.46.48.79.1.32.15.7.15 1.17v.67c0 .47-.05.86-.14 1.16a1.45 1.45 0 0 1-.48.74 2 2 0 0 1-.9.38c-.36.08-.84.11-1.4.11h-4.5zm10.61-.91h3.77l-1.88-3.1-1.89 3.1zm4.58 1.34h-5.39l-1.1 1.8h-2l4.52-7.23c.13-.22.3-.4.49-.55.19-.15.46-.22.82-.22.35 0 .62.07.81.22.19.14.35.33.5.55L42.06 16h-2.01l-1.13-1.8zm11.32-3.58c0-.21-.02-.38-.06-.5a.56.56 0 0 0-.23-.3 1.06 1.06 0 0 0-.45-.14 6.03 6.03 0 0 0-.7-.04h-4.26v2.39h4.25c.29 0 .52-.01.7-.04.2-.02.34-.07.45-.13a.56.56 0 0 0 .24-.3 1.59 1.59 0 0 0 .06-.52v-.42zM49.1 16l-4.55-2.85V16h-1.73V8.17h6.1a8.12 8.12 0 0 1 1.4.1c.39.08.7.2.96.37.24.18.42.42.54.73.11.3.17.69.17 1.16v.53c0 .46-.06.83-.18 1.12-.13.3-.31.53-.57.7-.25.18-.58.3-.96.36-.4.07-.85.1-1.38.1h-1.37L52.09 16H49.1zm6.72 0V9.68h-3.26v-1.5h8.28v1.5h-3.27V16h-1.75zm9.86 0v-3.7L61.1 8.17h2.34l3.14 2.8 3.2-2.8H72l-4.59 4.16V16h-1.73z" /><path fill="#F90" d="M17.44 8.22c1.08 0 1.96.85 1.96 1.9 0 1.06-.88 1.92-1.96 1.92s-1.95-.86-1.95-1.91c0-1.06.88-1.91 1.95-1.91zm0 .5L17 9.6l-.99.14.71.68-.16.96.88-.45.89.45-.17-.96.72-.68-1-.14-.44-.88z" /><path fill="#224296" d="M13.75 11.48h-2.33l.67.75 1.66.07v6.35c0 .35-.29.63-.64.63H8.64a.64.64 0 0 1-.64-.63V9.03c0-.16.07-.3.17-.41l.16-.21H8.3l.17-.15c.2-.2.48-.45.87-.68.8-.5.5-2.7.5-2.7h-.01a.23.23 0 0 1-.23-.23v-.42c0-.13.1-.23.23-.23h2.1c.12 0 .23.1.23.23v.42a.23.23 0 0 1-.23.22h-.02s-.3 2.21.5 2.7a4.45 4.45 0 0 1 1.04.84h-.03c.12.12.17.2.17.2.1.12.16.26.16.42v2.45z" /><path fill="#C48E2C" d="M17.09 19.28h-4.77l2.17-.6v-3.23l-3.96-4.28h4.79l.11.31h-3.98l.63.7h4.38s.32.2.63.24c.3.03.35-.02.35-.02l-2.54 3.05v3.25l2.19.58z" /></g></symbol><symbol viewBox="0 0 105 24" id="venture-jumia-rewards"><g fill="none" fill-rule="evenodd"><path d="M0 0h105v24H0z" /><path fill="#F90" d="M12.94 16.89a4.78 4.78 0 1 1 0-9.57 4.78 4.78 0 0 1 0 9.57zm0-8.32l-1.07 2.2-2.44.35 1.75 1.71-.42 2.41 2.18-1.13 2.16 1.13-.41-2.4 1.76-1.72-2.42-.35-1.1-2.2z" /><path fill="#AF8800" fill-rule="nonzero" d="M27.23 16.24l-4.73-2.86v2.86h-1.75V8.36H27c.49 0 .97.03 1.45.1.36.06.7.18 1 .37.25.18.45.44.56.73.13.38.19.77.17 1.16v.53c.02.38-.05.76-.19 1.12-.11.3-.32.54-.58.7a2.73 2.73 0 0 1-1 .37 8.52 8.52 0 0 1-1.41.14h-1.4l4.72 2.62-3.1.04zm1.19-5.41a1.34 1.34 0 0 0-.07-.46.55.55 0 0 0-.24-.3c-.14-.08-.3-.13-.46-.13a5.72 5.72 0 0 0-.74 0h-4.37v2.3h4.37c.25.02.5.02.74 0 .16 0 .31-.04.45-.12a.57.57 0 0 0 .25-.3c.06-.18.08-.38.07-.57v-.42z" /><path fill="#AF8800" d="M34.35 16.24a6.37 6.37 0 0 1-1.48-.14 2.18 2.18 0 0 1-.94-.48 1.75 1.75 0 0 1-.51-.83 4.69 4.69 0 0 1-.15-1.26v-2.46a4.67 4.67 0 0 1 .15-1.25c.08-.33.25-.64.5-.87.28-.23.6-.39.95-.46.49-.1.98-.15 1.48-.15h5.6v1.5h-5.6a2.63 2.63 0 0 0-.64.05.93.93 0 0 0-.4.2.7.7 0 0 0-.2.37c-.03.2-.05.39-.05.58v.53h6.88V13h-6.88v.55c0 .2.02.4.06.59a.73.73 0 0 0 .19.37.82.82 0 0 0 .4.19c.2.04.42.05.64.05h5.63v1.49h-5.63zm14.08-5.65l-2.48 5.03a1.52 1.52 0 0 1-.44.55c-.2.14-.45.22-.7.2a1.03 1.03 0 0 1-.7-.2 1.3 1.3 0 0 1-.38-.55l-3.14-7.24h2l2.36 5.68 2.41-5.15c.08-.22.23-.4.41-.55.2-.11.44-.17.68-.15.24-.02.48.04.69.15.19.14.33.33.4.55l2.32 5.15 2.45-5.68h1.97c-.1.2-.24.49-.4.88l-.6 1.28-.66 1.49-.69 1.49-.57 1.27-.39.88a1.44 1.44 0 0 1-.41.54c-.19.15-.42.22-.66.21a1.14 1.14 0 0 1-.69-.2 1.48 1.48 0 0 1-.44-.55l-2.34-5.08z" /><path fill="#AF8800" fill-rule="nonzero" d="M62.73 14.43h-5.58L56 16.23h-2.07l4.68-7.26c.14-.2.32-.4.52-.55.26-.16.57-.24.87-.22.31-.02.62.06.88.22.2.15.37.34.5.55l4.67 7.27h-2.14l-1.17-1.81zM58 13.08h3.9l-1.95-3.1-1.95 3.1zm15.3 3.16l-4.73-2.86v2.86h-1.75V8.36h6.32c.49 0 .97.03 1.45.1.36.06.7.18 1 .38.25.17.45.43.56.72.13.38.19.77.18 1.17v.52c0 .38-.06.77-.2 1.12-.11.3-.32.54-.58.71a2.73 2.73 0 0 1-1 .36c-.48.07-.96.1-1.44.1h-1.47l4.73 2.63-3.07.07zm1.19-5.41a1.34 1.34 0 0 0-.07-.45.55.55 0 0 0-.24-.31c-.14-.08-.3-.13-.46-.13a5.72 5.72 0 0 0-.74 0H68.6v2.3h4.37c.25.02.5.02.74 0 .16 0 .31-.04.45-.11a.53.53 0 0 0 .25-.31c.06-.18.08-.38.07-.57v-.42zm3.05 5.4V8.37h6.4a7.12 7.12 0 0 1 1.5.14c.34.08.67.24.95.47.25.23.42.54.5.87.1.4.15.82.15 1.23v2.47c0 .43-.04.85-.15 1.26a1.75 1.75 0 0 1-.5.83c-.28.23-.6.4-.96.47a6.58 6.58 0 0 1-1.5.14h-6.39zm7.7-5.08a2.39 2.39 0 0 0-.07-.6.79.79 0 0 0-.22-.4 1.04 1.04 0 0 0-.42-.2 2.87 2.87 0 0 0-.64-.06h-4.55v4.86h4.55a2.52 2.52 0 0 0 .62-.06.93.93 0 0 0 .43-.2.8.8 0 0 0 .24-.39 2 2 0 0 0 .08-.61l-.02-2.34z" /><path fill="#AF8800" d="M88.13 16.24v-1.49h6.12c.24.02.49-.03.7-.13a.58.58 0 0 0 .21-.53v-.43a.61.61 0 0 0-.2-.53 1.18 1.18 0 0 0-.7-.16h-3.83a4.45 4.45 0 0 1-1.12-.11 1.75 1.75 0 0 1-.7-.38 1.26 1.26 0 0 1-.36-.62 3.24 3.24 0 0 1-.1-.87v-.4a3.5 3.5 0 0 1 .1-1.02c.08-.26.21-.5.4-.7.2-.17.46-.3.72-.37.34-.08.7-.13 1.04-.12h6.39v1.49h-6.2a.97.97 0 0 0-.62.15c-.13.1-.19.31-.19.63v.25a.65.65 0 0 0 .18.52c.18.13.4.18.6.16h3.8c.39 0 .77.03 1.14.12.28.05.55.17.77.35.2.16.34.38.42.62.1.28.14.58.13.87v.62c.01.32-.03.64-.13.94a1.34 1.34 0 0 1-.42.63 2.03 2.03 0 0 1-.77.36 4.7 4.7 0 0 1-1.13.11l-6.25.04z" /></g></symbol><symbol viewBox="0 0 108 24" fill="#ff9200" id="venture-logistics"><path d="M25.77 16.38a6.58 6.58 0 0 1-1.6-.16 2.22 2.22 0 0 1-1-.51 2 2 0 0 1-.55-.92 5.65 5.65 0 0 1-.16-1.41V7.63h1.94v5.67a2.87 2.87 0 0 0 .07.65 1 1 0 0 0 .25.44 1.08 1.08 0 0 0 .49.25 3.22 3.22 0 0 0 .76.07h5.2v1.67Z" /><path d="M35.3 16.38a6.67 6.67 0 0 1-1.61-.16 2.18 2.18 0 0 1-1-.51 2 2 0 0 1-.55-.92 5.21 5.21 0 0 1-.14-1.41v-2.75a5.19 5.19 0 0 1 .16-1.4 2 2 0 0 1 .55-.93 2.28 2.28 0 0 1 1-.51 6.67 6.67 0 0 1 1.61-.16h3.33a6.61 6.61 0 0 1 1.61.16 2.32 2.32 0 0 1 1 .51 2 2 0 0 1 .55.93 5.62 5.62 0 0 1 .16 1.4v2.75a5.65 5.65 0 0 1-.16 1.41 2 2 0 0 1-.55.92 2.22 2.22 0 0 1-1 .51 6.61 6.61 0 0 1-1.61.16Zm4.7-5.66a2.63 2.63 0 0 0 0-.72.93.93 0 0 0-.23-.44 1 1 0 0 0-.46-.23 3.55 3.55 0 0 0-.71-.06h-3.21a3.77 3.77 0 0 0-.75.06 1 1 0 0 0-.46.23.92.92 0 0 0-.18.44 3.23 3.23 0 0 0-.06.68v2.62a3.37 3.37 0 0 0 .06.7.84.84 0 0 0 .22.44.9.9 0 0 0 .46.22 3.89 3.89 0 0 0 .75.05h3.16a3.63 3.63 0 0 0 .71-.05.9.9 0 0 0 .46-.22A.85.85 0 0 0 40 14a2.75 2.75 0 0 0 .07-.7Z" /><path d="M46.7 16.38a6.53 6.53 0 0 1-1.6-.16 2.22 2.22 0 0 1-1-.51 2 2 0 0 1-.55-.92 5.65 5.65 0 0 1-.16-1.41v-2.75a5.62 5.62 0 0 1 .16-1.4 2 2 0 0 1 .55-.93 2.32 2.32 0 0 1 1-.51 6.53 6.53 0 0 1 1.6-.16h6.82v1.68h-6.73a2.92 2.92 0 0 0-.72.07 1 1 0 0 0-.46.24 1 1 0 0 0-.24.43 3.13 3.13 0 0 0-.07.67v2.58a3.5 3.5 0 0 0 .07.72.88.88 0 0 0 .25.43 1 1 0 0 0 .46.21 3.63 3.63 0 0 0 .71.05h3.3a3.52 3.52 0 0 0 .7-.05.91.91 0 0 0 .45-.22.89.89 0 0 0 .25-.46 3.07 3.07 0 0 0 .08-.75v-2h2v2.18a5.21 5.21 0 0 1-.16 1.41 2 2 0 0 1-.55.92 2.17 2.17 0 0 1-1 .51 6.7 6.7 0 0 1-1.62.16Z" /><path d="M54.89 16.38V7.63h2v8.75Z" /><path d="M58.13 16.38v-1.65h6.65a1.47 1.47 0 0 0 .76-.15.68.68 0 0 0 .23-.6v-.47a.71.71 0 0 0-.23-.59 1.32 1.32 0 0 0-.75-.17h-4.17a4.56 4.56 0 0 1-1.21-.13 1.73 1.73 0 0 1-.77-.42 1.39 1.39 0 0 1-.39-.69 4 4 0 0 1-.11-1v-.44A4.23 4.23 0 0 1 58.28 9a1.66 1.66 0 0 1 1.21-1.19 4.18 4.18 0 0 1 1.13-.13h6.93v1.6H60.8a1 1 0 0 0-.66.18.88.88 0 0 0-.21.7v.28a.74.74 0 0 0 .19.58 1 1 0 0 0 .67.18h4.09a5.48 5.48 0 0 1 1.24.12 1.94 1.94 0 0 1 .83.39 1.5 1.5 0 0 1 .46.69 3.11 3.11 0 0 1 .14 1v.69a3.26 3.26 0 0 1-.14 1.05 1.54 1.54 0 0 1-.46.7 2.08 2.08 0 0 1-.83.4 5.48 5.48 0 0 1-1.24.12Z" /><path d="M70.8 16.38V9.31h-2.72V7.63h8.36v1.68h-3.67v7.07Z" /><path d="M77.47 16.38V7.63h2v8.75Z" /><path d="M84.23 16.38a6.58 6.58 0 0 1-1.6-.16 2.22 2.22 0 0 1-1-.51 1.85 1.85 0 0 1-.54-.92 5.21 5.21 0 0 1-.16-1.41v-2.75a5.19 5.19 0 0 1 .16-1.4 1.89 1.89 0 0 1 .54-.93 2.32 2.32 0 0 1 1-.51 6.58 6.58 0 0 1 1.6-.16h6.08v1.68h-6a3 3 0 0 0-.73.07 1 1 0 0 0-.46.24.89.89 0 0 0-.23.44 3.13 3.13 0 0 0-.07.67v2.57a3.09 3.09 0 0 0 .07.68.89.89 0 0 0 .23.44.87.87 0 0 0 .46.23 3.92 3.92 0 0 0 .75.06h6v1.67Z" /><path d="M91.31 16.38v-1.65H98a1.47 1.47 0 0 0 .76-.15A.68.68 0 0 0 99 14v-.47a.71.71 0 0 0-.23-.59 1.32 1.32 0 0 0-.75-.17H93.8a4.56 4.56 0 0 1-1.21-.13 1.73 1.73 0 0 1-.77-.42 1.39 1.39 0 0 1-.39-.69 4 4 0 0 1-.11-1v-.44A4.23 4.23 0 0 1 91.46 9a1.66 1.66 0 0 1 1.21-1.19 4.18 4.18 0 0 1 1.13-.13h6.93v1.6H94a1 1 0 0 0-.66.18.88.88 0 0 0-.21.7v.28a.74.74 0 0 0 .19.58 1 1 0 0 0 .67.18h4.09a5.48 5.48 0 0 1 1.24.12 1.94 1.94 0 0 1 .83.39 1.5 1.5 0 0 1 .46.69 3.11 3.11 0 0 1 .14 1v.69a3.26 3.26 0 0 1-.14 1.05 1.54 1.54 0 0 1-.46.7 2.08 2.08 0 0 1-.83.4 5.48 5.48 0 0 1-1.24.12Z" /><path d="M13.77 6.59A5.42 5.42 0 1 0 19.18 12a5.41 5.41 0 0 0-5.41-5.41Zm0 10.26A4.85 4.85 0 1 1 18.62 12a4.85 4.85 0 0 1-4.85 4.85Z" /><path d="M11.49 15.68a.94.94 0 1 1 .94-.94.94.94 0 0 1-.94.94Zm0-1.62a.68.68 0 1 0 .68.68.67.67 0 0 0-.68-.68Z" /><path d="M11.49 15.17a.43.43 0 1 1 .43-.43.43.43 0 0 1-.43.43Zm0-.6a.18.18 0 0 0-.17.17.18.18 0 0 0 .17.18.17.17 0 0 0 .17-.18.17.17 0 0 0-.17-.17Z" /><path d="M11.24 13.97h-.26v-4.9H9.66v-.26h1.58v5.16z" /><path d="M11.92 14.07h-.26V8.51a.13.13 0 0 0-.13-.14H10v-.25h1.51a.38.38 0 0 1 .39.39Z" /><path d="M16.9 15.17h-4.73v-.86h4.73a.42.42 0 0 1 .42.43.42.42 0 0 1-.42.43Zm-4.47-.25h4.47a.18.18 0 0 0 .17-.17.17.17 0 0 0-.17-.17h-4.47Z" /><path d="M15.89 11h-3.41V8.63h3.41Zm-3.16-.26h2.9V8.88h-2.9Z" /><path d="M16.73 14.57h-4.25v-3.85h4.25Zm-4-.26h3.74V11h-3.74Z" /><path d="M13.65 10.35h-.07a.15.15 0 0 1-.08-.14V8.75h.25V10l.43-.34.38.31V8.75h.26v1.42a.17.17 0 0 1-.09.14.17.17 0 0 1-.17 0l-.38-.31-.43.34a.13.13 0 0 1-.1.01Z" /><path d="M14 12.88h-.07a.14.14 0 0 1-.09-.14V11h.26v1.57l.56-.45.49.41V11h.26v1.74a.15.15 0 0 1-.1.14.15.15 0 0 1-.17 0l-.49-.41-.55.44a.13.13 0 0 1-.1-.03Zm-.06-.24Z" /></symbol><symbol viewBox="0 0 60 24" id="venture-pay"><path d="M18.388 7.679a3.185 3.185 0 0 1 3.742.54 3.288 3.288 0 0 1 .467.592c.609 1 .608 2.252-.003 3.251-.024.044-.053.086-.08.127a2.482 2.482 0 0 1-.185.243 3.64 3.64 0 0 1-.426.426 3.66 3.66 0 0 1-.372.262l-.134.074a3.176 3.176 0 0 1-4.126-1.008c-.027-.041-.056-.083-.08-.127a2.875 2.875 0 0 1-.146-.266 3.124 3.124 0 0 1-.247-1.992 3.127 3.127 0 0 1 .863-1.584c.033-.036.03-.036.108-.104.077-.068.155-.133.235-.192.08-.059.212-.142.253-.168.042-.027.087-.05.131-.074zm1.508.304l-.721 1.449-1.612.233 1.165 1.126-.277 1.593 1.442-.75 1.438.753-.274-1.593 1.168-1.129-1.612-.23-.717-1.452z" fill="#F90" /><path d="M13.333 6l.051.02c1.212.438 3.2.734 4.939.734h.128v.009a3.963 3.963 0 0 0-1.248.774c-1.255-.077-2.478-.27-3.462-.546l-.318-.095-.042-.015-.048-.015.09 10.244a5.614 5.614 0 0 0 1.921-1.15c.76-.691 1.358-1.613 1.778-2.698.21.203.442.381.691.532-.914 2.118-2.467 3.502-4.159 4.1l-.231.076-.048.018-.042.012-.044-.012c-2.723-.819-5.153-3.635-5.284-8.26-.023-.953.04-1.906.19-2.847l.021-.127h.128c1.737 0 3.723-.296 4.936-.733L13.333 6zm18.334 1.968c.504 0 .92.045 1.257.14.337.094.605.242.81.452.206.21.35.475.435.807.087.33.129.733.129 1.214v.7c0 .483-.042.882-.123 1.198a1.56 1.56 0 0 1-.426.765c-.202.192-.47.328-.81.405-.34.077-.762.113-1.272.113h-4.492v2.426h-1.227v-8.22h5.72zm7.334-.156c.256 0 .44.059.58.174.15.126.273.28.361.452l4.346 7.75h-1.462l-1.144-2.04h-5.404l-1.134 2.04h-1.451l4.364-7.75a1.53 1.53 0 0 1 .354-.452c.14-.115.334-.174.59-.174zm4.778.145l3.273 3.139 3.328-3.14H52l-4.367 4.275v3.957h-1.227v-3.97l-4.334-4.261h1.707zM38.98 9.296l-2.08 3.718h4.156L38.98 9.296zm-7.322-.122h-4.483v3.44h4.504c.22.004.441-.014.659-.052a.93.93 0 0 0 .428-.198.836.836 0 0 0 .233-.405c.047-.172.068-.396.068-.671v-.713A2.986 2.986 0 0 0 33 9.881a.876.876 0 0 0-.238-.429.92.92 0 0 0-.441-.216 2.986 2.986 0 0 0-.662-.062z" fill="#09F" /></symbol><symbol viewBox="0 0 77 24" id="venture-primo"><path d="M58.088 16.033v-5.171l-3.648 5.014a.875.875 0 01-.735.332.875.875 0 01-.735-.332l-3.632-5.014v5.171h-1.513V8.718a.595.595 0 01.253-.542c.338-.198.747-.23 1.112-.088a.971.971 0 01.323.28l4.2 5.889 4.27-5.889c.081-.111.182-.206.298-.28.14-.063.293-.093.446-.087a1.12 1.12 0 01.639.175.604.604 0 01.262.542v7.315h-1.54zM44.97 16.033V8.158h1.672v7.875zM41.159 16.033l-4.116-2.89v2.89h-1.558V8.006h5.513c.425-.006.85.03 1.269.105.319.049.62.178.875.376.237.194.408.457.49.753.115.386.168.787.157 1.19v.56a3.36 3.36 0 01-.166 1.155 1.558 1.558 0 01-.508.717 2.048 2.048 0 01-.875.377c-.412.075-.831.11-1.25.105h-1.26l4.06 2.69h-2.631zm1.046-5.507a2.03 2.03 0 00-.06-.516.595.595 0 00-.21-.315.875.875 0 00-.403-.14 4.436 4.436 0 00-.64 0h-3.85v2.441h3.85c.21.016.421.016.63 0a.805.805 0 00.403-.14.569.569 0 00.22-.306c.042-.175.063-.354.06-.534v-.49zM27.558 13.344v2.69H26V8.005h5.512c.426-.006.85.03 1.27.105.318.049.62.178.874.376.238.194.409.457.49.753.115.386.169.787.158 1.19v.56a3.36 3.36 0 01-.166 1.155 1.558 1.558 0 01-.508.717 2.048 2.048 0 01-.875.377c-.413.075-.832.11-1.251.105H27.558zm5.162-2.818a2.03 2.03 0 00-.061-.516.595.595 0 00-.21-.315.875.875 0 00-.403-.14 4.436 4.436 0 00-.639 0h-3.85v2.441h3.85c.21.016.42.016.63 0a.805.805 0 00.403-.14.569.569 0 00.219-.306c.043-.175.063-.354.061-.534v-.49zM63.567 15.988a5.162 5.162 0 01-1.33-.149 1.75 1.75 0 01-1.295-1.304 5.653 5.653 0 01-.131-1.32v-2.402a5.626 5.626 0 01.131-1.313c.07-.327.228-.63.455-.875.243-.236.545-.403.875-.481a5.163 5.163 0 011.295-.149h2.713c.447-.009.895.041 1.33.149.33.078.632.244.875.481.224.248.38.549.455.875.095.43.139.871.13 1.313v2.305c.004.46-.049.918-.157 1.365a1.96 1.96 0 01-.455.875 1.872 1.872 0 01-.875.481 5.119 5.119 0 01-1.33.149h-2.686zm3.868-5.088a3.089 3.089 0 00-.062-.639.875.875 0 00-.192-.411.77.77 0 00-.376-.219 2.826 2.826 0 00-.613-.061h-2.625a2.818 2.818 0 00-.612.061.7.7 0 00-.377.219.822.822 0 00-.192.411 4.13 4.13 0 000 .639v2.314a4.471 4.471 0 000 .656.822.822 0 00.192.412c.101.105.233.176.377.2.201.04.407.058.612.053h2.625c.2.003.4-.014.595-.052a.744.744 0 00.376-.201c.1-.118.166-.26.193-.412.042-.216.062-.436.061-.656l.018-2.314zM13.961 12.597a2.231 2.231 0 014.46.071 2.267 2.267 0 01-2.3 2.229 2.23 2.23 0 01-2.16-2.3zm7.582-5.352c0 .36.151.705.416.95-.166.434-.988 2.295-2.79 2.262 0 0-2.564.088-2.469-4.006h-.007c.035-.031.068-.063.098-.098a1.295 1.295 0 10-1.472.017c.027.028.054.056.084.081.088 4.094-2.476 4.006-2.476 4.006-1.769.032-2.592-1.757-2.78-2.235a1.295 1.295 0 10-.93.315l1.975 6.678c0 .452 2.177.818 4.861.818 2.684 0 4.855-.38 4.855-.834l1.97-6.659a1.295 1.295 0 00-.039-2.591c-.717 0-1.296.58-1.296 1.296z" fill="#FF7300" /><path fill="#F90" d="M16.12 11.068l-.496.976-1.111.156.803.76-.19 1.072.994-.506.994.506-.19-1.072.806-.76-1.111-.156z" /></symbol></defs></svg>