<svg xmlns="http://www.w3.org/2000/svg" xmlns:xlink="http://www.w3.org/1999/xlink"><defs><symbol viewBox="0 0 24 24" id="add"><path d="M0 0h24v24H0z" fill="none" /><path d="M19 13h-6v6h-2v-6H5v-2h6V5h2v6h6v2z" /></symbol><symbol viewBox="0 0 24 24" id="add-cart"><path d="M0 0h24v24H0zm18.31 6l-2.76 5z" fill="none" /><path d="M11 9h2V6h3V4h-3V1h-2v3H8v2h3v3zm-4 9a2 2 0 1 0 .01 4A2 2 0 0 0 7 18zm10 0a2 2 0 1 0 .01 4 2 2 0 0 0-.01-4zm-9.83-3.25l.03-.12.9-1.63h7.45a2 2 0 0 0 1.75-1.03l3.86-7.01L19.42 4h-.01l-1.1 2-2.76 5H8.53l-.13-.27L6.16 6l-.95-2-.94-2H1v2h2l3.6 7.59-1.35 2.45A2 2 0 0 0 7 17h12v-2H7.42a.25.25 0 0 1-.25-.25z" /></symbol><symbol viewBox="0 0 24 24" id="arrow-back"><path d="M0 0h24v24H0z" fill="none" /><path d="M20 11H7.83l5.59-5.59L12 4l-8 8 8 8 1.41-1.41L7.83 13H20v-2z" /></symbol><symbol viewBox="0 0 24 24" id="arrow-down"><path d="M7.41 8.59L12 13.17l4.59-4.58L18 10l-6 6-6-6 1.41-1.41z" /><path fill="none" d="M0 0h24v24H0V0z" /></symbol><symbol viewBox="0 0 24 24" id="arrow-forward"><path d="M0 0h24v24H0z" fill="none" /><path d="M12 4l-1.41 1.41L16.17 11H4v2h12.17l-5.58 5.59L12 20l8-8z" /></symbol><symbol viewBox="0 0 24 24" id="arrow-left"><path fill-rule="evenodd" d="M15.18 15.84L11.34 12l3.84-3.82L14 7l-5 5 5 5z" /></symbol><symbol viewBox="0 0 24 24" id="arrow-right"><path fill-rule="evenodd" d="M9 15.84L12.84 12 9 8.18 10.18 7l5 5-5 5z" /></symbol><symbol viewBox="0 0 24 24" id="block"><path d="M0 0h24v24H0z" fill="none" /><path d="M12 2C6.48 2 2 6.48 2 12s4.48 10 10 10 10-4.48 10-10S17.52 2 12 2zM4 12c0-4.42 3.58-8 8-8 1.85 0 3.55.63 4.9 1.69L5.69 16.9A7.902 7.902 0 0 1 4 12zm8 8c-1.85 0-3.55-.63-4.9-1.69L18.31 7.1A7.902 7.902 0 0 1 20 12c0 4.42-3.58 8-8 8z" /></symbol><symbol viewBox="0 0 24 24" id="box-arrow"><path fill="#282828" fill-rule="evenodd" d="M8.41 11H16.15V9.82h-8.3V11h.56zm7.69.79v4.65a.55.55 0 0 1-.56.55H8.41a.55.55 0 0 1-.56-.55v-4.65h-.29a.56.56 0 0 1-.56-.55V9.55A.55.55 0 0 1 7.56 9h8.88a.55.55 0 0 1 .56.55v1.69c0 .3-.25.55-.56.55h-.34zm-7.42.04v4.35h6.58v-4.35H8.68zm3.8-8.53A9.2 9.2 0 0 1 21 12.64 9.19 9.19 0 0 1 12 22a9.19 9.19 0 0 1-9-9.36.42.42 0 1 1 .84 0 8.34 8.34 0 0 0 8.16 8.5c4.6-.1 8.25-3.9 8.16-8.51A8.33 8.33 0 0 0 12 4.14h-1.26l.57.55a.4.4 0 0 1 0 .6.44.44 0 0 1-.62 0L9.36 4.01a.41.41 0 0 1 0-.6l1.33-1.26a.44.44 0 0 1 .62 0 .4.4 0 0 1 0 .6l-.57.55h1.74z" /></symbol><symbol viewBox="0 0 24 24" id="cat-airplane"><path fill="#282828" fill-rule="evenodd" d="M9.11 17.25l.33 2.98a.42.42 0 0 1-.12.34l-.44.45-2.36-3.54-3.54-2.36.45-.44a.42.42 0 0 1 .34-.12l2.98.33 3.3-3.3-6.64-4.43a.42.42 0 0 1-.07-.64l.23-.23c.37-.37.9-.52 1.4-.4l8.62 2.16 3.4-3.4c.48-.48 1.1-.8 1.76-.92l.42-.08a1.01 1.01 0 0 1 1.18 1.18l-.08.42A3.33 3.33 0 0 1 19.35 7l-3.4 3.41 2.15 8.62c.13.5-.02 1.03-.39 1.4l-.23.23a.42.42 0 0 1-.64-.07l-4.43-6.64-3.3 3.3z" /></symbol><symbol viewBox="0 0 24 24" id="cat-appliance"><defs><path id="cat-appliance_a" d="M19.001 20.75h-15a.501.501 0 0 1-.5-.5c0-.275.225-.5.5-.5h15c.275 0 .5.225.5.5s-.225.5-.5.5zM3.5 3.583c0-.046.037-.083.083-.083h15.834c.046 0 .083.037.083.083v3.334a.083.083 0 0 1-.083.083H3.583a.083.083 0 0 1-.083-.083V3.583zM9.75 9.5h3.5v-1h-3.5v1zm5.603 5.533c.021.019.048.027.069.047.209.209.329.498.329.795a.75.75 0 0 0 1.5 0c0-.692-.28-1.369-.77-1.856a2.602 2.602 0 0 0-1.856-.769H9.079a1.373 1.373 0 0 0-1.332 1.718c.038.149.074.309.112.477.189.836.462 2.009 1.272 2.805H4.75V8.5h3.5v1.75c0 .414.336.75.75.75h.5v.5a.75.75 0 0 0 1.5 0V11h1v.5a.75.75 0 0 0 1.5 0V11h.5a.75.75 0 0 0 .75-.75V8.5h3.5v9.75h-4.114c.914-.841 1.154-2.137 1.217-3.217zm-6.115-.283h4.626c-.061 1.718-.429 2.875-2.364 2.875-1.503 0-1.825-.948-2.178-2.51-.028-.126-.055-.249-.084-.365zm10.512 3.648a2.002 2.002 0 0 1 1.251 1.852c0 1.103-.897 2-2 2h-15c-1.103 0-2-.897-2-2 0-.837.518-1.553 1.249-1.851V8.463A1.583 1.583 0 0 1 2 6.917V3.583C2 2.71 2.71 2 3.583 2h15.834C20.29 2 21 2.71 21 3.583v3.334c0 .759-.536 1.393-1.25 1.546v9.935zM17.437 5.855a.918.918 0 1 0 0-1.836.918.918 0 0 0 0 1.835zm-3.125 0a.918.918 0 1 0 0-1.836.918.918 0 0 0 0 1.835z" /></defs><use fill-rule="evenodd" xlink:href="#cat-appliance_a" /></symbol><symbol viewBox="0 0 24 24" id="cat-baby"><defs><path id="cat-baby_a" d="M21.58 11.335a2.913 2.913 0 0 1 2.121 2.81 2.907 2.907 0 0 1-2.182 2.832c-.237 1.947-1.184 3.398-2.819 4.317-1.477.83-3.555 1.232-6.35 1.232-2.794 0-4.872-.402-6.349-1.232-1.635-.919-2.582-2.37-2.819-4.317A2.907 2.907 0 0 1 1 14.145c0-1.316.867-2.455 2.121-2.81v-.107c0-5.088 4.141-9.227 9.23-9.227 5.088 0 9.23 4.139 9.23 9.228v.106zm-18.459 1.77a1.33 1.33 0 0 0-.51 1.04c0 .408.194.795.51 1.042v-2.082zm8.956-4.902c.808 0 1.465-.656 1.465-1.463 0-1.14-1.192-2.74-3.432-2.794-3.168.977-5.378 3.969-5.378 7.282v4.744c0 1.86.672 3.14 2.055 3.917 1.23.692 3.051 1.027 5.563 1.027 2.513 0 4.333-.335 5.563-1.027 1.384-.776 2.056-2.058 2.056-3.917v-4.743a7.616 7.616 0 0 0-6.227-7.49l.032.03c.863.821 1.378 1.933 1.378 2.97a3.08 3.08 0 0 1-3.075 3.076 2.624 2.624 0 0 1-2.62-2.621 2.261 2.261 0 0 1 2.257-2.26.806.806 0 0 1 0 1.61.649.649 0 0 0-.648.65c0 .556.453 1.01 1.011 1.01zm-2.06 8.576a.818.818 0 0 1 1.27-1.03 1.42 1.42 0 0 0 2.212 0 .816.816 0 0 1 1.15-.12.816.816 0 0 1 .12 1.15 3.044 3.044 0 0 1-2.374 1.134 3.049 3.049 0 0 1-2.378-1.134zm-2.382-4.524a1.905 1.905 0 0 1 2.69 0 .817.817 0 1 1-1.156 1.157.271.271 0 0 0-.38 0 .813.813 0 0 1-1.154 0 .815.815 0 0 1 0-1.157zm7.405 1.397a.817.817 0 0 1-.578-1.397 1.904 1.904 0 0 1 2.692 0 .817.817 0 1 1-1.157 1.157.27.27 0 0 0-.379 0 .813.813 0 0 1-.578.24zm7.05.494a1.33 1.33 0 0 0-.51-1.04v2.08a1.33 1.33 0 0 0 .51-1.04z" /></defs><use fill-rule="evenodd" xlink:href="#cat-baby_a" /></symbol><symbol viewBox="0 0 24 24" id="cat-beauty"><path d="M9.7 13.23H8V8.66h.3a.74.74 0 0 0 .7-.75.75.75 0 0 0-.75-.76H8v-.58h.3a.76.76 0 0 0 0-1.51H8v-.58h.3a.75.75 0 0 0 .7-.76.74.74 0 0 0-.72-.72H8v-.24a.76.76 0 1 0-1.51 0V3h-.3a.76.76 0 1 0 0 1.51h.3v.58h-.3a.76.76 0 0 0 0 1.52h.3v.58h-.3a.76.76 0 1 0 0 1.51h.3v4.56H4.75A.76.76 0 0 0 4 14v6.38a2 2 0 0 0 2 2h2.42a2 2 0 0 0 2-2V14a.76.76 0 0 0-.72-.77zm-.76 7.13a.52.52 0 0 1-.52.53H6a.53.53 0 0 1-.53-.53v-5.62h3.47zM19.11 8.27h-.34V5.41a.76.76 0 0 0-.77-.75h-2.73a.76.76 0 0 0-.76.75v2.86h-.34a.76.76 0 0 0-.76.75v11.34a2 2 0 0 0 2 2h2.38a2 2 0 0 0 2-2V9a.76.76 0 0 0-.68-.73zM16 6.17h1.24v2.1H16zm2.33 14.19a.52.52 0 0 1-.52.53h-2.36a.53.53 0 0 1-.53-.53V9.78h3.43z" /></symbol><symbol viewBox="0 0 24 24" id="cat-beer-wine-and-spirits"><defs><path id="cat-beer-wine-and-spirits_a" d="M19.21 7.819h-2.212a2.965 2.965 0 0 0 .509-1.666c0-1.83-1.534-3.33-3.407-3.33-.597 0-1.106.166-1.619.415-1.193-1.416-3.323-1.666-4.769-.498-.176.166-.341.332-.509.498-.516-.249-1.024-.414-1.622-.414-1.873 0-3.407 1.498-3.407 3.33 0 1.247.769 2.414 1.874 2.998h-.173v10.236c0 1.419 1.108 2.498 2.556 2.498h6.817c1.107 0 2.044-.665 2.386-1.663h3.575c1.452 0 2.558-1.083 2.558-2.5v-7.408c0-1.417-1.106-2.496-2.558-2.496zM5.58 4.489c.509 0 .938.165 1.28.5.424.496 1.191.33 1.36-.255.34-.829 1.277-1.326 2.13-.996.513.167.85.5 1.022.996.256.585 1.023.751 1.448.254.342-.334.769-.499 1.28-.499.935 0 1.7.75 1.7 1.664 0 .916-.765 1.666-1.7 1.666-.511 0-.938-.166-1.28-.498-.425-.42-1.192-.252-1.448.245-.341.835-1.279 1.332-2.13 1.002A1.53 1.53 0 0 1 8.22 7.566c-.169-.58-.936-.749-1.36-.245-.342.332-.771.498-1.28.498-.937 0-1.706-.75-1.706-1.666 0-.914.769-1.664 1.706-1.664zm8.52 14.9c0 .5-.342.834-.853.834H6.431c-.508 0-.85-.334-.85-.835V9.484c.598 0 1.106-.169 1.622-.417 1.19 1.415 3.32 1.663 4.766.497.17-.163.344-.332.512-.497.513.248 1.022.417 1.62.417v9.904zm5.96-1.666c0 .502-.338.834-.852.834H15.8V9.484h3.408c.514 0 .852.332.852.831v7.408zM8.988 11.897h1.5v6.66h-1.5v-6.66zm2.552 0h1.5v6.66h-1.5v-6.66zm-5.109 0h1.5v6.66h-1.5v-6.66z" /></defs><use xlink:href="#cat-beer-wine-and-spirits_a" /></symbol><symbol viewBox="0 0 24 24" id="cat-beverages"><defs><path id="cat-beverages_a" d="M8.967 21.485l-.97-5.431h8.39l-.647 5.43H8.967zM12.002 4.94c.208 0 .406.035.606.058l-.833 3.984H6.941c.392-2.286 2.502-4.042 5.06-4.042zm5.06 4.042H13.43l.747-3.575c1.511.664 2.612 1.987 2.885 3.575zm-9.336 5.556l-.721-4.04h4.453l-.844 4.04H7.726zm8.841 0h-4.299l.846-4.04h3.934l-.48 4.04zm3.621-5.556h-1.474c-.298-2.328-1.96-4.267-4.217-5.107l.181-.865a.64.64 0 0 1 .317-.407.702.702 0 0 1 .535-.062l3.693.982c.432.115.88-.12 1.003-.522.123-.402-.128-.82-.559-.937l-3.688-.98a2.457 2.457 0 0 0-1.812.215 2.18 2.18 0 0 0-1.077 1.4l-.167.792a7.091 7.091 0 0 0-.921-.066c-3.457 0-6.31 2.43-6.713 5.557H3.812c-.448 0-.812.34-.812.757 0 .419.364.758.812.758h1.545l2.12 11.87c.066.365.405.633.801.633h8.189c.413 0 .76-.29.806-.674l1.409-11.829h1.506c.448 0 .812-.34.812-.758s-.364-.757-.812-.757z" /></defs><use fill-rule="evenodd" xlink:href="#cat-beverages_a" /></symbol><symbol viewBox="0 0 24 24" id="cat-books"><path fill-rule="evenodd" d="M11.282 6.169V18.26a3.164 3.164 0 0 0-1.757-.527H3.646a.209.209 0 0 1-.21-.207V4.634c0-.115.094-.208.21-.208h5.879c.97 0 1.757.781 1.757 1.743m9.282-1.535v12.892a.209.209 0 0 1-.21.207h-5.822a3.169 3.169 0 0 0-1.814.527V6.17c0-.962.789-1.743 1.757-1.743H20.354c.116 0 .21.093.21.208M20.354 3h-5.822l-.023.001L14.475 3A3.18 3.18 0 0 0 12 4.169 3.179 3.179 0 0 0 9.525 3h-5.88C2.74 3 2 3.733 2 4.634v12.892c0 .9.739 1.632 1.646 1.632h5.879c.795 0 1.49.538 1.693 1.309a.718.718 0 0 0 .695.533h.175c.328 0 .613-.22.694-.533a1.75 1.75 0 0 1 1.693-1.309h5.88A1.64 1.64 0 0 0 22 17.526V4.634C22 3.733 21.262 3 20.354 3" /></symbol><symbol viewBox="0 0 24 24" id="cat-camera"><path d="M13.38 13.38a3.44 3.44 0 1 0 3.47 3.43 3.45 3.45 0 0 0-3.47-3.43zm0 5.5a2.07 2.07 0 1 1 2.08-2.07 2.07 2.07 0 0 1-2.08 2.07z" /><path d="M18.92 12H18l-.81-1.61a2.08 2.08 0 0 0-1.05-1l.61-2.93h.13a1.38 1.38 0 0 0 1.38-1.38v-2.7A1.38 1.38 0 0 0 16.85 1H9.92a1.38 1.38 0 0 0-1.38 1.38v2.74A1.38 1.38 0 0 0 9.92 6.5h.13l.61 2.93a2.08 2.08 0 0 0-1.05 1L8.8 12H7.15v-.69a.69.69 0 1 0-1.38 0V12h-.69A2.07 2.07 0 0 0 3 14.06v6.88A2.07 2.07 0 0 0 5.08 23h13.84A2.07 2.07 0 0 0 21 20.94v-6.88A2.07 2.07 0 0 0 18.92 12zm-9-9.62zm.69 2.74h-.69V2.38h6.93v2.74h-6.24zM15.3 6.5l-.57 2.75H12l-.54-2.75zm4.32 14.44a.69.69 0 0 1-.7.68H5.08a.68.68 0 0 1-.69-.68v-6.88a.68.68 0 0 1 .69-.68h4.15a.7.7 0 0 0 .62-.38l1-2a.71.71 0 0 1 .62-.38h3.83a.71.71 0 0 1 .62.38l1 2a.7.7 0 0 0 .62.39h1.38a.69.69 0 0 1 .7.68z" /><path d="M6.81 14.86a.92.92 0 1 0 0 1.84.92.92 0 1 0 0-1.84zm0 .92z" /></symbol><symbol viewBox="0 0 24 24" id="cat-car"><defs><path id="cat-car_a" d="M21.324 9.783l-1.704-3.91A3.141 3.141 0 0 0 16.732 4H7.268A3.141 3.141 0 0 0 4.38 5.873l-1.704 3.91C1.684 10.303 1 11.32 1 12.5v1.545c0 1.14.637 2.125 1.571 2.661v2.749c0 .852.705 1.545 1.572 1.545h3.143c.866 0 1.571-.693 1.571-1.545v-2.319h6.286v2.319c0 .852.705 1.545 1.571 1.545h3.143c.867 0 1.572-.693 1.572-1.545v-2.749c.934-.536 1.571-1.522 1.571-2.66V12.5c0-1.18-.684-2.197-1.676-2.717zm-15.5-3.3a1.57 1.57 0 0 1 1.444-.938h9.464c.63 0 1.196.368 1.444.937l1.275 2.927H4.55l1.275-2.927zm1.463 12.972H4.143v-2.319h3.143v2.319zm12.57-2.319l.001 2.319h-3.144v-2.319h3.143zm1.572-3.09c0 .852-.705 1.545-1.572 1.545H4.143c-.867 0-1.572-.693-1.572-1.546V12.5c0-.852.705-1.545 1.572-1.545h15.714c.867 0 1.572.693 1.572 1.545v1.545zm-14.143-.773c0-.854-.704-1.546-1.572-1.546-.868 0-1.571.692-1.571 1.546 0 .853.703 1.545 1.571 1.545s1.572-.692 1.572-1.545zm12.571 0c0-.854-.703-1.546-1.571-1.546s-1.572.692-1.572 1.546c0 .853.704 1.545 1.572 1.545.868 0 1.571-.692 1.571-1.545zm-4.714 0a.78.78 0 0 0-.786-.773H9.643a.78.78 0 0 0-.786.773.78.78 0 0 0 .786.772h4.714a.78.78 0 0 0 .786-.772z" /></defs><use xlink:href="#cat-car_a" /></symbol><symbol viewBox="0 0 24 24" id="cat-cart"><path fill-rule="evenodd" d="M4.79 3v16.22h17.4c.44 0 .81.36.81.81 0 .45-.37.81-.82.81h-1.92l.02.27a1.9 1.9 0 0 1-1.9 1.89 1.9 1.9 0 0 1-1.89-2.16H9.66l.02.27A1.9 1.9 0 0 1 7.78 23a1.9 1.9 0 0 1-1.89-2.16H3.15V4.62H1.82A.81.81 0 0 1 1 3.8c0-.45.37-.81.82-.81h2.97zm15.5 1.1c.6 0 1.08.49 1.08 1.09v12.95H5.87V5.2c0-.6.49-1.08 1.1-1.08zm-9.93 1.63H7.5v10.8h12.24V5.72h-2.86v4.86L13.64 9.5l-3.28 1.09V5.73zm4.9 0h-3.27v2.7l1.65-.54 1.61.54v-2.7z" /></symbol><symbol viewBox="0 0 24 24" id="cat-computer-accessories"><defs><path id="cat-computer-accessories_a" d="M11.828 11.386v.442H8.486v-4.49a4.132 4.132 0 0 1 3.342 4.048M7.7 20.428A4.133 4.133 0 0 1 3.572 16.3v-2.9h8.256v2.9A4.134 4.134 0 0 1 7.7 20.428m-.786-13.09v4.49H3.572v-.442a4.13 4.13 0 0 1 3.342-4.048M21.214 2a.787.787 0 0 0-.786.786v5.528a2.288 2.288 0 0 1-2.285 2.286 2.288 2.288 0 0 1-2.286-2.286V6.472A4.477 4.477 0 0 0 11.386 2C9.172 2 7.343 3.62 6.989 5.735 4.18 6.086 2 8.485 2 11.385V16.3C2 19.443 4.557 22 7.7 22c3.143 0 5.7-2.557 5.7-5.7v-4.914c0-2.843-2.092-5.197-4.816-5.625a2.899 2.899 0 0 1 2.802-2.189c1.599 0 2.899 1.3 2.899 2.9v1.842a3.862 3.862 0 0 0 3.858 3.858A3.862 3.862 0 0 0 22 8.314V2.786A.787.787 0 0 0 21.214 2" /></defs><use fill-rule="evenodd" xlink:href="#cat-computer-accessories_a" /></symbol><symbol viewBox="0 0 24 24" id="cat-computing"><defs><path id="cat-computing_a" d="M19 17.4H5.25c-.965 0-1.75-.785-1.75-1.75v-.15h17.25v.15c0 .965-.785 1.75-1.75 1.75zM14.358 21H9.892l.364-2.1h3.738l.364 2.1zM5.25 4.5H19c.965 0 1.75.785 1.75 1.75V14H3.5V6.25c0-.965.785-1.75 1.75-1.75zM19 3H5.25A3.254 3.254 0 0 0 2 6.25v9.4a3.254 3.254 0 0 0 3.25 3.25h3.483L8.369 21H7.125a.75.75 0 0 0 0 1.5h10a.75.75 0 0 0 0-1.5h-1.244l-.364-2.1H19a3.254 3.254 0 0 0 3.25-3.25v-9.4A3.254 3.254 0 0 0 19 3z" /></defs><use fill-rule="evenodd" xlink:href="#cat-computing_a" /></symbol><symbol viewBox="0 0 24 24" id="cat-data-storage"><defs><path id="cat-data-storage_a" d="M13.906 7.055h.804v-.779h-.804v.78zm4.466 2.859c.401 0 .727.318.727.709v8.57c0 1.482-1.137 2.688-2.532 2.688H7.533C6.136 21.88 5 20.675 5 19.193v-8.57a.714.714 0 0 1 .732-.71h.397V2.712A.714.714 0 0 1 6.782 2h.003a.457.457 0 0 1 .074 0h10.385c.4 0 .727.319.727.71v7.203h.401zm-.727 9.279v-7.861H6.455v7.86c0 .728.569 1.27 1.079 1.27h9.033c.51 0 1.078-.542 1.078-1.27zM7.582 9.913h8.934V3.42H7.584v6.494zm5.597-1.439a.721.721 0 0 1-.728-.709V5.568a.72.72 0 0 1 .728-.71h2.258c.024 0 .048-.002.073 0a.715.715 0 0 1 .654.71v2.197a.72.72 0 0 1-.727.71h-2.258zm-4.516 0a.72.72 0 0 1-.727-.709V5.568a.714.714 0 0 1 .651-.71h.003c.027 0 .052-.002.075 0h2.256a.72.72 0 0 1 .727.71v2.197a.72.72 0 0 1-.727.71H8.663zm.727-1.419h.804v-.779H9.39v.78z" /></defs><use fill-rule="evenodd" xlink:href="#cat-data-storage_a" /></symbol><symbol viewBox="0 0 20 20" id="cat-deals"><path d="M12.81,16.22H12.4A1.27,1.27,0,0,1,11.14,15V13.72a1.27,1.27,0,0,1,1.26-1.26h.41a1.26,1.26,0,0,1,1.26,1.26V15A1.26,1.26,0,0,1,12.81,16.22Zm-.41-3a.46.46,0,0,0-.46.46V15a.46.46,0,0,0,.46.46h.41a.47.47,0,0,0,.47-.46V13.72a.47.47,0,0,0-.47-.46ZM8.05,12H7.64a1.26,1.26,0,0,1-1.26-1.26V9.49A1.26,1.26,0,0,1,7.64,8.23h.41A1.26,1.26,0,0,1,9.32,9.49v1.23A1.26,1.26,0,0,1,8.05,12ZM7.64,9a.47.47,0,0,0-.46.47v1.23a.47.47,0,0,0,.46.47h.41a.47.47,0,0,0,.47-.47V9.49A.47.47,0,0,0,8.05,9Z" /><path d="M15.44,17.65H4.56A1.65,1.65,0,0,1,2.91,16v-.54a3.85,3.85,0,0,1,0-7.08V7.84a1.64,1.64,0,0,1,.95-1.49A.36.36,0,0,1,4.09,6l8.78-3.77a1.65,1.65,0,0,1,1.27,0,1.59,1.59,0,0,1,.9.88l.21.5a3.86,3.86,0,0,1,3.54,2.33,3.91,3.91,0,0,1-.27,3.55,3.86,3.86,0,0,1-1.43,6V16A1.65,1.65,0,0,1,15.44,17.65ZM4.56,6.94a.9.9,0,0,0-.9.9v.8A.36.36,0,0,1,3.4,9a3.11,3.11,0,0,0,0,5.86.36.36,0,0,1,.26.35V16a.9.9,0,0,0,.9.9H15.44a.9.9,0,0,0,.9-.9v-.8a.36.36,0,0,1,.26-.35A3.11,3.11,0,0,0,16.6,9a.36.36,0,0,1-.26-.35v-.8a.9.9,0,0,0-.9-.9ZM17.09,8.38A3.79,3.79,0,0,1,18,8.9,3.1,3.1,0,0,0,15,4.31a.38.38,0,0,1-.37-.22l-.31-.74a.89.89,0,0,0-.49-.48,1,1,0,0,0-.69,0L5.44,6.19h10a1.65,1.65,0,0,1,1.65,1.65ZM3.28,8.64h0Zm5.08,7.2a.33.33,0,0,1-.17,0A.37.37,0,0,1,8,15.3l3.72-7.24a.38.38,0,0,1,.67.34L8.69,15.64A.38.38,0,0,1,8.36,15.84Z" /></symbol><symbol viewBox="0 0 24 24" id="cat-fashion"><defs><path id="cat-fashion_a" d="M23.278 6.466a.738.738 0 0 1 .017.262.75.75 0 0 1-.079.252l-2.036 3.799a.68.68 0 0 1-.165.203.624.624 0 0 1-.729.05l-1.721-1.07v10.382a.724.724 0 0 1-.188.483.633.633 0 0 1-.463.205H6.382a.632.632 0 0 1-.464-.207.703.703 0 0 1-.186-.481V9.962l-1.72 1.07a.61.61 0 0 1-.245.089.578.578 0 0 1-.257-.018.645.645 0 0 1-.393-.324l-2.033-3.8a.73.73 0 0 1-.062-.514.688.688 0 0 1 .298-.416c1.059-.66 1.816-1.165 2.425-1.571.822-.55 1.318-.881 1.841-1.113.798-.354 1.48-.361 3.042-.365h.704a.631.631 0 0 1 .44.183.688.688 0 0 1 .207.438c.142 1.5 1.075 2.632 2.171 2.632 1.094 0 2.027-1.132 2.171-2.634a.71.71 0 0 1 .207-.436.63.63 0 0 1 .439-.182L15.536 3c1.623 0 2.343-.005 3.175.365.524.232 1.021.564 1.844 1.114.608.406 1.366.91 2.425 1.57a.694.694 0 0 1 .298.416zM17.35 8.42a.632.632 0 0 1 .895-.252l.672.418 1.408-2.632-.562-.371c-.743-.493-1.191-.791-1.555-.952-.56-.248-1.045-.274-2.542-.256h-.147c-.351 1.642-1.401 2.868-2.719 3.177v12.103h4.464V8.76c0-.12.03-.237.086-.34zm4.42-1.532l-.337-.214-1.395 2.609.337.21 1.395-2.605zm-18.972-.17l-.269.17 1.393 2.605.271-.168-1.395-2.607zm4.15 1.705a.724.724 0 0 1 .085.338v10.895h4.466V7.553c-1.318-.31-2.37-1.535-2.719-3.177l-.298-.002h-.071c-1.316 0-1.79.023-2.322.258-.364.162-.813.46-1.558.955l-.623.412 1.405 2.63.74-.46a.633.633 0 0 1 .895.254z" /></defs><use fill-rule="evenodd" xlink:href="#cat-fashion_a" /></symbol><symbol viewBox="0 0 24 24" id="cat-fitness"><defs><path id="cat-fitness_a" d="M23 12.142c0-.644-.488-1.185-1.123-1.21V8.51c0-1.056-.806-1.906-1.807-1.906a1.5 1.5 0 0 0-.488.077V5.498C19.582 4.133 18.507 3 17.189 3c-1.319 0-2.393 1.107-2.393 2.498v5.433H9.229V5.498C9.229 4.133 8.154 3 6.836 3 5.517 3 4.443 4.107 4.443 5.498v1.184a1.5 1.5 0 0 0-.489-.077c-1 0-1.806.85-1.806 1.906v2.42c-.635 0-1.148.541-1.148 1.21 0 .67.513 1.21 1.148 1.21v2.138c0 1.056.805 1.906 1.806 1.906a1.5 1.5 0 0 0 .489-.077v1.184C4.443 19.867 5.517 21 6.836 21c1.318 0 2.393-1.107 2.393-2.498v-5.15h5.591v5.15c0 1.365 1.075 2.498 2.393 2.498 1.319 0 2.393-1.107 2.393-2.498v-1.184a1.5 1.5 0 0 0 .488.077c1.001 0 1.807-.85 1.807-1.906v-2.137c.61-.026 1.099-.567 1.099-1.21zM3.979 16.004a.504.504 0 0 1-.488-.515V8.511c0-.284.22-.515.488-.515.269 0 .488.231.488.515v6.978c0 .284-.22.515-.488.515zm3.931 2.498c0 .618-.488 1.107-1.074 1.107-.586 0-1.075-.489-1.075-1.107V5.498c0-.618.489-1.107 1.075-1.107S7.91 4.88 7.91 5.498v13.004zm10.353 0c0 .618-.488 1.107-1.074 1.107-.586 0-1.075-.489-1.075-1.107V5.498c0-.618.489-1.107 1.075-1.107s1.074.489 1.074 1.107v13.004zm2.295-3.013c0 .284-.22.515-.488.515a.504.504 0 0 1-.488-.515V8.511c0-.284.22-.515.488-.515.269 0 .488.231.488.515v6.978z" /></defs><use xlink:href="#cat-fitness_a" /></symbol><symbol viewBox="0 0 24 24" id="cat-games"><path d="M16.58 11.58a1.2 1.2 0 1 0 1.2 1.2 1.2 1.2 0 0 0-1.2-1.2zm-.64-.65a1.19 1.19 0 1 0-1.19 1.2 1.19 1.19 0 0 0 1.19-1.2zm.64-.65a1.2 1.2 0 1 0-1.19-1.2 1.2 1.2 0 0 0 1.19 1.2zM9.14 8.7H7.37v1.43H5.89v1.71h1.48v1.42h1.77v-1.42h1.49v-1.71H9.14V8.7z" /><path d="M22.06 9.26C21.15 6.37 19 4 16.55 4a6.41 6.41 0 0 0-2.55.52h-.06a4.31 4.31 0 0 1-1.9.38 4.31 4.31 0 0 1-1.9-.38h-.06A6.36 6.36 0 0 0 7.46 4C5.06 4 2.86 6.37 2 9.26A20.12 20.12 0 0 0 1 16c.06 3.07 1.34 4.63 3.67 4.64A4 4 0 0 0 8 18.78c.15-.19.58-.79.58-.79A4 4 0 0 1 12 16a4 4 0 0 1 3.38 2s.43.6.58.79a4.06 4.06 0 0 0 3.36 1.85c2.33 0 3.62-1.57 3.67-4.6a20.5 20.5 0 0 0-.93-6.78zm-2.73 9.52a2.32 2.32 0 0 1-1.92-1.14l-.55-.76a5.7 5.7 0 0 0-9.71 0l-.55.76a2.31 2.31 0 0 1-1.93 1.14c-1.22 0-1.79-.68-1.83-2.79a18.4 18.4 0 0 1 .85-6.17c.69-2.21 2.33-4 3.75-4a4.71 4.71 0 0 1 2 .4h.06a6.58 6.58 0 0 0 2.5.55 6.53 6.53 0 0 0 2.54-.49h.06a4.74 4.74 0 0 1 2-.4c1.43 0 3.06 1.76 3.76 4a18.79 18.79 0 0 1 .82 6.12c-.05 2.1-.62 2.78-1.85 2.78z" /><path d="M18.42 9.73a1.2 1.2 0 1 0 1.19 1.2 1.2 1.2 0 0 0-1.19-1.2z" /></symbol><symbol viewBox="0 0 24 24" id="cat-garden"><path d="M17.91 11.83H17a14 14 0 0 0 1.26-4.09l.21-1.41a.62.62 0 0 0-.38-.64.74.74 0 0 0-.77.09l-.17.13a15.13 15.13 0 0 0-1.31 1.22 20.34 20.34 0 0 1 1.38-3.95.58.58 0 0 0-.2-.76.74.74 0 0 0-.82 0A13.37 13.37 0 0 0 14 4.14a9.26 9.26 0 0 1 .81-2.24.56.56 0 0 0-.15-.73.74.74 0 0 0-.77-.11l-.91.4a4.83 4.83 0 0 0-2.74 2.87A7.7 7.7 0 0 0 8 2.89l-1.33-.55a.74.74 0 0 0-.78.13.6.6 0 0 0-.11.76l.09.14a17.44 17.44 0 0 1 1.88 4 6.72 6.72 0 0 0-.66-.32L6 6.6a.74.74 0 0 0-.78.13.6.6 0 0 0-.11.76l.08.11A14.73 14.73 0 0 1 7 11.83H5.69a.66.66 0 0 0-.69.63v7.11a4.13 4.13 0 0 0 4.36 3.83h4.88a4.13 4.13 0 0 0 4.36-3.83v-7.11a.66.66 0 0 0-.69-.63zM16.84 8a12.71 12.71 0 0 1-1.34 3.79h-.89A10.32 10.32 0 0 1 16.84 8zm-1.78-3a41.72 41.72 0 0 0-1.27 5.2 10.78 10.78 0 0 0-.61 1.64H12A10.11 10.11 0 0 1 15.06 5zm-3.61.64A3.21 3.21 0 0 1 12.92 3a9.3 9.3 0 0 0-.46 2.9V6c-.14.2-.27.41-.39.62l-.07.16a5.62 5.62 0 0 0-.55-1.06.28.28 0 0 0 0-.09zM11.05 9a10.8 10.8 0 0 0-.4 1.84 5.39 5.39 0 0 0-.8-1.61l-.29-.37A18.36 18.36 0 0 0 8 4.29 5.5 5.5 0 0 1 11.05 9zm-1.59 2.83H8.4a15.23 15.23 0 0 0-1.14-3.24 4.53 4.53 0 0 1 2.2 3.24zm-3.07 1.26h10.82v.67H6.39zm10.83 6.48a2.8 2.8 0 0 1-3 2.57H9.36a2.79 2.79 0 0 1-3-2.57V15h10.86z" /></symbol><symbol viewBox="0 0 24 24" id="cat-groceries"><path fill-rule="evenodd" d="M20.672 7.538c-1.144-1.392-2.904-2.066-4.95-1.898a9.822 9.822 0 0 0-3.278.823c.132-1.497-.132-3.647-2.376-4.406-1.078-.359-1.54 1.096-.858 1.264 1.408.359 2.046 1.455 2.222 3.078-.968-.4-2.046-.674-3.168-.759-2.068-.147-3.828.528-4.95 1.898-1.475 1.792-1.717 4.575-.683 7.631 1.65 4.87 4.687 7.38 8.119 6.726a5.77 5.77 0 0 0 1.254-.401c.418.19.836.316 1.254.4.352.064.726.106 1.078.106 2.97 0 5.544-2.467 7.04-6.83 1.035-3.057.77-5.84-.704-7.632zm-.836 7.147c-.506 1.517-2.486 6.43-6.27 5.692a4.464 4.464 0 0 1-1.188-.422.835.835 0 0 0-.396-.084.895.895 0 0 0-.396.084c-.396.21-.792.358-1.188.422-3.762.738-5.742-4.175-6.27-5.692-.88-2.551-.727-4.828.418-6.22.814-.97 2.046-1.433 3.564-1.328 1.254.085 2.442.443 3.432 1.012a.845.845 0 0 0 .836 0c.99-.569 2.156-.927 3.432-1.012 1.54-.105 2.772.338 3.564 1.328 1.188 1.413 1.342 3.669.462 6.22z" /></symbol><symbol viewBox="0 0 20 20" id="cat-grooming"><path d="M16.55,15.48l-.1,0A.37.37,0,0,1,16.2,15l1.35-4.66a2.62,2.62,0,0,0-.42-2.28,2.59,2.59,0,0,0-2.06-1H4.89A2.58,2.58,0,0,0,2.4,10.32L3.71,15a.37.37,0,0,1-.71.2L1.7,10.52A3.31,3.31,0,0,1,4.89,6.31H15.07a3.32,3.32,0,0,1,3.18,4.24l-1.34,4.66a.38.38,0,0,1-.36.27Z" /><path d="M16.55,15.48a.37.37,0,0,1-.36-.37V10H3.72v5.13a.37.37,0,1,1-.73,0V9.61a.37.37,0,0,1,.36-.37h13.2a.37.37,0,0,1,.37.37v5.5A.37.37,0,0,1,16.55,15.48Z" /><path d="M4.82,15.48a.38.38,0,0,1-.37-.37V10a.37.37,0,1,1,.74,0v5.13A.38.38,0,0,1,4.82,15.48Z" /><path d="M6.29,15.48a.37.37,0,0,1-.37-.37V10a.37.37,0,1,1,.73,0v5.13A.37.37,0,0,1,6.29,15.48Z" /><path d="M7.75,15.48a.37.37,0,0,1-.36-.37V10a.37.37,0,1,1,.73,0v5.13A.37.37,0,0,1,7.75,15.48Z" /><path d="M9.22,15.48a.38.38,0,0,1-.37-.37V10a.37.37,0,1,1,.74,0v5.13A.38.38,0,0,1,9.22,15.48Z" /><path d="M10.69,15.48a.38.38,0,0,1-.37-.37V10a.37.37,0,1,1,.73,0v5.13A.37.37,0,0,1,10.69,15.48Z" /><path d="M12.15,15.48a.37.37,0,0,1-.36-.37V10a.37.37,0,1,1,.73,0v5.13A.37.37,0,0,1,12.15,15.48Z" /><path d="M13.62,15.48a.38.38,0,0,1-.37-.37V10A.37.37,0,0,1,14,10v5.13A.38.38,0,0,1,13.62,15.48Z" /><path d="M15.09,15.48a.37.37,0,0,1-.37-.37V10a.37.37,0,1,1,.73,0v5.13A.37.37,0,0,1,15.09,15.48Z" /></symbol><symbol viewBox="0 0 24 24" id="cat-hair-care"><path d="M12.73 2v2.59L13 8.52c.27 3.45.54 6.89.79 10.32v3.34h7.24v-3.25c.16-2.51.37-5.06.57-7.53.17-2.14.34-4.29.49-6.43V2zm7.14 19h-.66a1.67 1.67 0 0 0-.51-.74 2.1 2.1 0 0 0-2.51 0 1.65 1.65 0 0 0-.5.74H15v-1.2h4.84zm0-2.55v.17H15L14 4.88v-.11h7zM21 3.61h-7v-.45h7zM9.9 8.6v-.23a1.35 1.35 0 0 0-.59-1.07A2 2 0 0 0 8 6.85V5.77h.82V2h-4v.76H2.1V5h2.75v.75h.81v1.1a2.09 2.09 0 0 0-1.27.45 1.39 1.39 0 0 0-.6 1.07v.23A2.67 2.67 0 0 0 2 11.08v9.66a1.48 1.48 0 0 0 1.52 1.44h6.65a1.49 1.49 0 0 0 1.53-1.44v-9.66A2.68 2.68 0 0 0 9.9 8.6zM6 3.16h1.65v1.45H6zM5 8.4a.61.61 0 0 1 .16-.2 1 1 0 0 1 .52-.2H8a.91.91 0 0 1 .52.18.5.5 0 0 1 .15.18v.05H5zm5.5 12.34a.31.31 0 0 1-.33.28H3.52a.3.3 0 0 1-.32-.28v-1.65h7.3zm0-2.81H3.2v-5.27h7.3zm0-6.42H3.2v-.43a1.56 1.56 0 0 1 1.61-1.51h4.07a1.57 1.57 0 0 1 1.62 1.51z" /></symbol><symbol viewBox="0 0 24 24" id="cat-health"><defs><path id="cat-health_a" d="M21.044 4a5.852 5.852 0 0 0-4.186-1.775h-.128a7.336 7.336 0 0 0-4.564 1.673C10.74 2.638 9.36 2 8.066 2h-.02a6.61 6.61 0 0 0-4.742 2.025A6.898 6.898 0 0 0 1.5 7.562a.912.912 0 0 0 .726 1.065.91.91 0 0 0 1.059-.73 5.05 5.05 0 0 1 1.348-2.618 4.784 4.784 0 0 1 3.443-1.476h.016c.957 0 2.178.685 3.436 1.93.374.37.976.37 1.348-.003a5.565 5.565 0 0 1 3.932-1.701l.037-.001c1.084 0 2.14.447 2.9 1.226a5.103 5.103 0 0 1 1.443 3.587 5.211 5.211 0 0 1-.252 1.563h-5.51c-.24 0-.476.1-.648.276l-2.093 2.223L10.2 7.251a.904.904 0 0 0-1.603-.12l-2.014 3.323H1.908c-.5 0-.908.41-.908.915 0 .504.407.914.908.914h5.195a.904.904 0 0 0 .754-.453l1.376-2.238 2.359 5.371a.912.912 0 0 0 .694.52h.122a.94.94 0 0 0 .668-.275l2.756-2.95h4.055l-.14.17-7.584 7.392-5.946-5.817a.899.899 0 0 0-.633-.26h-.01a.918.918 0 0 0-.626 1.57l6.604 6.428a.904.904 0 0 0 .636.259c.23 0 .46-.086.634-.259l8.223-8.007a7.034 7.034 0 0 0 0-9.734" /></defs><use fill-rule="evenodd" xlink:href="#cat-health_a" /></symbol><symbol viewBox="0 0 24 24" id="cat-home"><path d="M18.659 22h-4.5c-.431 0-.78-.328-.78-.733v-6.284h-2.757v6.284c0 .405-.35.733-.78.733h-4.5C4.05 22 3 21.013 3 19.8V9.922c0-.204.09-.399.249-.537l8.22-7.188a.817.817 0 0 1 1.063 0l8.22 7.188a.714.714 0 0 1 .248.537V19.8c0 1.213-1.05 2.2-2.341 2.2zm-3.72-1.467h3.72c.43 0 .78-.329.78-.733V10.24L12 3.735l-7.44 6.506V19.8c0 .404.35.733.781.733h3.72v-6.284c0-.405.35-.733.78-.733h4.318c.43 0 .78.328.78.733v6.284z" /></symbol><symbol viewBox="0 0 24 24" id="cat-home-audio"><defs><path id="cat-home-audio_a" d="M14.498 2.003H2.833A.836.836 0 0 0 2 2.836v18.33c0 .459.375.834.833.834h11.665a.836.836 0 0 0 .834-.833V2.836a.836.836 0 0 0-.834-.833zm-.833 18.33H3.667V3.67h9.998v16.665zm6.624-9.123a5.827 5.827 0 0 1 0 8.248l-1.177-1.176a4.174 4.174 0 0 0 0-5.895l1.177-1.177zm-3.53 3.53l1.176-1.166a2.49 2.49 0 0 1 0 3.53l-1.177-1.187a.836.836 0 0 0 0-1.177zM8.665 19.5a4.165 4.165 0 0 0 4.166-4.166 4.165 4.165 0 0 0-4.166-4.166A4.165 4.165 0 0 0 4.5 15.334 4.165 4.165 0 0 0 8.666 19.5zm0-6.665c1.385 0 2.5 1.114 2.5 2.5a2.494 2.494 0 0 1-2.5 2.499 2.494 2.494 0 0 1-2.5-2.5c0-1.375 1.125-2.5 2.5-2.5zm0-3.333c1.385 0 2.5-1.115 2.5-2.5s-1.115-2.5-2.5-2.5a2.494 2.494 0 0 0-2.5 2.5c0 1.375 1.125 2.5 2.5 2.5zm0-3.333c.458 0 .833.375.833.833a.836.836 0 0 1-.833.833.836.836 0 0 1-.833-.833c0-.458.375-.833.833-.833z" /></defs><use xlink:href="#cat-home-audio_a" /></symbol><symbol viewBox="0 0 24 24" id="cat-industrial-scientific"><defs><path id="cat-industrial-scientific_a" d="M3.94 8.243l-1.504.608a.673.673 0 0 0-.41.81l.57 2.002a.683.683 0 0 0 .66.495h.114l1.596-.27c.35.398.857.628 1.391.63l.365-.046 3.625-.72c.23.362.575.638.98.788v2.654l-3.99 6.141a.67.67 0 0 0 .255.846.69.69 0 0 0 .885-.126l2.85-4.364v4.634a.68.68 0 0 0 .684.675.68.68 0 0 0 .684-.675v-4.634l2.85 4.364a.69.69 0 0 0 .885.126.67.67 0 0 0 .255-.846l-3.99-6.14V12.54a1.963 1.963 0 0 0 1.254-1.507l2.782-.54a.686.686 0 0 0 .592.337h.069l3.99-.405a.686.686 0 0 0 .499-.29.667.667 0 0 0 .093-.564l-2.28-8.076a.677.677 0 0 0-.377-.435.692.692 0 0 0-.58.008l-3.625 1.71a.674.674 0 0 0-.388.629l-3.534 1.26-.228-.81.912-.248-.364-1.327-3.147.878.365 1.304.912-.247.25.922-4.787 1.732A1.806 1.806 0 0 0 3.94 8.243zm-.182 2.452l-.228-.832.638-.247.274.967-.684.112zm8.253.608a.612.612 0 0 1-.615-.608c0-.335.275-.607.615-.607.34 0 .616.272.616.607a.612.612 0 0 1-.616.608zm6.566-8.683l1.847 6.523-2.576.27-1.619-5.669 2.348-1.124zm-3.51 2.07l1.276 4.498-2.645.518a1.994 1.994 0 0 0-2.078-.893 1.97 1.97 0 0 0-1.57 1.612l-.433.09-.98-3.486 6.43-2.34zM5.581 8.107l1.755-.63.935 3.285-1.824.36a.456.456 0 0 1-.524-.315l-.616-2.16a.448.448 0 0 1 .274-.54z" /></defs><use xlink:href="#cat-industrial-scientific_a" /></symbol><symbol viewBox="0 0 24 24" id="cat-jewel"><path d="M7.63 3.79l1 1a.68.68 0 0 0 1-1l-1-1a.65.65 0 0 0-.93 0 .67.67 0 0 0-.2.48.7.7 0 0 0 .16.44zM14.82 5h.06a.69.69 0 0 0 .43-.16.46.46 0 0 1 .07-.07l1-1a.69.69 0 0 0-.07-1 .68.68 0 0 0-.87 0l-1 1a.64.64 0 0 0-.23.46.69.69 0 0 0 .15.5.64.64 0 0 0 .46.27zM12 3.77a.67.67 0 0 0 .67-.68V1.68a.67.67 0 1 0-1.34 0v1.41a.67.67 0 0 0 .67.68zm9.87 7.88l-3.69-5.11a.68.68 0 0 0-.54-.27H6.36a.68.68 0 0 0-.54.27l-3.69 5.11a.69.69 0 0 0 0 .86l9.37 10.27a.72.72 0 0 0 .5.22.63.63 0 0 0 .45-.18l9.33-10.27a.68.68 0 0 0 .09-.9zm-5.35-4l-1 3-2.15-3zm-2.16 3.76H9.63L12 8.09zm-3.68-3.8l-2.15 3-1-3zm-4.42.6l1.1 3.17H4zM4.2 12.73h3.64l2.38 6.64zm7.8 7.6l-2.73-7.6h5.45zm1.77-1l2.38-6.64h3.65zm2.86-8l1.1-3.17 2.27 3.2z" /></symbol><symbol viewBox="0 0 24 24" id="cat-kitchen-dinning"><defs><path id="cat-kitchen-dinning_a" d="M9.987 2.001a.678.678 0 0 1 .076 0h3.903c.404 0 .731.354.731.79v2.105h1.951c.114 0 .226.027.328.082l2.927 1.579a.798.798 0 0 1 .404.707v1.052h.975a.723.723 0 0 1 .643.392.844.844 0 0 1 0 .796.723.723 0 0 1-.643.391h-.975v1.316h1.95a.723.723 0 0 1 .643.392.844.844 0 0 1 0 .795.723.723 0 0 1-.642.392h-1.951v5.115C20.307 20.15 18.64 22 16.58 22h-5.983a.723.723 0 0 1-.643-.392.844.844 0 0 1 0-.795.723.723 0 0 1 .643-.392h5.983c1.255 0 2.263-1.101 2.263-2.516v-8.01H5.185v8.01c0 1.415 1.009 2.516 2.264 2.516h4.648a.723.723 0 0 1 .642.392.844.844 0 0 1 0 .795.723.723 0 0 1-.642.392H7.449c-2.06 0-3.727-1.85-3.727-4.095V12.79H1.771a.718.718 0 0 1-.653-.36.844.844 0 0 1-.038-.789.732.732 0 0 1 .69-.43h1.952V9.895h-.976a.718.718 0 0 1-.652-.359.844.844 0 0 1-.038-.79.732.732 0 0 1 .69-.43h.976V7.264c0-.3.156-.573.404-.707l2.927-1.58a.693.693 0 0 1 .251-.081.678.678 0 0 1 .076 0h1.952V2.79c-.002-.405.281-.747.655-.789zm.808 1.579v1.316h2.439V3.58h-2.44zm-3.24 2.894l-2.37 1.283v.56h13.658v-.56l-2.37-1.283H7.556z" /></defs><use xlink:href="#cat-kitchen-dinning_a" /></symbol><symbol viewBox="0 0 24 24" id="cat-livestock"><path d="M12.35 11.73a1.06 1.06 0 1 0 1.06-1.06 1.05 1.05 0 0 0-1.06 1.06zm1.2 0c0 .15-.29.15-.29 0a.15.15 0 0 1 .15-.14.14.14 0 0 1 .14.14z" /><path d="M19.53 15.33l1-.55a1.44 1.44 0 0 0-.15-2.57L17 10.77a7.57 7.57 0 0 0-1.82-3.25 8.31 8.31 0 0 0 1.4-3.64 2.66 2.66 0 0 0-.77-2.09 2.63 2.63 0 0 0-2-.78 2.77 2.77 0 0 0-2.06.91A2.8 2.8 0 0 0 9.63 1a2.84 2.84 0 0 0-2.07.9l-.07-.08A2.79 2.79 0 0 0 5.56 1a2.67 2.67 0 0 0-2.09.78 2.62 2.62 0 0 0-.78 2 8.46 8.46 0 0 0 1.4 3.71A7.58 7.58 0 0 0 2 12.76v7.9a2.47 2.47 0 0 0 2.47 2.47 2.44 2.44 0 0 0 1.72-.7 2.42 2.42 0 0 0 1.72.7 2.45 2.45 0 0 0 1.72-.7 2.45 2.45 0 0 0 3.43 0 2.44 2.44 0 0 0 1.72.7 2.47 2.47 0 0 0 2.3-1.57 3.35 3.35 0 0 0 1.22.23 3.52 3.52 0 0 0 1.31-.26A2.74 2.74 0 0 0 21.38 19a5 5 0 0 0-1.85-3.67zm-15-12.48a1.19 1.19 0 0 1 1-.34 1.3 1.3 0 0 1 1.28 1.31.75.75 0 0 0 1.5 0 1.32 1.32 0 0 1 2.63 0 .75.75 0 0 0 1.5 0 1.33 1.33 0 0 1 1.37-1.31 1.18 1.18 0 0 1 .92.34 1.19 1.19 0 0 1 .33 1A6.76 6.76 0 0 1 14 6.53a7.57 7.57 0 0 0-8.77 0 6.82 6.82 0 0 1-1-2.77 1.15 1.15 0 0 1 .3-.91zm11.22 17.81a1 1 0 0 1-1.94 0 .75.75 0 0 0-1.5 0 1 1 0 1 1-1.93 0 .75.75 0 0 0-1.5 0 1 1 0 1 1-1.94 0 .75.75 0 0 0-1.5 0 1 1 0 0 1-1.94 0v-7.9a6.13 6.13 0 1 1 12.25 0zm3.88-7.12l-2.38 1.36v-2.38zm-.63 6.6a1.89 1.89 0 0 1-1.75-.14v-3.37l.89-.51A4 4 0 0 1 19.88 19a1.27 1.27 0 0 1-.88 1.14z" /></symbol><symbol viewBox="0 0 24 24" id="cat-mall"><path fill-rule="evenodd" d="M12.004 2c1.974 0 3.255 1.982 4.056 4.022h4.829c.611 0 1.111.48 1.111 1.065v13.848C22 21.52 21.5 22 20.889 22H3.11C2.5 22 2 21.52 2 20.935V7.087c0-.586.5-1.065 1.111-1.065h4.766C8.727 4 10.056 2 12.004 2zM7.291 7.62H3.667v12.782h16.666V7.62h-3.73c.328 1.14.508 2.126.58 2.56.07.435-.24.844-.695.914a.901.901 0 0 1-.13.01.824.824 0 0 1-.822-.676 19.961 19.961 0 0 0-.68-2.808H9.034c-.323.937-.58 1.914-.744 2.782-.082.435-.518.718-.968.645-.453-.08-.754-.495-.672-.928.052-.28.258-1.287.641-2.5zm4.725 3.206c.165 0 .36.099.428.296l.818 2.036 2.2.164c.393.033.59.559.262.822l-1.74 1.413.526 2.135a.455.455 0 0 1-.426.59c-.066 0-.165 0-.23-.065l-1.87-1.15-1.87 1.15a.48.48 0 0 1-.23.065.456.456 0 0 1-.427-.59l.525-2.135-1.705-1.413c-.328-.296-.131-.822.263-.822l2.197-.164.853-2.036a.452.452 0 0 1 .426-.296zm-.012-7.228c-.854 0-1.663 1.035-2.323 2.424h4.57c-.622-1.39-1.4-2.424-2.247-2.424z" /></symbol><symbol viewBox="0 0 24 24" id="cat-men-clothing"><defs><path id="cat-men-clothing_a" d="M3.463 6.433c0-.058.041-.113.107-.143l2.54-1.2 2.689 4.476a.67.67 0 0 0 .275.248l1.145 1.713-.87 5.938a.604.604 0 0 0 .219.548l1.925 1.627c.136.115.316.18.508.18.19 0 .37-.065.506-.18l1.926-1.626a.605.605 0 0 0 .218-.548l-.87-5.94 1.142-1.713a.681.681 0 0 0 .278-.246l2.69-4.477 2.54 1.2c.065.03.106.085.106.143v14.11c0 .091-.104.169-.227.169H3.69c-.123 0-.228-.078-.228-.17V6.432zM12 5.314L9.659 3.288h4.682L12 5.314zM7.93 3.598l3.103 2.686L9.547 8.06 7.286 4.292l.062-.067.584-.627zm8.783.694l-2.26 3.768-1.486-1.775 3.102-2.686.583.627.062.067zM12.375 12l.778 5.309-1.152.975-1.154-.975.779-5.309h.75zm-1.001-1.286l-.926-1.386 1.553-1.978 1.55 1.978-.925 1.386h-1.252zm9.749-5.56l-3.06-1.444-1.073-1.156-.295-.317-.001-.001-.011-.007a.716.716 0 0 0-.233-.16c-.035-.015-.073-.017-.11-.027-.055-.015-.11-.037-.169-.04-.008-.001-.014.003-.021.003-.008-.001-.015-.005-.023-.005H7.872c-.006 0-.012.004-.018.004-.007 0-.013-.004-.02-.003-.06.003-.114.026-.17.04-.038.011-.078.012-.113.028a.721.721 0 0 0-.246.168L5.935 3.71 2.877 5.154C2.336 5.411 2 5.901 2 6.433v14.11C2 21.344 2.759 22 3.691 22H20.31c.931 0 1.69-.655 1.69-1.458V6.432c0-.531-.336-1.021-.877-1.278z" /></defs><use fill-rule="evenodd" xlink:href="#cat-men-clothing_a" /></symbol><symbol viewBox="0 0 24 24" id="cat-men-shoes"><defs><path id="cat-men-shoes_a" d="M2.134 15.453H5.79c.022 0 .497 0 1.169.116v.612H2.134v-.729zm3.64-1.404h-3.7c-.13-2.072.349-3.887.613-4.704.978.511 3.162 1.56 4.675 1.6l.063.002c1.569 0 3.169-1.557 3.863-2.327l.847.918-1.217 1.432c-.216.256-.237.7-.047.991.184.28.533.31.74.063l1.349-1.592.768.833-.746.88a.794.794 0 0 0-.178.484.842.842 0 0 0 .13.505c.18.28.53.309.738.064l.88-1.037 2.084 2.261c.088.095.198.15.3.154.02.005.83.037 1.939.037.619 0 1.22-.011 1.784-.031h.03c.515 0 .868.425 1.055.732-1.48.54-5.292 1.282-7.991 1.282-1.95 0-2.49-.38-2.61-.495v-.002c-2.05-1.994-5.02-2.05-5.367-2.05zm7.94-4.601c.165-.033.334.044.462.2a.91.91 0 0 1 .193.508l-.654-.709zm9.269 6.028c-.114-.676-.934-2.298-2.29-2.298l-.062.002a52.709 52.709 0 0 1-3.475.002l-1.877-2.04c.289-.867.13-1.89-.401-2.535-.405-.492-.97-.676-1.494-.503-.1-.627-.314-1.413-.785-1.938-.11-.12-.246-.185-.384-.16a.486.486 0 0 0-.352.248c-.186.298-.157.74.066.989.125.14.228.341.309.6l-.632-.686c-.202-.218-.501-.202-.691.037-.018.024-1.872 2.349-3.49 2.349h-.042c-1.656-.046-4.437-1.564-4.752-1.74-.246-.14-.527-.008-.658.298-.053.123-1.307 3.079-.887 6.707v2.078c0 .386.235.7.524.7h5.874c.289 0 .524-.314.524-.7v-1.071c1.022.31 1.869.789 2.519 1.421.527.514 1.583.764 3.225.764 3.147 0 7.852-.954 8.939-1.64.197-.127.364-.45.292-.883z" /></defs><use fill-rule="evenodd" xlink:href="#cat-men-shoes_a" /></symbol><symbol viewBox="0 0 24 24" id="cat-mobile"><path d="M17.89 2.1A3.63 3.63 0 0 0 15.28 1H8.7A3.73 3.73 0 0 0 5 4.75v14.48A3.73 3.73 0 0 0 8.7 23h6.55A3.73 3.73 0 0 0 19 19.23V4.75a3.68 3.68 0 0 0-1.11-2.65zm-9.19.44h6.55a2.2 2.2 0 0 1 2.08 1.51H6.65A2.14 2.14 0 0 1 8.7 2.54zM6.52 5.3h10.91V18H6.52zm10.3 15.49a2.14 2.14 0 0 1-1.54.65H8.7a2.2 2.2 0 0 1-2.18-2.16h10.91a2.18 2.18 0 0 1-.61 1.51z" /></symbol><symbol viewBox="0 0 24 24" id="cat-mobile-accessories"><path d="M6.59 2h-1.3A3.19 3.19 0 0 0 2 5.07v2.2a3.19 3.19 0 0 0 3.29 3.06h1.6v5.77a2 2 0 0 0 1.33 1.83V22a.72.72 0 0 0 1.43 0v-4.07A2 2 0 0 0 11 16.1v-10A4.29 4.29 0 0 0 6.59 2zM4.92 9a1.75 1.75 0 0 1-1.51-1.72V5.07A1.75 1.75 0 0 1 4.92 3.4zm4.59 7.31a.62.62 0 0 1-.61.44.6.6 0 0 1-.62-.58v-5.9A1.31 1.31 0 0 0 6.92 9h-.57V3.37h.22a2.83 2.83 0 0 1 2.94 2.7zM18.22 2h-1.3a4.23 4.23 0 0 0-4.37 4.07v10.05A2 2 0 0 0 13.89 18v4a.72.72 0 0 0 1.43 0v-4a2 2 0 0 0 1.34-1.83v-5.82h1.6a3.19 3.19 0 0 0 3.29-3.07V5.06A3.24 3.24 0 0 0 18.22 2zm-1.1 7h-.57a1.32 1.32 0 0 0-1.34 1.29v5.85a.62.62 0 0 1-1.24 0v-10a2.82 2.82 0 0 1 2.93-2.7h.22zm3-1.7A1.75 1.75 0 0 1 18.59 9V3.4a1.75 1.75 0 0 1 1.51 1.67z" /></symbol><symbol viewBox="0 0 24 24" id="cat-musical-instrument"><defs><path id="cat-musical-instrument_a" d="M7.972 13.339c-1.446 0-2.66 1.164-2.66 2.607v.047c0 1.443 1.167 2.607 2.66 2.607a2.577 2.577 0 0 0 2.612-2.607v-.047a2.606 2.606 0 0 0-2.612-2.607zm14.742-9.173c.374.373.374.931-.046 1.304-.233.186-.793.559-1.353 0l-.747-.745-.933.931.747.745a.899.899 0 0 1 0 1.304c-.187.186-.653.512-1.306 0l-.747-.745-2.426 2.421a6.802 6.802 0 0 1 1.4 3.073c.233 1.443-.14 2.747-1.027 3.632a3.344 3.344 0 0 1-1.68.93c.234 1.77-.186 3.4-1.306 4.517-.98.978-2.192 1.444-3.639 1.444-2.052 0-4.245-.978-5.925-2.7-2.985-2.98-3.592-7.264-1.306-9.5.887-.884 2.146-1.396 3.592-1.396.327 0 .607 0 .934.047a4.22 4.22 0 0 1 .933-1.677c.7-.698 1.68-1.117 2.845-1.117 1.353 0 2.753.512 3.92 1.443l2.425-2.42-.84-.839a.899.899 0 0 1 0-1.304.903.903 0 0 1 1.307 0l.84.838.933-.93-.793-.839a.899.899 0 0 1 0-1.304.903.903 0 0 1 1.306 0l2.892 2.887zM7.972 16.784a.835.835 0 0 1-.84-.838c0-.466.373-.838.84-.838.466 0 .84.372.84.838a.835.835 0 0 1-.84.838zm6.998-2.002c.466-.466.653-1.21.513-2.049-.14-.977-.7-1.955-1.493-2.747-.98-.978-2.193-1.536-3.266-1.536-.42 0-1.073.093-1.54.558-.466.466-.559 1.071-.559 1.49 0 .28-.14.56-.373.699a.816.816 0 0 1-.793.14c-.513-.094-1.027-.187-1.447-.187-.653 0-1.586.14-2.286.838-1.54 1.537-.98 4.656 1.307 6.938 1.353 1.35 3.079 2.142 4.665 2.142.653 0 1.586-.14 2.286-.838.84-.839 1.073-2.189.653-3.725a.812.812 0 0 1 .14-.792c.187-.233.42-.372.7-.372.42 0 1.026-.093 1.493-.559z" /></defs><use xlink:href="#cat-musical-instrument_a" /></symbol><symbol viewBox="0 0 24 24" id="cat-othercategories"><defs><path id="cat-othercategories_a" d="M12 2c5.523 0 10 4.477 10 10s-4.477 10-10 10S2 17.523 2 12 6.477 2 12 2zm3.748 8.75a1.25 1.25 0 1 1 .005 2.5 1.25 1.25 0 0 1-.005-2.5zm-3.75 0a1.25 1.25 0 1 1 .005 2.5 1.25 1.25 0 0 1-.005-2.5zm-3.748 0a1.25 1.25 0 1 1 .001 2.499 1.25 1.25 0 0 1-.001-2.499zM12 20.438a8.437 8.437 0 1 0 0-16.875 8.437 8.437 0 1 0 0 16.875z" /></defs><use xlink:href="#cat-othercategories_a" /></symbol><symbol viewBox="0 0 24 24" id="cat-pet-supplies"><path d="M10.11 9.59a1.09 1.09 0 1 0 1.06 1.09 1.07 1.07 0 0 0-1.06-1.09zm4.07 0a1.09 1.09 0 1 0 1.06 1.09 1.08 1.08 0 0 0-1.06-1.09z" /><path d="M21.45 7.64a12.8 12.8 0 0 0-2.16-2.74 3.4 3.4 0 0 0-3.09-1.08 2.25 2.25 0 0 0-.58.22 5.65 5.65 0 0 0-3.47-1A5.65 5.65 0 0 0 8.68 4a2.25 2.25 0 0 0-.58-.22A3.4 3.4 0 0 0 5 4.9a12.5 12.5 0 0 0-2.15 2.74c-.89 1.54-1.08 2.8-.57 3.73a2.73 2.73 0 0 0 2.15 1.49 10 10 0 0 0-.25 2.29A6 6 0 0 0 5 18.43a5.16 5.16 0 0 0 2.11 1.88 11.37 11.37 0 0 0 5 .93 11.37 11.37 0 0 0 5-.93 5.22 5.22 0 0 0 2.11-1.88 6 6 0 0 0 .85-3.28 10 10 0 0 0-.25-2.29A2.73 2.73 0 0 0 22 11.37c.53-.93.34-2.19-.55-3.73zM5.13 10.69c-.09.22-.16.44-.24.65a1.35 1.35 0 0 1-1.28-.72c-.22-.4 0-1.22.55-2.19A10.82 10.82 0 0 1 6 6.07a2.53 2.53 0 0 1 1.39-.75 13.55 13.55 0 0 0-1.75 3.8c-.16.6-.35 1.11-.51 1.57zm7 5.27a1.43 1.43 0 0 1-.69-.44 1.42 1.42 0 0 1-.44-.74 3.6 3.6 0 0 1 1.1-.12 3.63 3.63 0 0 1 1.1.12v.06a1.49 1.49 0 0 1-.44.74 1.43 1.43 0 0 1-.61.42zm4.33 2.95a8.69 8.69 0 0 1-3.57.76v-2.32a3.65 3.65 0 0 0 1-.73 2.89 2.89 0 0 0 .88-1.84 1.55 1.55 0 0 0-1-1.5 4.28 4.28 0 0 0-1.7-.24 4.28 4.28 0 0 0-1.7.24 1.56 1.56 0 0 0-1 1.5 2.9 2.9 0 0 0 .89 1.84 3.65 3.65 0 0 0 1 .73v2.32a8.69 8.69 0 0 1-3.57-.76 3.8 3.8 0 0 1-1.99-3.76 10.26 10.26 0 0 1 .85-3.92q.27-.71.57-1.62c1.06-3.27 2.18-5 5-5s4 1.78 5 5.05q.3.92.57 1.62a10.25 10.25 0 0 1 .84 3.92 3.81 3.81 0 0 1-2.05 3.71zm4.21-8.29a1.36 1.36 0 0 1-1.28.72l-.24-.65c-.16-.46-.35-1-.54-1.57a13.55 13.55 0 0 0-1.75-3.8 2.53 2.53 0 0 1 1.39.75 11.07 11.07 0 0 1 1.87 2.36c.58.97.78 1.79.57 2.19z" /></symbol><symbol viewBox="0 0 24 24" id="cat-printers"><circle cx="9" cy="18.69" r=".92" /><path d="M14.62 7.12h-5a.63.63 0 0 0 0 1.26h5a.63.63 0 1 0 0-1.26zm-5-1.24h3.13a.63.63 0 1 0 0-1.26H9.62a.63.63 0 0 0 0 1.26z" /><circle cx="15.25" cy="18.69" r=".92" /><path d="M12.13 17.77a.92.92 0 1 0 .91.92.92.92 0 0 0-.91-.92z" /><path d="M21.5 12H21v-.5a2 2 0 0 0-2-2h-.5V3.38A1.38 1.38 0 0 0 17.13 2h-10a1.38 1.38 0 0 0-1 .4 1.42 1.42 0 0 0-.4 1v6.1h-.5a2 2 0 0 0-2 2v.5h-.5a.75.75 0 0 0 0 1.5h.5v.5a2 2 0 0 0 2 2c-.2.51-.42 1.1-.68 1.82l-.64 1.73a2 2 0 0 0 1.87 2.7h12.67a2 2 0 0 0 1.87-2.7l-.64-1.73c-.26-.71-.48-1.31-.68-1.82a2 2 0 0 0 2-2v-.5h.5a.75.75 0 0 0 0-1.5zM7.25 3.5H17v6H7.25zm11.61 17a.49.49 0 0 1-.41.22H5.8a.49.49 0 0 1-.41-.22.51.51 0 0 1-.06-.45L6 18.34c.44-1.21.79-2.16 1-2.78a2.69 2.69 0 0 1 .4-.76h2.21a2.63 2.63 0 0 0 5 0h2.15a19.14 19.14 0 0 1 1.49 3.59l.64 1.74a.51.51 0 0 1-.03.4zm.64-6.5a.5.5 0 0 1-.5.5h-.62c-.53-1.08-.92-1.25-1.77-1.25H14a.76.76 0 0 0-.75.75A1.13 1.13 0 0 1 11 14a.76.76 0 0 0-.75-.75H7.64c-.85 0-1.24.17-1.77 1.25h-.62a.5.5 0 0 1-.5-.5v-2.5a.5.5 0 0 1 .5-.5H19a.5.5 0 0 1 .5.5z" /></symbol><symbol viewBox="0 0 24 24" id="cat-safety"><path d="M8.46 16.26a.7.7 0 0 1 .47.89 2.54 2.54 0 0 0 0 .39v1.26a.94.94 0 0 0 .25.72.7.7 0 0 0 .49.19.72.72 0 0 0 .52-.2.91.91 0 0 0 .24-.7v-1.9c0-.38 0-.43.29-.55A2.24 2.24 0 0 0 12 13.83 2.32 2.32 0 0 0 9.77 12H9.7a2.34 2.34 0 0 0-2.24 1.63 2.21 2.21 0 0 0 1 2.63zm.3-2.64a1.4 1.4 0 0 1 1-.38 1.19 1.19 0 0 1 1.18 1.13 1.12 1.12 0 0 1-.36.79 1.26 1.26 0 0 1-.88.38 1.24 1.24 0 0 1-1.23-1.16 1.06 1.06 0 0 1 .29-.76zM17 8a1.14 1.14 0 1 0 1.51.45A1.12 1.12 0 0 0 17 8zm4.79-1.5a5.21 5.21 0 0 0-3-2.41.52.52 0 0 0-.65.38.59.59 0 0 0 .07.43.63.63 0 0 0 .33.27A4.07 4.07 0 0 1 21.31 10a.59.59 0 0 0 .4.69.51.51 0 0 0 .66-.38 5.18 5.18 0 0 0-.58-3.81z" /><path d="M18.33 6.06a.51.51 0 0 0-.65.38.58.58 0 0 0 .4.69 1.93 1.93 0 0 1 1.3 2.27.61.61 0 0 0 .07.42.59.59 0 0 0 .33.27.51.51 0 0 0 .66-.38 3.12 3.12 0 0 0-2.11-3.65zm-3.55 3.32h-7.7V6.65A2.66 2.66 0 0 1 9.36 4a2.59 2.59 0 0 1 2.88 2.1 5.73 5.73 0 0 1 .08 1v.8a.18.18 0 0 0 .18.18h1.4a.19.19 0 0 0 .19-.17v-.24A5 5 0 0 0 13 3.47 4.46 4.46 0 0 0 9.5 2a4.58 4.58 0 0 0-4.3 4.36v3.03h-.64A1.41 1.41 0 0 0 3 10.94v9.15a1.39 1.39 0 0 0 1.55 1.54h10.23A1.46 1.46 0 0 0 16.42 20v-9a1.49 1.49 0 0 0-1.64-1.62zm0 10.79h-10c-.29 0-.33 0-.33-.3v-8.93h10.3z" /></symbol><symbol viewBox="0 0 20 20" id="cat-sale"><path d="M3.78,18.13a1.3,1.3,0,0,1-1.31-.9l-1.62-6A1.39,1.39,0,0,1,2,9.59l13.81-3.7A1.62,1.62,0,0,1,16.84,6a1.18,1.18,0,0,1,.69.76l1.62,6a1.2,1.2,0,0,1-.21,1,1.66,1.66,0,0,1-.9.6L4.23,18.07A1.74,1.74,0,0,1,3.78,18.13ZM16.22,6.58a1.15,1.15,0,0,0-.26,0L2.15,10.31h0c-.38.1-.65.43-.58.69l1.62,6c.07.27.47.41.85.31l13.81-3.7a.94.94,0,0,0,.49-.32.47.47,0,0,0,.09-.37l-1.62-6a.45.45,0,0,0-.26-.28A.92.92,0,0,0,16.22,6.58ZM2.06,10Z" /><path d="M7.63,4.26A1.27,1.27,0,1,1,8.9,3,1.27,1.27,0,0,1,7.63,4.26Zm0-1.79A.52.52,0,0,0,7.1,3,.53.53,0,1,0,8.15,3,.52.52,0,0,0,7.63,2.47Z" /><path d="M4.48,15.32A.36.36,0,0,1,4.12,15a.37.37,0,0,1,.3-.43l.65-.11c.66-.12.93-.37.91-.51s-.32-.4-.94-.35c-.9.07-1.65-.35-1.73-1-.07-.5.3-1.12,1.52-1.34l.65-.11a.36.36,0,0,1,.43.3.37.37,0,0,1-.3.43L5,12c-.66.11-.93.37-.91.51s.32.4.93.34c.91-.07,1.66.36,1.74,1S6.42,15,5.2,15.2l-.65.12Zm3.3-.81a.37.37,0,0,1-.38-.37v-.55a.49.49,0,0,1,0-.17V10.85a.38.38,0,0,1,.35-.37l.41-.12a.39.39,0,0,1,.43.18l1.28,2.22a.29.29,0,0,1,.08.14l.28.48a.37.37,0,0,1-.14.51.38.38,0,0,1-.51-.13l-.17-.31-1.26.34v.35a.38.38,0,0,1-.37.37Zm.37-3.25V13L9,12.78Zm3.13,2.31a.37.37,0,0,1-.36-.27v0l-.81-3a.37.37,0,0,1,.26-.46.38.38,0,0,1,.46.27l.72,2.7,1.32-.35a.39.39,0,0,1,.46.26.38.38,0,0,1-.27.46l-1.67.45h-.1Zm3.09-.82h0a.36.36,0,0,1-.36-.28h0L13.6,11h0l-.4-1.51v0A.37.37,0,0,1,13.38,9l.07,0h0l1.67-.44a.36.36,0,0,1,.45.26.37.37,0,0,1-.26.46L14,9.57l.22.81,1-.25a.37.37,0,0,1,.46.26.39.39,0,0,1-.26.46l-1,.25.22.82L16,11.56a.37.37,0,0,1,.45.27.36.36,0,0,1-.26.45l-1.67.45h0ZM3.7,9.71a.38.38,0,0,1-.32-.56L6.54,3.68a.37.37,0,0,1,.65.37L4,9.52A.39.39,0,0,1,3.7,9.71ZM13.91,7a.34.34,0,0,1-.19,0L8.25,3.76a.37.37,0,0,1-.14-.51.39.39,0,0,1,.51-.13L14.1,6.28a.36.36,0,0,1,.13.51A.35.35,0,0,1,13.91,7Z" /></symbol><symbol viewBox="0 0 24 24" id="cat-services"><defs><path id="cat-services_a" d="M19.377 9.54l-1.845 1.798-1.845 1.798.87 5.08-4.56-2.398-4.557 2.397.87-5.08-1.843-1.797L4.623 9.54 9.72 8.8l2.277-4.62L14.28 8.8l5.097.74zm.339-3.9A9.982 9.982 0 0 0 12 2a9.983 9.983 0 0 0-7.717 3.64A9.954 9.954 0 0 0 2 11.997c0 2.07.63 3.994 1.708 5.59.54.798 1.19 1.515 1.932 2.127A9.956 9.956 0 0 0 12 22c2.415 0 4.63-.858 6.359-2.285a10.078 10.078 0 0 0 1.931-2.127 9.952 9.952 0 0 0 1.71-5.59 9.96 9.96 0 0 0-2.284-6.359z" /></defs><use fill-rule="evenodd" xlink:href="#cat-services_a" /></symbol><symbol viewBox="0 0 24 24" id="cat-sunglasses"><defs><path id="cat-sunglasses_a" d="M7.734 18.278l1.909-4.075c.078.033.157.06.233.095l.003.146c0 1.813-.908 3.33-2.145 3.834zm-1.629.051c-1.302-.45-2.27-2.013-2.27-3.885a3.5 3.5 0 0 1 .004-.144 6.996 6.996 0 0 1 4.407-.538l-2.14 4.567zm11.911-.051l1.91-4.075c.077.033.156.06.233.095l.003.146c0 1.813-.909 3.33-2.146 3.834zm-1.628.051c-1.301-.45-2.27-2.013-2.27-3.885l.002-.144a7.002 7.002 0 0 1 4.41-.538l-2.142 4.567zm6.593-3.56l-1.859-8.42A2.766 2.766 0 0 0 20.1 4.541a2.439 2.439 0 0 0-1.92-.509.71.71 0 0 0-.471.302.807.807 0 0 0-.132.57c.03.202.13.38.286.502.154.12.342.167.53.137.306-.048.608.032.854.23.25.2.416.502.47.865l1.422 6.462a8.444 8.444 0 0 0-7.86-.063 2.404 2.404 0 0 0-1.28-.355c-.486 0-.923.135-1.278.355a8.447 8.447 0 0 0-7.86.063l1.436-6.524a1.24 1.24 0 0 1 .458-.808c.248-.195.553-.272.851-.226a.67.67 0 0 0 .534-.139.767.767 0 0 0 .285-.501c.059-.419-.212-.808-.602-.87a2.47 2.47 0 0 0-1.932.511 2.7 2.7 0 0 0-1.003 1.744l-1.87 8.486a.82.82 0 0 0 .138.648.701.701 0 0 0 .562.288h.812c.42 2.235 1.922 3.931 3.778 4.222.063.018.122.046.188.046.027 0 .053-.009.078-.013.097.008.187.036.285.036 1.196 0 2.32-.584 3.162-1.645.829-1.041 1.286-2.422 1.29-3.886.025-.059.244-.257.688-.257.448 0 .666.2.686.232 0 2.83 1.71 5.143 3.905 5.487.063.018.122.046.188.046.027 0 .052-.009.079-.013.095.008.187.036.284.036 1.197 0 2.32-.584 3.163-1.645.589-.74.98-1.655 1.164-2.646h.814a.71.71 0 0 0 .565-.29.807.807 0 0 0 .135-.65z" /></defs><use fill-rule="evenodd" xlink:href="#cat-sunglasses_a" /></symbol><symbol viewBox="0 0 24 24" id="cat-tablet"><defs><path id="cat-tablet_a" d="M18.566 1C19.908 1 21 2.025 21 3.285v17.43C21 21.975 19.908 23 18.566 23H5.433C4.091 23 3 21.975 3 20.715V3.285C3 2.025 4.091 1 5.433 1h13.133zM4.608 17.834v2.881c0 .428.37.775.825.775h13.133c.455 0 .825-.347.825-.775v-2.881H4.608zM11.998 19a1 1 0 1 1 .005 1.999A1 1 0 0 1 11.998 19zm7.393-2.676V3.285c0-.428-.37-.775-.825-.775H5.433c-.455 0-.825.347-.825.775v13.039h14.783z" /></defs><use fill-rule="evenodd" xlink:href="#cat-tablet_a" /></symbol><symbol viewBox="0 0 24 24" id="cat-temptations"><defs><path id="cat-temptations_a" d="M20.88 8.569A9.802 9.802 0 0 1 22 13.113C22 18.565 17.514 23 12 23S2 18.565 2 13.113c0-1.557.377-3.103 1.092-4.487-2.604-3.658.343-7.308.374-7.344a.795.795 0 0 1 .875-.235.785.785 0 0 1 .523.736c0 1.506 1.52 2.425 2.174 2.75 3.006-1.704 6.878-1.713 9.892-.018.643-.327 2.136-1.244 2.136-2.732 0-.328.21-.624.522-.736a.797.797 0 0 1 .878.236c.032.039 2.946 3.65.415 7.286zM12 21.436c4.641 0 8.418-3.734 8.418-8.323S16.64 4.79 12 4.79c-4.641 0-8.418 3.734-8.418 8.323S7.36 21.436 12 21.436zM8.502 12.54a1.22 1.22 0 1 1 0-2.438 1.22 1.22 0 0 1 0 2.438zm7.31-2.437a1.22 1.22 0 1 1 0 2.438 1.22 1.22 0 0 1 0-2.438zm.77 4.96c.401.2.563.688.363 1.09a5.353 5.353 0 0 1-9.576 0 .813.813 0 0 1 1.453-.727 3.728 3.728 0 0 0 6.67 0 .813.813 0 0 1 1.09-.363zM3.852 3.803c-.326.92-.456 2.105.181 3.343a10.04 10.04 0 0 1 1.568-1.624c-.608-.39-1.284-.953-1.75-1.719zm16.226 0c-.457.75-1.116 1.307-1.71 1.694a10 10 0 0 1 1.557 1.595c.606-1.22.474-2.385.153-3.289z" /></defs><use fill-rule="evenodd" xlink:href="#cat-temptations_a" /></symbol><symbol viewBox="0 0 24 24" id="cat-toys"><defs><path id="cat-toys_a" d="M21.23 11.25h-1.538v-1.5a.76.76 0 0 0-.769-.75h-2.308a.76.76 0 0 0-.769.75v1.5H12.77V6a.76.76 0 0 0-.77-.75H4.308a.76.76 0 0 0-.77.75v9.75H2.77a.76.76 0 0 0-.77.75c0 .414.345.75.77.75h.768V18c0 .414.345.75.77.75h.87C5.521 20.041 6.723 21 8.154 21c1.43 0 2.633-.959 2.976-2.25h3.28c.342 1.291 1.544 2.25 2.975 2.25 1.434 0 2.638-.963 2.978-2.26.032.004.065.01.099.01h.769A.76.76 0 0 0 22 18v-6a.76.76 0 0 0-.77-.75zM8.155 19.5c-.849 0-1.539-.673-1.539-1.5s.69-1.5 1.539-1.5c.848 0 1.538.673 1.538 1.5s-.69 1.5-1.538 1.5zm9.23 0c-.848 0-1.538-.673-1.538-1.5s.69-1.5 1.539-1.5c.848 0 1.538.673 1.538 1.5s-.69 1.5-1.538 1.5zm3.078-2.25c-.034 0-.067.006-.1.01-.339-1.297-1.543-2.26-2.977-2.26-1.431 0-2.633.959-2.976 2.25h-3.28C10.788 15.959 9.586 15 8.155 15c-1.43 0-2.633.959-2.976 2.25h-.101V6.75h6.154V12c0 .414.344.75.769.75h4.615a.76.76 0 0 0 .77-.75v-1.5h.769V12c0 .414.344.75.77.75h1.538v4.5zM9.692 7.5H6.615a.76.76 0 0 0-.769.75v3c0 .414.345.75.77.75h3.076a.76.76 0 0 0 .77-.75v-3a.76.76 0 0 0-.77-.75zm-.769 3H7.385V9h1.538v1.5zM3.538 3h9.231a.76.76 0 0 1 .77.75.76.76 0 0 1-.77.75H3.54a.76.76 0 0 1-.77-.75.76.76 0 0 1 .77-.75z" /></defs><use xlink:href="#cat-toys_a" /></symbol><symbol viewBox="0 0 24 24" id="cat-tv"><defs><path id="cat-tv_a" d="M3.585 20.464h16.829V8.336H3.585v12.128zM21.207 6.8c.437 0 .793.344.793.768v13.663a.781.781 0 0 1-.793.768H2.793A.78.78 0 0 1 2 21.232V7.569a.78.78 0 0 1 .793-.768h8.284L7.474 3.31a.75.75 0 0 1 0-1.086.81.81 0 0 1 1.12 0L12 5.522l3.406-3.297a.81.81 0 0 1 1.12 0c.31.3.31.786 0 1.086L12.923 6.8h8.284zm-8.908 11.36a3.866 3.866 0 0 1-3.862-3.862 3.867 3.867 0 0 1 3.862-3.863 3.867 3.867 0 0 1 3.862 3.863 3.866 3.866 0 0 1-3.862 3.862zm0-9.161A5.305 5.305 0 0 0 7 14.299a5.305 5.305 0 0 0 5.299 5.299 5.305 5.305 0 0 0 5.299-5.299A5.305 5.305 0 0 0 12.299 9zm-.624 6.914l2.56-1.548a.44.44 0 0 0-.01-.753l-2.55-1.547a.443.443 0 0 0-.675.376v3.095c0 .348.378.555.675.377z" /></defs><use fill-rule="evenodd" xlink:href="#cat-tv_a" /></symbol><symbol viewBox="0 0 24 24" id="cat-watch"><path d="M12 17h.15a4.67 4.67 0 0 0 3.15-1.25A5.37 5.37 0 0 0 17 12a5.08 5.08 0 0 0-5-5h-.1A5.06 5.06 0 0 0 7 12a5.08 5.08 0 0 0 5 5zm0-8.52a3.22 3.22 0 0 1 2.27.86A3.82 3.82 0 0 1 15.5 12a3.55 3.55 0 0 1-3.5 3.51 3.52 3.52 0 0 1 0-7z" /><path d="M11.5 13.51h2a.63.63 0 0 0 .62-.63v-.21a.62.62 0 0 0-.62-.62h-1.18v-1.54a.62.62 0 0 0-.18-.44.59.59 0 0 0-.44-.18h-.2a.62.62 0 0 0-.62.62v2.37a.63.63 0 0 0 .62.63z" /><path d="M19.3 4H18l-.88-2.49a.71.71 0 0 0-.66-.51H7.54a.71.71 0 0 0-.67.49L6 4H4.7a.69.69 0 0 0-.7.69v14.64a.69.69 0 0 0 .7.69H6l.88 2.49a.71.71 0 0 0 .67.49h8.92a.71.71 0 0 0 .67-.49L18 20h1.3a.69.69 0 0 0 .7-.69V4.67a.69.69 0 0 0-.7-.67zM8.22 2.63h7.56L16.26 4H7.74zm7.56 18.74H8.22L7.74 20h8.52zm2.56-3H5.66V5.61h12.68z" /></symbol><symbol viewBox="0 0 24 24" id="cat-women-bag"><defs><path id="cat-women-bag_a" d="M3.709 20.34l.336-7.264c1.507 1.543 4.07 2.603 7.09 2.772v.109c0 .469.383.852.849.852.467 0 .807-.383.849-.81v-.153c3.008-.168 5.563-1.221 7.092-2.754l.335 7.249H3.709zm8.275-16.68c3.774 0 6.84 2.18 7.104 4.937H4.838C5.105 5.84 8.211 3.66 11.984 3.66zm0 9.618a.852.852 0 0 0-.848.85v.053c-3.55-.242-6.435-1.901-6.794-3.925h15.37c-.362 2.04-3.29 3.712-6.88 3.933v-.06a.852.852 0 0 0-.848-.851zm9.464-3.873a.882.882 0 0 0-.66-.783C20.552 4.956 16.712 2 11.985 2 7.247 2 3.4 4.969 3.14 8.645c-.334.113-.577.42-.577.759L2.01 21.15c-.042.212.043.424.213.595.169.17.38.255.593.255H21.15c.425 0 .807-.383.849-.765v-.171l-.552-11.66z" /></defs><use fill-rule="evenodd" xlink:href="#cat-women-bag_a" /></symbol><symbol viewBox="0 0 24 24" id="cat-women-clothing"><defs><path id="cat-women-clothing_a" d="M17.183 20.255H6.813v-4.723c0-1.371.638-2.63 1.717-3.518a.886.886 0 0 0 .33-.142c.883-.681 2-1.021 3.162-1.021s2.232.383 3.16 1.02a.56.56 0 0 0 .173.1c1.147.93 1.828 2.226 1.828 3.604v4.68zM9.133 5.561a.967.967 0 0 0 .145.014c.089 0 .173-.016.256-.037.851.03 1.557.608 1.557 1.313l.002.014-.002.029c0 .467.42.85.931.85.51 0 .929-.383.929-.85 0-.714.681-1.344 1.55-1.359a.99.99 0 0 0 .264.04c.037 0 .074-.007.111-.01.724.129 1.284.659 1.284 1.286 0 .062.008.124.022.182l-.906 2.882a7.483 7.483 0 0 0-3.207-.724 7.34 7.34 0 0 0-3.21.724l-.975-3.107c-.008-.026-.022-.05-.033-.075.067-.578.598-1.054 1.281-1.172zM16.855 11l1.164-3.765a.828.828 0 0 0-.057-.504c-.077-1.201-.996-2.235-2.268-2.636V2.851c0-.468-.419-.851-.93-.851-.51 0-.93.383-.93.85v1.125a3.58 3.58 0 0 0-1.825.889 3.74 3.74 0 0 0-1.802-.91V2.852c0-.468-.418-.851-.93-.851-.511 0-.93.383-.93.85v1.17c-1.378.385-2.37 1.497-2.37 2.83a.79.79 0 0 0 .171.49l1.093 3.536C5.811 12.093 5 13.761 5 15.575v5.573c0 .47.42.852.93.852h12.183c.51 0 .93-.383.883-.81v-5.574c0-1.771-.768-3.408-2.14-4.616z" /></defs><use fill-rule="evenodd" xlink:href="#cat-women-clothing_a" /></symbol><symbol viewBox="0 0 24 24" id="cat-women-shoes"><defs><path id="cat-women-shoes_a" d="M21.237 17.624a3.126 3.126 0 0 1-2.809 1.74H12.8c-.64 0-1.232-.318-1.587-.851l-3.638-5.47c1.743.467 2.956 1.62 4.13 2.75 1.324 1.275 2.575 2.479 4.451 2.479h.005a5.732 5.732 0 0 0 4.318-2.399c.058.026.114.059.172.086a1.223 1.223 0 0 1 .587 1.665M4.172 19.36c-.134.004-.323-.115-.349-.282l-1.041-6.26h2.231l-.515 6.23a.344.344 0 0 1-.326.312M3.913 5.03l1.611 1.612a4.143 4.143 0 0 0 5.078.626.544.544 0 0 1 .747.186l.243.405a20.316 20.316 0 0 0 7.41 7.247c-.712.891-1.77 1.464-2.89 1.53-1.174 0-2.102-.893-3.275-2.023-1.577-1.516-3.539-3.397-6.862-3.425l-.007-.002-.008.001c-.02 0-.04-.004-.059-.004H2.645c.094-3.608.806-5.375 1.268-6.154m18.924 11.09a2.874 2.874 0 0 0-1.511-1.65 18.708 18.708 0 0 1-8.332-7.452l-.244-.405a2.179 2.179 0 0 0-2.988-.747c-.994.6-2.262.442-3.082-.38L4.436 3.24a.812.812 0 0 0-1.03-.101C3.159 3.303 1 4.949 1 12c0 .023.01.042.013.064.002.024-.006.046-.002.07l1.2 7.215a1.982 1.982 0 0 0 2.025 1.645 1.98 1.98 0 0 0 1.89-1.806l.395-4.78 3.332 5.011a3.53 3.53 0 0 0 2.945 1.58h5.632a4.75 4.75 0 0 0 4.269-2.644 2.881 2.881 0 0 0 .138-2.236" /></defs><use fill-rule="evenodd" xlink:href="#cat-women-shoes_a" /></symbol><symbol viewBox="0 0 24 24" id="categories"><path d="M12 9.333h3.556c.488 0 .888-.4.888-.889 0-.488-.4-.888-.888-.888H12c-.489 0-.889.4-.889.888 0 .49.4.89.889.89zm0 3.556h3.556c.488 0 .888-.4.888-.889s-.4-.889-.888-.889H12c-.489 0-.889.4-.889.889s.4.889.889.889zm0 3.555h3.556c.488 0 .888-.4.888-.888 0-.49-.4-.89-.888-.89H12c-.489 0-.889.4-.889.89 0 .488.4.888.889.888zM7.556 7.556h1.777v1.777H7.556V7.556zm0 3.555h1.777v1.778H7.556V11.11zm0 3.556h1.777v1.777H7.556v-1.777zM19.11 4H4.89C4.4 4 4 4.4 4 4.889V19.11c0 .489.4.889.889.889H19.11c.489 0 .889-.4.889-.889V4.89C20 4.4 19.6 4 19.111 4zm-.889 14.222H5.778V5.778h12.444v12.444z" /></symbol><symbol viewBox="0 0 24 24" id="chat"><path d="M20 2a2 2 0 012 2v12a2 2 0 01-2 2H6l-4 4V4c0-1.1.9-2 2-2zm-1 2H5a1 1 0 00-1 1v13l2-2h13c.6 0 1-.5 1-1V5c0-.6-.5-1-1-1zM7.6 8.6a1.4 1.4 0 110 2.8 1.4 1.4 0 010-2.8zm4.4 0a1.4 1.4 0 110 2.8 1.4 1.4 0 010-2.8zm4.4 0a1.4 1.4 0 110 2.8 1.4 1.4 0 010-2.8z" /></symbol><symbol viewBox="0 0 24 24" id="check"><path d="M0 0h24v24H0z" fill="none" /><path d="M9 16.17L4.83 12l-1.42 1.41L9 19 21 7l-1.41-1.41z" /></symbol><symbol viewBox="0 0 24 24" id="check-verified"><path d="M8.5 10.7l-1 1.1 3.5 3.6 7.9-8-1.1-1.1-6.8 6.9-2.5-2.5zm9.9 1.3c0 3.5-2.9 6.4-6.4 6.4A6.4 6.4 0 0 1 5.6 12a6.4 6.4 0 0 1 8.2-6.2L15 4.6A8 8 0 0 0 4 12a8 8 0 0 0 8 8 8 8 0 0 0 8-8h-1.6z" /></symbol><symbol viewBox="0 0 24 24" id="close"><path d="M17.8 20L12 14.2 6.2 20 4 17.8 9.8 12 4 6.2 6.2 4 12 9.8 17.8 4 20 6.2 14.2 12l5.8 5.8z" /></symbol><symbol viewBox="0 0 24 20" id="coupon"><path d="M24 20H0v-7.468h1.2c1.32 0 2.4-1.14 2.4-2.532 0-1.392-1.08-2.532-2.4-2.532H0V0h24v20zM2.4 17.468h19.2V2.532H2.4v2.531C4.44 5.57 6 7.595 6 10a5.124 5.124 0 0 1-3.6 4.937v2.531zM16.8 3.671h2.4v2.532h-2.4V3.67zm0 5.063h2.4v2.532h-2.4V8.734zm0 5.063h2.4v2.532h-2.4v-2.532z" /></symbol><symbol viewBox="0 0 24 24" id="credit"><path d="M13.09 8.182H9.086l1.956-1.956L9.5 4.683l-4.59 4.59 4.59 4.59 1.542-1.543-1.956-1.956h4.006a2.73 2.73 0 0 1 2.727 2.727 2.73 2.73 0 0 1-2.727 2.727H8.727V18h4.364A4.914 4.914 0 0 0 18 13.09a4.914 4.914 0 0 0-4.91-4.908zM12 0C5.383 0 0 5.383 0 12s5.383 12 12 12 12-5.383 12-12S18.617 0 12 0zm0 21.818c-5.414 0-9.818-4.404-9.818-9.818S6.586 2.182 12 2.182 21.818 6.586 21.818 12 17.414 21.818 12 21.818z" /></symbol><symbol viewBox="0 0 24 24" id="delete"><path d="M6 19c0 1.1.9 2 2 2h8c1.1 0 2-.9 2-2V7H6v12zM19 4h-3.5l-1-1h-5l-1 1H5v2h14V4z" /><path d="M0 0h24v24H0z" fill="none" /></symbol><symbol viewBox="0 0 24 24" id="edit"><path d="M3 17.25V21h3.75L17.81 9.94l-3.75-3.75L3 17.25zM20.71 7.04a.996.996 0 0 0 0-1.41l-2.34-2.34a.996.996 0 0 0-1.41 0l-1.83 1.83 3.75 3.75 1.83-1.83z" /><path d="M0 0h24v24H0z" fill="none" /></symbol><symbol viewBox="0 0 24 24" id="email"><path d="M20 4H4c-1.1 0-1.99.9-1.99 2L2 18c0 1.1.9 2 2 2h16c1.1 0 2-.9 2-2V6c0-1.1-.9-2-2-2zm0 4l-8 5-8-5V6l8 5 8-5v2z" /><path d="M0 0h24v24H0z" fill="none" /></symbol><symbol viewBox="0 0 24 24" id="email-outline"><path d="M22 6a2 2 0 00-2-2H4a2 2 0 00-2 2v12c0 1.1.9 2 2 2h16a2 2 0 002-2V6zm-2 0l-8 5-8-5h16zm0 12H4V8l8 5 8-5v10z" /></symbol><symbol viewBox="0 0 24 24" id="error"><path fill="none" d="M0 0h24v24H0V0z" /><path d="M11 15h2v2h-2zm0-8h2v6h-2zm.99-5C6.47 2 2 6.48 2 12s4.47 10 9.99 10C17.52 22 22 17.52 22 12S17.52 2 11.99 2zM12 20c-4.42 0-8-3.58-8-8s3.58-8 8-8 8 3.58 8 8-3.58 8-8 8z" /></symbol><symbol viewBox="0 0 24 24" id="express"><path d="M3.44 7.28H11c.28 0 .48.16.44.35a.54.54 0 01-.55.37H3.32c-.32 0-.47-.17-.44-.37a.56.56 0 01.56-.35zM4 9.7h3.73c.28 0 .47.16.44.36a.56.56 0 01-.56.35H3.84c-.27 0-.47-.16-.43-.35A.54.54 0 014 9.7zm-1.43 2.56h6.62c.27 0 .47.15.43.35a.54.54 0 01-.56.39H2.44c-.27 0-.44-.2-.44-.39a.55.55 0 01.57-.35z" /><path d="M21.72 13.78c-.23-1.35-.48-2.68-.7-4-.1557-1.0395-1.0591-1.8017-2.11-1.78H15.3l.37-2.1c.11-.6-.27-.91-1.1-.91H4.8a.56.56 0 00-.57.37c0 .2.16.36.44.36h9.73c.54 0 .57.1.56.17l-1.54 8.73H3a.47.47 0 00-.46.38l-.45 2.59a.3.3 0 00.29.35h1.9a1.62 1.62 0 001.65 1.68 2.52 2.52 0 002.24-1.68h6.61a1.51 1.51 0 00.33 1 1.49 1.49 0 001.23.56 2.34 2.34 0 002.06-1.56h.9a1.87 1.87 0 001.35-.5 2.18 2.18 0 00.74-1.32l.33-1.9a1.62 1.62 0 000-.44zM7 18.48a1.52 1.52 0 01-1 .39 1.07 1.07 0 01-1-1.37 1.57 1.57 0 011.47-1.29 1 1 0 011 1.31 1.74 1.74 0 01-.47.96zm6-1.29H8.26a1.62 1.62 0 00-1.64-1.68 2.51 2.51 0 00-2.24 1.68H2.86l.32-1.82h10.1L13 17.19zm7.44-6.49c.16.9.32 1.8.47 2.71l-2.47-.51c-.19-.06-.21-.11-.18-.29l.34-1.91h1.84zm-3.11 7.68a1.33 1.33 0 01-.89.37 1 1 0 01-.76-.4 1 1 0 01-.19-.85 1.48 1.48 0 011.35-1.11c.5523 0 1 .4477 1 1v.13a1.49 1.49 0 01-.51.86zm3.37-2.28a1.24 1.24 0 01-.42.8 1.11 1.11 0 01-.81.27h-.94c0-.8466-.6834-1.5345-1.53-1.54a2.32 2.32 0 00-2.09 1.54h-1.2l1.49-8.42h3.61A1.52 1.52 0 0120.3 10h-1.9a.47.47 0 00-.43.37l-.4 2.27a.81.81 0 00.61 1l2.82.55-.3 1.91z" /></symbol><symbol viewBox="0 0 24 24" id="facebook"><path d="M19.305 2H4.695A2.695 2.695 0 0 0 2 4.695v14.61A2.695 2.695 0 0 0 4.695 22h7.206l.012-7.147h-1.857a.438.438 0 0 1-.438-.436l-.009-2.304c0-.243.196-.44.438-.44h1.854V9.447c0-2.583 1.577-3.99 3.882-3.99h1.89c.243 0 .439.196.439.438v1.943a.438.438 0 0 1-.438.438h-1.16c-1.254 0-1.496.596-1.496 1.47v1.927h2.753c.263 0 .466.23.435.49l-.273 2.304a.438.438 0 0 1-.435.386H15.03L15.018 22h4.287A2.695 2.695 0 0 0 22 19.305V4.695A2.695 2.695 0 0 0 19.305 2z" /></symbol><symbol viewBox="0 0 24 24" id="favorite-border"><defs><path id="favorite-border_a" d="M16.05 4A5.462 5.462 0 0 0 12 5.822 5.462 5.462 0 0 0 7.95 4C5.178 4 3 6.11 3 8.796c0 3.296 3.06 5.981 7.695 10.062L12 20l1.305-1.151C17.94 14.777 21 12.092 21 8.796 21 6.11 18.822 4 16.05 4zm-3.96 13.559l-.09.087-.09-.087C7.626 13.8 4.8 11.316 4.8 8.796c0-1.744 1.35-3.052 3.15-3.052 1.386 0 2.736.863 3.213 2.058h1.683c.468-1.195 1.818-2.058 3.204-2.058 1.8 0 3.15 1.308 3.15 3.052 0 2.52-2.826 5.005-7.11 8.763z" /></defs><use fill="#282828" fill-rule="evenodd" xlink:href="#favorite-border_a" /></symbol><symbol viewBox="0 0 24 24" id="feedback-balloon"><g fill-rule="evenodd"><path d="M20 2H4a2 2 0 0 0-2 2v18l4-4h14a2 2 0 0 0 2-2V4a2 2 0 0 0-2-2zm0 14H5.2l-.6.6-.6.6V4h16v12zm-9-4h2v2h-2v-2zm0-6h2v4h-2V6z" /><path d="M20 2H4a2 2 0 0 0-2 2v18l4-4h14a2 2 0 0 0 2-2V4a2 2 0 0 0-2-2zm0 14H5.2l-.6.6-.6.6V4h16v12zm-9-4h2v2h-2v-2zm0-6h2v4h-2V6z" /><path d="M20 2H4a2 2 0 0 0-2 2v18l4-4h14a2 2 0 0 0 2-2V4a2 2 0 0 0-2-2zm0 14H5.2l-.6.6-.6.6V4h16v12zm-9-4h2v2h-2v-2zm0-6h2v4h-2V6z" /></g></symbol><symbol viewBox="0 0 24 24" id="file"><path d="M8 16h8v2H8v-2zm0-4h8v2H8v-2zm6-10H6a2 2 0 0 0-2 2v16c0 1.1.9 2 2 2h12a2 2 0 0 0 2-2V8l-6-6zm4 18H6V4h7v5h5v11z" /></symbol><symbol viewBox="0 0 24 24" id="first-page"><path fill-rule="evenodd" d="M18 15.84L14.16 12 18 8.18 16.82 7l-5 5 5 5L18 15.84zM7.8 7H6v10h1.8V7z" /></symbol><symbol viewBox="0 0 24 24" id="grid-view"><path d="M10 13a1 1 0 011 1v5a1 1 0 01-1 1H5a1 1 0 01-1-1v-5a1 1 0 011-1h5zm9 0a1 1 0 011 1v5a1 1 0 01-1 1h-5a1 1 0 01-1-1v-5a1 1 0 011-1h5zm-9-9a1 1 0 011 1v5a1 1 0 01-1 1H5a1 1 0 01-1-1V5a1 1 0 011-1h5zm9 0a1 1 0 011 1v5a1 1 0 01-1 1h-5a1 1 0 01-1-1V5a1 1 0 011-1h5z" /></symbol><symbol viewBox="0 0 24 24" id="help-outline"><path fill="none" d="M0 0h24v24H0z" /><path d="M11 18h2v-2h-2v2zm1-16C6.48 2 2 6.48 2 12s4.48 10 10 10 10-4.48 10-10S17.52 2 12 2zm0 18c-4.41 0-8-3.59-8-8s3.59-8 8-8 8 3.59 8 8-3.59 8-8 8zm0-14c-2.21 0-4 1.79-4 4h2c0-1.1.9-2 2-2s2 .9 2 2c0 2-3 1.75-3 5h2c0-2.25 3-2.5 3-5 0-2.21-1.79-4-4-4z" /></symbol><symbol viewBox="0 0 24 24" id="info"><path d="M11 17h2v-6h-2v6zm1-15C6.48 2 2 6.48 2 12s4.48 10 10 10 10-4.48 10-10S17.52 2 12 2zm0 18c-4.41 0-8-3.59-8-8s3.59-8 8-8 8 3.59 8 8-3.59 8-8 8zM11 9h2V7h-2v2z" /></symbol><symbol viewBox="0 0 24 24" id="insurance"><path fill-rule="evenodd" d="M12 1L3 5v6c0 5.55 3.84 10.74 9 12 5.16-1.26 9-6.45 9-12V5l-9-4zm0 10.99h7c-.53 4.12-3.28 7.79-7 8.94V12H5V6.3l7-3.11v8.8z" /></symbol><symbol viewBox="0 0 24 24" id="last-page"><path fill-rule="evenodd" d="M6 15.84L9.84 12 6 8.18 7.18 7l5 5-5 5L6 15.84zM16.2 7H18v10h-1.8V7z" /></symbol><symbol viewBox="0 0 24 24" id="list"><path d="M3 13h2v-2H3v2zm0 4h2v-2H3v2zm0-8h2V7H3v2zm4 4h14v-2H7v2zm0 4h14v-2H7v2zM7 7v2h14V7H7zm-4 6h2v-2H3v2zm0 4h2v-2H3v2zm0-8h2V7H3v2zm4 4h14v-2H7v2zm0 4h14v-2H7v2zM7 7v2h14V7H7z" /></symbol><symbol viewBox="0 0 24 24" id="list-view"><path d="M10 13a1 1 0 0 1 1 1v5a1 1 0 0 1-1 1H5a1 1 0 0 1-1-1v-5a1 1 0 0 1 1-1h5zm9 3a1 1 0 0 1 0 2h-5a1 1 0 0 1 0-2h5zm0-3a1 1 0 0 1 0 2h-5a1 1 0 0 1 0-2h5zm-9-9a1 1 0 0 1 1 1v5a1 1 0 0 1-1 1H5a1 1 0 0 1-1-1V5a1 1 0 0 1 1-1h5zm9 3a1 1 0 0 1 0 2h-5a1 1 0 0 1 0-2h5zm0-3a1 1 0 0 1 0 2h-5a1 1 0 0 1 0-2h5z" /></symbol><symbol viewBox="0 0 24 24" id="menu"><path d="M0 0h24v24H0z" fill="none" /><path d="M3 18h18v-2H3v2zm0-5h18v-2H3v2zm0-7v2h18V6H3z" /></symbol><symbol viewBox="0 0 24 24" id="orders"><defs><path id="orders_a" d="M21 8.344V8.203c0-.028 0-.056-.026-.084 0-.028 0-.056-.027-.085 0-.028-.026-.056-.053-.084 0-.028-.026-.028-.026-.056l-2.33-3.966c-.344-.59-.926-.928-1.562-.928H7.024c-.636 0-1.218.337-1.562.928l-2.33 3.966c0 .028-.026.028-.026.056-.027.028-.027.056-.053.084 0 .028-.027.057-.027.085 0 .028-.026.056-.026.084V18.75C3 19.988 3.953 21 5.118 21h13.764C20.047 21 21 19.988 21 18.75V8.344zm-3.812-3.516L18.776 7.5h-5.982V4.687h4.182c.08 0 .16.057.212.141zm-10.376 0c.053-.084.132-.14.212-.14h4.182V7.5H5.224l1.588-2.672zm7.04 14.485h-3.705v-1.407h3.706v1.407zm5.56-.563c0 .31-.238.563-.53.563h-3.44v-2.25c0-.479-.345-.844-.795-.844H9.353c-.45 0-.794.365-.794.843v2.25H5.118c-.292 0-.53-.253-.53-.562V9.187h14.824v9.563z" /></defs><use fill="#282828" fill-rule="evenodd" xlink:href="#orders_a" /></symbol><symbol viewBox="0 0 24 24" id="payment"><path d="M12.37 18.03a.43.43 0 00-.15 0c-.51-.07-.9-.51-.9-1.04 0-.25-.2-.45-.44-.45-.25 0-.45.2-.45.45 0 .88.58 1.65 1.4 1.88v.46c0 .25.2.45.45.45.24 0 .44-.2.44-.45v-.43c.96-.2 1.6-1.11 1.5-2.1-.1-1-.91-1.75-1.89-1.75-.55 0-1-.47-1-1.04 0-.57.45-1.03 1-1.03s1.01.46 1.01 1.03c0 .25.2.46.45.46.24 0 .44-.2.44-.46 0-.92-.63-1.71-1.5-1.9v-.42c0-.25-.2-.46-.45-.46s-.45.2-.45.46v.44a1.95 1.95 0 00-1.38 2.14c.13.97.93 1.69 1.88 1.69.55 0 1 .45 1.01 1.01.01.57-.42 1.04-.97 1.06z" /><path d="M6 15.5a6.5 6.5 0 1012.98 0A6.5 6.5 0 006 15.5zm6.5-5.59a5.6 5.6 0 110 11.2 5.6 5.6 0 010-11.2zm.47-2.28V3.44c0-.24-.22-.44-.48-.44s-.47.2-.47.44v4.19c0 .24.2.44.47.44.26 0 .48-.2.48-.44zm3.48 0V5.65c0-.24-.21-.43-.47-.43s-.48.2-.48.43v1.98c0 .24.21.44.47.44s.48-.2.48-.44zm-6.97 0V5.65c0-.24-.2-.43-.47-.43-.26 0-.48.2-.48.43v1.98c0 .24.22.44.48.44s.47-.2.47-.44z" /></symbol><symbol viewBox="0 0 24 24" id="person"><path d="M4.2 19.89c.44-2.7 2.88-5.55 5.88-5.55h3.84c3 0 5.44 2.84 5.88 5.55H4.2zM12 4.1a4.06 4.06 0 110 8.12 4.06 4.06 0 010-8.12zm7.52 10.68a8.45 8.45 0 00-3.27-2.16A6.18 6.18 0 0012 2a6.17 6.17 0 00-4.25 10.63A8.91 8.91 0 002 20.94V22h20v-1.06c0-2.28-.88-4.46-2.48-6.15z" /></symbol><symbol viewBox="0 0 24 24" id="person-check"><path d="M18 13.01a5 5 0 110 10 5 5 0 010-10zM12.02 1a6.15 6.15 0 014.18 10.65c-1.2.24-2.28.83-3.14 1.64h-2.97c-1.3 0-2.7.6-3.82 1.63a6.99 6.99 0 00-2.2 4.12h7.04c.12.7.34 1.38.66 1.99H2v-1a8.92 8.92 0 015.87-8.35A6.16 6.16 0 0112 1zm8.73 14.8a.6.6 0 00-.42.18l-3.2 3.2-1.42-1.46a.6.6 0 00-.43-.18.6.6 0 00-.43 1l1.84 1.9a.6.6 0 00.85.01l3.63-3.63a.6.6 0 000-.84.59.59 0 00-.42-.18zM12.01 2.98a4.17 4.17 0 10.01 8.34 4.17 4.17 0 000-8.34z" /></symbol><symbol viewBox="0 0 24 24" id="person-prime"><path d="M11 1c.28 0 .55.1.74.3l1.92 1.96 2.78-1.52c.3-.17.68-.17.99 0 .31.15.5.46.5.79V8.3c0 .24-.1.48-.29.65-.15.14-.36.22-.58.24a5.24 5.24 0 01.05 1.82L17 11a6.98 6.98 0 00-2.14.34c.11-.35.2-.71.2-1.1 0-.35-.07-.7-.17-1.03H7.11c-.1.32-.16.67-.16 1.04 0 2.06 1.82 3.73 4.05 3.73l.3-.02c-.43.6-.77 1.26-.99 1.97H9.08c-3 0-5.44 2.63-5.88 5.12h7.5c.36.73.83 1.39 1.4 1.95H1v-.98c0-2.1.88-4.11 2.48-5.67a8.51 8.51 0 013.27-1.99 5.5 5.5 0 01-1.8-5.18c-.5-.06-.88-.43-.88-.9V2.54a.9.9 0 01.5-.8c.3-.16.69-.16 1 .01l2.77 1.52 1.93-1.96c.18-.2.45-.3.73-.3zm6 12A5 5 0 1117 23 5 5 0 0117 13zm2.74 2.8a.6.6 0 00-.42.17l-3.21 3.21-1.42-1.47a.59.59 0 00-.43-.18.6.6 0 00-.43 1l1.84 1.91a.6.6 0 00.85 0l3.64-3.63a.6.6 0 000-.84.59.59 0 00-.42-.18zM11 3.26L9.27 5.04c-.32.33-.84.4-1.25.17L6.05 4.13v3.24l9.9.02V4.13l-1.97 1.08c-.41.23-.93.16-1.24-.17L11 3.27z" /></symbol><symbol viewBox="0 0 24 24" id="phone"><path d="M12.33 5.67h.02a4.94 4.94 0 014.98 5c0 .3.24.55.54.55.3 0 .55-.24.55-.55a6.03 6.03 0 00-6.06-6.1h-.03a.55.55 0 000 1.1zM19 15.28a2.07 2.07 0 00-.64-1.42 5.06 5.06 0 00-2.01-1.34c-.84-.24-1.62-.02-2.32.66l-.74.73c-.46-.25-1.35-.82-2.33-1.8l-.07-.07a11.16 11.16 0 01-1.8-2.33l.73-.74c.68-.7.9-1.48.66-2.32a5.06 5.06 0 00-1.34-2.01 2.07 2.07 0 00-2.89-.1h-.01l-.02.03c-.8.8-1.23 1.92-1.22 3.25.01 2.24 1.25 4.82 3.3 6.87l.01.01c.39.39.83.77 1.3 1.14a.55.55 0 10.67-.87c-.44-.34-.85-.7-1.2-1.05-1.86-1.86-2.98-4.14-2.99-6.1 0-1.03.3-1.88.9-2.47.4-.36 1-.34 1.36.05 1.42 1.46 1.32 2.16.7 2.8L8.02 9.22c-.16.16-.2.4-.11.6.02.07.65 1.44 2.2 3l.07.06a11.02 11.02 0 002.98 2.2c.2.1.45.05.61-.1l1.02-1.02c.64-.63 1.33-.73 2.8.68.39.37.41.98.05 1.37-.59.59-1.43.9-2.44.9h-.02c-.8 0-1.74-.23-2.7-.64a.55.55 0 00-.43 1c1.1.48 2.16.72 3.12.73h.03c1.31 0 2.43-.42 3.22-1.22l.02-.02.02-.01c.36-.4.55-.93.53-1.47z" /><path d="M14.2 16.81c-.52-.13-1.54-.38-2.74-1.07l-.08-.05a10.5 10.5 0 01-2.3-1.77l-1.2-.21a.5.5 0 00.05.59c.04.05 1 1.24 2.9 2.34l.09.05a8.54 8.54 0 003.59 1.25c.38 0 .28-.37-.32-1.13zM15.1 7.9c-.58-.59-1.15-.74-1.42-.82a.55.55 0 00-.29 1.05c.22.07.56.16.94.54.37.37.47.7.53.92v.03a.55.55 0 101.06-.31l-.01-.03a3 3 0 00-.8-1.38z" /></symbol><symbol viewBox="0 0 24 24" id="pickup"><path d="M9.615 16.188c-.217-1.082-2.291-3.234-2.705-3.655-.237-.24-.612-.277-.893-.086-.314.213-.4.646-.19.965l1.182 1.775-2.07-1.927-.527-3.86c-.056-.354-.357-.612-.717-.612-.397 0-.695.295-.695.693v4.948l3.42 4.526h-.965V21h4.909v-2.045h-.861c.087-.363.345-1.606.112-2.767zm-6.208-1.952V9.487c0-.176.113-.29.288-.29.157 0 .289.112.312.263l.546 4 2.514 2.34c.084.126.241.186.39.145.184-.05.294-.236.251-.422l-.008-.036-1.532-2.301c-.087-.132-.052-.312.08-.401.116-.08.272-.065.37.035.889.903 2.435 2.645 2.596 3.448.251 1.25-.159 2.672-.163 2.687h-2.12l-3.524-4.72zm6.548 6.355H5.864v-1.227h4.09v1.227zm10.84-11.108c0-.405-.28-.695-.67-.695-.36 0-.662.258-.718.617l-.526 3.855-2.07 1.928 1.182-1.777c.21-.318.124-.75-.191-.965-.28-.19-.656-.154-.893.087-.413.42-2.487 2.573-2.705 3.655-.233 1.16.026 2.404.113 2.767h-.885V21h4.909v-2.045h-.943l3.397-4.53V9.484zM17.932 20.59H13.84v-1.227h4.09v1.227zm2.457-6.355l-3.507 4.719h-2.16c-.004-.015-.368-1.434-.117-2.687.161-.803 1.708-2.545 2.596-3.448.098-.1.254-.115.37-.035.132.089.167.269.081.4l-1.532 2.302-.009.036c-.043.186.067.371.252.422.149.042.306-.02.39-.145l2.513-2.34.545-3.996c.025-.155.156-.267.313-.267.166 0 .265.108.265.29v4.75h0zM16.5 3H7.295v9H16.5V3zm-.41 1.84h-2.863V3.41h2.864v1.43zm-5.112-1.43h1.841v2.97l-.92-.957-.92.956V3.41zm-.409 0v1.43H7.705V3.41h2.863zm-2.864 8.18V5.25h2.863v2.144l1.33-1.381 1.33 1.38V5.25h2.863v6.34H7.705z" fill="#282828" stroke="#282828" stroke-width=".3" /></symbol><symbol viewBox="0 0 24 24" id="postal"><path d="M12.19 3.042l8.603 4.552.02.011.009.006.01.01.025.016.016.014-.051-.04c.027.018.052.04.073.063l.029.035.018.028.017.032c.007.014.013.028.018.043l.008.026c.005.016.008.033.01.05.002.009.003.017.003.026.002.011.002.022.002.034v8.906c0 .147-.078.283-.201.35l-8.603 4.75c-.053.031-.113.046-.172.046h-.012c-.06 0-.12-.015-.173-.045l-8.603-4.75c-.123-.068-.2-.204-.2-.35V7.947l-.001-.017c0-.017.002-.034.005-.051l-.005.068c0-.034.004-.067.012-.098.003-.016.008-.032.014-.048l.01-.024c.008-.017.017-.034.027-.05l.008-.012c.011-.016.023-.032.037-.046l.018-.018c.012-.012.025-.023.04-.032l.011-.009.01-.005.02-.012 8.614-4.552c.105-.055.23-.055.334 0zM3.784 8.588v8.026l7.853 4.337v-8.206L3.784 8.588zm16.467 0l-3.369 1.782.001 4.11c0 .218-.168.395-.374.395-.207 0-.374-.177-.374-.396v-3.713l-3.737 1.979v8.206l7.853-4.337V8.588zM7.904 6.014L4.245 7.948l7.771 4.112 3.656-1.935-7.768-4.11zm4.12-2.176L8.742 5.571l7.768 4.111 3.277-1.735-7.763-4.109z" fill="#282828" fill-rule="evenodd" /></symbol><symbol viewBox="0 0 24 24" id="remove"><path d="M19 13H5v-2h14v2z" /><path d="M0 0h24v24H0z" fill="none" /></symbol><symbol viewBox="0 0 24 24" id="reorder"><defs><path id="reorder_a" d="M11.5 11.5h1V10H14V9h-1.5V7.5h-1V9H10v1h1.5v1.5zm-2 4.5c-.55 0-.995.45-.995 1s.445 1 .995 1 1-.45 1-1-.45-1-1-1zm5 0c-.55 0-.995.45-.995 1s.445 1 .995 1 1-.45 1-1-.45-1-1-1zm-4.915-1.625l.015-.06.45-.815h3.725a.995.995 0 0 0 .875-.515l1.93-3.505-.87-.48h-.005l-.55 1-1.38 2.5h-3.51l-.065-.135L9.08 10l-.475-1-.47-1H6.5v1h1l1.8 3.795-.675 1.225a.967.967 0 0 0-.125.48c0 .55.45 1 1 1h6v-1H9.71a.127.127 0 0 1-.125-.125z" /></defs><g fill="none" fill-rule="evenodd"><path d="M2-1h24v24H2V-1zm18.31 6l-2.76 5 2.76-5z" /><path fill="#282828" fill-rule="nonzero" d="M12.48 3.3h-1.74l.57-.55a.4.4 0 0 0 0-.6.44.44 0 0 0-.62 0L9.36 3.41a.41.41 0 0 0 0 .6l1.33 1.28a.44.44 0 0 0 .62 0 .4.4 0 0 0 0-.6l-.57-.55H12a8.33 8.33 0 0 1 8.16 8.49A8.34 8.34 0 0 1 12 21.14a8.34 8.34 0 0 1-8.16-8.5.42.42 0 1 0-.84 0A9.19 9.19 0 0 0 12 22a9.19 9.19 0 0 0 9-9.36 9.2 9.2 0 0 0-8.52-9.34z" /><use fill="#282828" fill-rule="nonzero" xlink:href="#reorder_a" /></g></symbol><symbol viewBox="0 0 24 24" id="restore"><path d="M0 0h24v24H0z" fill="none" /><path d="M13 3c-5 0-9 4-9 9H1l3.9 3.9v.1L9 12H6a7 7 0 112 5l-1.4 1.4A9 9 0 1013 3zm-1 5v5l4.3 2.5.7-1.2-3.5-2V8H12z" /></symbol><symbol viewBox="0 0 24 24" id="return-order"><g fill="none"><path d="M8.68 11.83v4.35h6.58v-4.35zm-.83-2.01V11h8.3V9.82z" fill="#FFF" /><g fill="#282828"><path d="M8.68 11.83v4.35h6.58v-4.35H8.68zM8.41 11h7.13a.55.55 0 0 1 .56.54v4.9a.55.55 0 0 1-.56.55H8.41a.55.55 0 0 1-.56-.55v-4.9a.55.55 0 0 1 .56-.54z" /><path d="M7.85 9.82V11h8.3V9.82h-8.3zM7.56 9h8.88a.55.55 0 0 1 .56.55v1.69a.56.56 0 0 1-.56.55H7.56a.56.56 0 0 1-.56-.55V9.55A.55.55 0 0 1 7.56 9z" /></g><path fill="#282828" d="M12.48 3.3h-1.74l.57-.55a.4.4 0 0 0 0-.6.44.44 0 0 0-.62 0L9.36 3.41a.41.41 0 0 0 0 .6l1.33 1.28a.44.44 0 0 0 .62 0 .4.4 0 0 0 0-.6l-.57-.55H12a8.33 8.33 0 0 1 8.16 8.49A8.34 8.34 0 0 1 12 21.14a8.34 8.34 0 0 1-8.16-8.5.42.42 0 1 0-.84 0A9.19 9.19 0 0 0 12 22a9.19 9.19 0 0 0 9-9.36 9.2 9.2 0 0 0-8.52-9.34z" /></g></symbol><symbol viewBox="0 0 24 24" id="reviews"><path fill="#282828" fill-rule="evenodd" d="M10.65 13.8l1.8-1.8h4.95v1.8h-6.75zm8.475 2.259V4.875H4.875V17l.508-.403.515-.538h13.227zm.075-13.06c.989 0 1.8.81 1.8 1.8v10.8c0 1.4-1 2.4-1.8 2.4H6.6L3 21l.009-16.2c0-.99.802-1.8 1.791-1.8h14.4zM8.313 13.679H6.968l-.018-1.544 3.905-3.905.68-.68.441-.442a.71.71 0 0 1 1 0l.414.415a.707.707 0 0 1 0 1l-.402.4c-.011.017-.018.035-.03.049l-4.646 4.707z" /></symbol><symbol viewBox="0 0 24 24" id="saved-items"><path d="M16.5 3c-1.74 0-3.41.8-4.5 2.05A6.04 6.04 0 0 0 7.5 3 5.4 5.4 0 0 0 2 8.4c0 3.7 3.4 6.72 8.55 11.31L12 21l1.45-1.3C18.6 15.13 22 12.1 22 8.4A5.4 5.4 0 0 0 16.5 3zm-4.4 15.25l-.1.1-.1-.1C7.14 14.03 4 11.23 4 8.4c0-1.97 1.5-3.44 3.5-3.44a3.9 3.9 0 0 1 3.57 2.32h1.87a3.89 3.89 0 0 1 3.56-2.32c2 0 3.5 1.47 3.5 3.44 0 2.83-3.14 5.63-7.9 9.85z" /></symbol><symbol viewBox="0 0 24 24" id="saved-items-filled"><path d="M12 21l-1.45-1.3C5.4 15.13 2 12.1 2 8.4A5.4 5.4 0 0 1 7.5 3c1.74 0 3.41.8 4.5 2.05A6.04 6.04 0 0 1 16.5 3 5.4 5.4 0 0 1 22 8.4c0 3.7-3.4 6.72-8.55 11.31L12 21z" /></symbol><symbol viewBox="0 0 24 24" id="search"><path d="M20.773 18.51l-4.322-4.464c-.31-.32-.697-.449-.865-.285-.168.163-.556.035-.866-.286l-.061-.064A6.488 6.488 0 0 0 4.9 4.901a6.491 6.491 0 0 0 8.641 9.661l.027.029c.31.32.425.711.256.874-.168.163-.054.555.256.875l4.32 4.466c.31.32.82.33 1.141.02l1.213-1.174c.32-.31.328-.82.018-1.141zm-8.117-5.855a4.48 4.48 0 0 1-6.328 0 4.48 4.48 0 0 1 0-6.328 4.479 4.479 0 0 1 6.327 0 4.48 4.48 0 0 1 0 6.328z" /></symbol><symbol viewBox="0 0 24 24" id="shop-bag"><g fill-rule="evenodd"><path d="M12.1 2.9c1.5 0 2.7 1.2 2.7 2.7v1.8H9.4V5.6c0-1.5 1.2-2.7 2.7-2.7zM5.8 9.3h1.8v2.5c0 .5.4.9 1 .9a1 1 0 0 0 .8-1V9.4h5.4v2.5c0 .5.4.9 1 .9a1 1 0 0 0 .8-1V9.4h1.6v11.3a.5.5 0 0 1-.6.5H6.4a.5.5 0 0 1-.6-.5V9.2zm13.3-2h-2.5V5.7c0-2.5-2-4.6-4.5-4.6S7.6 3 7.6 5.6v1.8H4.9a1 1 0 0 0-.9 1v12.2C4 21.9 5 23 6.4 23h11.2c1.4 0 2.4-1 2.4-2.4V8.3a1 1 0 0 0-1-1z" /><path d="M12.1 2.9c1.5 0 2.7 1.2 2.7 2.7v1.8H9.4V5.6c0-1.5 1.2-2.7 2.7-2.7zM5.8 9.3h1.8v2.5c0 .5.4.9 1 .9a1 1 0 0 0 .8-1V9.4h5.4v2.5c0 .5.4.9 1 .9a1 1 0 0 0 .8-1V9.4h1.6v11.3a.5.5 0 0 1-.6.5H6.4a.5.5 0 0 1-.6-.5V9.2zm13.3-2h-2.5V5.7c0-2.5-2-4.6-4.5-4.6S7.6 3 7.6 5.6v1.8H4.9a1 1 0 0 0-.9 1v12.2C4 21.9 5 23 6.4 23h11.2c1.4 0 2.4-1 2.4-2.4V8.3a1 1 0 0 0-1-1z" /><path d="M12.1 2.9c1.5 0 2.7 1.2 2.7 2.7v1.8H9.4V5.6c0-1.5 1.2-2.7 2.7-2.7zM5.8 9.3h1.8v2.5c0 .5.4.9 1 .9a1 1 0 0 0 .8-1V9.4h5.4v2.5c0 .5.4.9 1 .9a1 1 0 0 0 .8-1V9.4h1.6v11.3a.5.5 0 0 1-.6.5H6.4a.5.5 0 0 1-.6-.5V9.2zm13.3-2h-2.5V5.7c0-2.5-2-4.6-4.5-4.6S7.6 3 7.6 5.6v1.8H4.9a1 1 0 0 0-.9 1v12.2C4 21.9 5 23 6.4 23h11.2c1.4 0 2.4-1 2.4-2.4V8.3a1 1 0 0 0-1-1z" /></g></symbol><symbol viewBox="0 0 24 24" id="shopping-cart"><path fill="none" d="M0 0h24v24H0V0z" /><path d="M15.55 13c.75 0 1.41-.41 1.75-1.03l3.58-6.49A.996.996 0 0 0 20.01 4H5.21l-.94-2H1v2h2l3.6 7.59-1.35 2.44C4.52 15.37 5.48 17 7 17h12v-2H7l1.1-2h7.45zM6.16 6h12.15l-2.76 5H8.53L6.16 6zM7 18c-1.1 0-1.99.9-1.99 2S5.9 22 7 22s2-.9 2-2-.9-2-2-2zm10 0c-1.1 0-1.99.9-1.99 2s.89 2 1.99 2 2-.9 2-2-.9-2-2-2z" /></symbol><symbol viewBox="0 0 24 24" id="soc-facebook"><defs><path id="soc-facebook_a" d="M15.7 12h-2.4v9H9.7v-9H8V8.8h1.7v-2c0-1.5.7-3.8 3.6-3.8H16v3.1h-2c-.3 0-.7.2-.7.9v1.8H16l-.3 3.2z" /></defs><use xlink:href="#soc-facebook_a" /></symbol><symbol viewBox="0 0 24 24" id="soc-instagram"><path d="M17.52 3H6.48A3.48 3.48 0 0 0 3 6.48v11.04A3.48 3.48 0 0 0 6.48 21h11.04A3.48 3.48 0 0 0 21 17.52V6.48A3.48 3.48 0 0 0 17.52 3zm1 2.08h.4v3.04l-3.04.01-.01-3.05h2.65zm-9.09 5.07A3.16 3.16 0 0 1 12 8.83 3.16 3.16 0 0 1 15.17 12 3.17 3.17 0 0 1 12 15.17 3.17 3.17 0 0 1 8.83 12c0-.69.23-1.33.6-1.85zm9.82 7.37c0 .95-.78 1.73-1.73 1.73H6.48a1.73 1.73 0 0 1-1.73-1.73v-7.37h2.7A4.89 4.89 0 0 0 7.07 12 4.93 4.93 0 0 0 12 16.92 4.93 4.93 0 0 0 16.92 12c0-.65-.13-1.28-.36-1.85h2.69v7.37z" /></symbol><symbol viewBox="0 0 24 24" id="soc-jumia"><path fill-rule="evenodd" d="M18.04 12.68a.65.65 0 0 0 .03-.22 4.99 4.99 0 0 0 1.6-.39l-.9 3.3c-.12.5-.56.84-1.06.84H7.82c-.5 0-.93-.35-1.03-.83l-2.4-9.81a.77.77 0 0 0-.76-.6h-1A.63.63 0 0 1 2 4.34a.64.64 0 0 1 .63-.63h1.89c.5 0 .93.33 1.05.82l.32 1.31a.8.8 0 0 0 .76.6h6.19c-.08.34-.12.69-.12 1.04a5 5 0 0 0 3.77 4.9.71.71 0 0 0-.13.3l-.23 1.47c-.03.17.02.35.13.48.13.12.3.17.47.14h.24a.77.77 0 0 0 .73-.6V14l.34-1.32zM6.94 9.95c.11.35.45.58.81.54h.5a.56.56 0 0 0 .43-.2.6.6 0 0 0 .13-.46L8.6 8.52a.75.75 0 0 0-.72-.62H7.1a.55.55 0 0 0-.54.68l.1.33c.08.32.19.66.28 1.04zm2.37 4.6a.54.54 0 0 0 .12-.46l-.24-1.48a.75.75 0 0 0-.73-.62h-.34a.55.55 0 0 0-.43.24.54.54 0 0 0-.1.45l.35 1.31.06.2a.76.76 0 0 0 .75.58h.09a.6.6 0 0 0 .47-.22zm2.76-.34v-1.57a.64.64 0 0 0-.65-.65h-.22a.54.54 0 0 0-.43.21.57.57 0 0 0-.13.48l.26 1.55c.04.31.3.54.61.54a.56.56 0 0 0 .55-.56zm0-4.32v-1.3a.63.63 0 0 0-.63-.65h-.88a.58.58 0 0 0-.45.2.54.54 0 0 0-.13.47l.22 1.32c.07.35.37.6.72.6h.5a.64.64 0 0 0 .64-.64zm2.85 2.79a.57.57 0 0 0-.06-.49.54.54 0 0 0-.44-.2h-.29a.64.64 0 0 0-.64.66v1.56c0 .3.26.56.57.56a.63.63 0 0 0 .61-.54l.25-1.55zm-6.45 4.58a1.83 1.83 0 0 1 1.81 1.87 1.87 1.87 0 0 1-1.16 1.73 1.85 1.85 0 0 1-2.03-.43 1.88 1.88 0 0 1-.37-2.05 1.86 1.86 0 0 1 1.75-1.12zm8.7 0a1.84 1.84 0 0 1 1.8 1.87 1.87 1.87 0 0 1-1.16 1.73 1.85 1.85 0 0 1-2.03-.43 1.88 1.88 0 0 1-.37-2.05 1.86 1.86 0 0 1 1.75-1.12zM17.8 3c1.1 0 2.18.44 2.96 1.23A4.22 4.22 0 0 1 22 7.21 4.2 4.2 0 1 1 17.8 3zm0 .63L16.74 5.8l-2.35.34 1.7 1.68-.4 2.37 2.12-1.12 2.12 1.12-.4-2.37 1.7-1.68-2.36-.34-1.06-2.16z" /></symbol><symbol viewBox="0 0 24 24" id="soc-linkedin"><path fill-rule="evenodd" d="M19 19h-3v-4.6c0-1.1 0-2.5-1.5-2.5s-1.7 1.2-1.7 2.4V19h-3V9.5h2.8v1.3c.5-.7 1.4-1.5 2.9-1.5 3 0 3.5 2 3.5 4.5V19zM6.4 8.2a1.7 1.7 0 1 1 0-3.4 1.7 1.7 0 0 1 0 3.4zM5 19h3V9.5H5V19zM20.5 2h-17C2.7 2 2 2.6 2 3.4v17.2c0 .8.7 1.4 1.5 1.4h17c.8 0 1.5-.6 1.5-1.4V3.4c0-.8-.7-1.4-1.5-1.4z" /></symbol><symbol viewBox="0 0 24 24" id="soc-pinterest"><path fill-rule="evenodd" d="M12 2a10 10 0 0 0-4.01 19.16c-.03-.7 0-1.54.17-2.3.2-.8 1.29-5.45 1.29-5.45s-.32-.63-.32-1.58c0-1.48.86-2.59 1.93-2.59.9 0 1.34.69 1.34 1.5 0 .92-.58 2.29-.88 3.55-.25 1.06.53 1.93 1.58 1.93 1.9 0 3.17-2.43 3.17-5.32 0-2.19-1.48-3.83-4.16-3.83a4.74 4.74 0 0 0-4.92 4.79c0 .87.25 1.49.66 1.96.18.22.2.3.14.56l-.2.8c-.07.25-.28.34-.5.25-1.4-.57-2.05-2.1-2.05-3.82 0-2.84 2.4-6.25 7.14-6.25 3.82 0 6.34 2.77 6.34 5.73 0 3.92-2.19 6.86-5.4 6.86-1.08 0-2.1-.59-2.44-1.25l-.7 2.75a8.37 8.37 0 0 1-1.01 2.14A9.99 9.99 0 1 0 12 2" /></symbol><symbol viewBox="0 0 24 24" id="soc-tiktok"><path d="M15.49 2c.33 2.84 1.91 4.53 4.67 4.71v3.2c-1.6.15-3-.37-4.63-1.36v5.97c0 7.59-8.26 9.96-11.59 4.52-2.13-3.5-.83-9.64 6.03-9.88v3.37c-.53.08-1.08.21-1.6.39-1.52.51-2.38 1.48-2.14 3.18.46 3.27 6.45 4.23 5.95-2.15V2.01h3.3V2Z" /></symbol><symbol viewBox="0 0 24 24" id="soc-twitter"><path d="M19.6 6.7a4.3 4.3 0 0 0 1.8-2.4 8 8 0 0 1-2.6 1 4 4 0 0 0-3-1.3c-2.2 0-4 2-4 4.3v1c-3.4-.2-6.4-2-8.4-4.5a4.4 4.4 0 0 0-.6 2.1c0 1.5.8 2.8 1.9 3.6a4 4 0 0 1-1.9-.5c0 2.1 1.4 3.8 3.3 4.2a3.9 3.9 0 0 1-1 .2 3.9 3.9 0 0 1-.9 0c.6 1.6 2 2.9 3.9 2.9A8 8 0 0 1 2 19.1 11.3 11.3 0 0 0 8.3 21C15.8 21 20 14.5 20 8.8v-.6A8.5 8.5 0 0 0 22 6a8 8 0 0 1-2.4.7z" /></symbol><symbol viewBox="0 0 24 24" id="soc-youtube"><path d="M17.85 5H6.15A4.13 4.13 0 0 0 2 9.1v5.8C2 17.15 3.86 19 6.15 19h11.7c2.29 0 4.15-1.84 4.15-4.1V9.1C22 6.85 20.14 5 17.85 5zm-2.81 7.28l-5.47 2.58a.22.22 0 0 1-.32-.2V9.35a.22.22 0 0 1 .32-.19l5.47 2.74a.22.22 0 0 1 0 .4z" /></symbol><symbol viewBox="0 0 24 24" id="star"><path d="M12 17.27l4.15 2.51c.76.46 1.69-.22 1.49-1.08l-1.1-4.72 3.67-3.18c.67-.58.31-1.68-.57-1.75l-4.83-.41-1.89-4.46c-.34-.81-1.5-.81-1.84 0L9.19 8.63l-4.83.41c-.88.07-1.24 1.17-.57 1.75l3.67 3.18-1.1 4.72c-.2.86.73 1.54 1.49 1.08l4.15-2.5z" /></symbol><symbol viewBox="0 0 24 24" id="star-shield"><path fill="#282828" fill-rule="evenodd" d="M11.62 18.92v-5.08l-1.42.83a.33.33 0 0 1-.15 0 .31.31 0 0 1-.2-.07.4.4 0 0 1-.13-.38l.34-2.1-1.46-1.5a.38.38 0 0 1-.1-.4.33.33 0 0 1 .27-.26l2.01-.3.84-1.84V5L5.88 6.67v6.58c0 1.62 1.75 3.13 3.1 4.08a21 21 0 0 0 2.63 1.6zm.77 0c.92-.44 1.81-.96 2.66-1.54 1.4-.98 3.07-2.5 3.07-4.1V6.66L12.38 5v3.01l.75 1.64 2.01.31c.17-.02.32.1.36.26.04.14.01.28-.09.38l-1.45 1.5.34 2.1a.41.41 0 0 1-.12.38.33.33 0 0 1-.36 0l-1.44-.76v5.1zM12 4.08l.12.01 6.5 1.88c.18.05.3.21.3.4v6.92c-.05 1-.44 1.93-1.1 2.67-.68.8-1.46 1.49-2.32 2.07a20.59 20.59 0 0 1-3.32 1.87.4.4 0 0 1-.35 0 20.58 20.58 0 0 1-3.33-1.87c-.87-.59-1.65-1.3-2.33-2.1a4.31 4.31 0 0 1-1.1-2.67v-6.9a.4.4 0 0 1 .3-.39l6.5-1.89H12zm-2.41 6.54l1.05 1.1c.09.09.13.22.1.34l-.25 1.57 1.36-.73c.1-.05.2-.05.3 0l1.36.75-.26-1.56a.41.41 0 0 1 .1-.35l1.06-1.09-1.47-.23a.3.3 0 0 1-.26-.2L12 8.73l-.68 1.5a.3.3 0 0 1-.26.19l-1.47.2z" /></symbol><symbol viewBox="0 0 24 24" id="track-order"><g fill="none" fill-rule="evenodd"><path d="M0 0h24v24H0z" /><path fill="#000" fill-rule="nonzero" d="M12 9a3 3 0 1 0 0 6 3 3 0 1 0 0-6zm8.127 2.09a8.177 8.177 0 0 0-7.218-7.217V2h-1.818v1.873a8.177 8.177 0 0 0-7.218 7.218H2v1.818h1.873a8.177 8.177 0 0 0 7.218 7.218V22h1.818v-1.873a8.177 8.177 0 0 0 7.218-7.218H22v-1.818h-1.873zM12 18.365A6.359 6.359 0 0 1 5.636 12 6.359 6.359 0 0 1 12 5.636 6.359 6.359 0 0 1 18.364 12 6.359 6.359 0 0 1 12 18.364z" /></g></symbol><symbol viewBox="0 0 24 24" id="truck"><g fill="none"><path fill="#FFF" d="M20 10.4c.34.9.67 1.8 1 2.7l-.74-.1-1.26-.3h-.11l-.58-.11c-.21-.05-.24-.1-.24-.28V10.4H20zm-5.27-1.94h3.17a2 2 0 0 1 1.82 1.2h-2a.38.38 0 0 0-.38.37v2.26a1 1 0 0 0 .83 1l.6.11h.11l1.26.25 1.14.23v1.9a1 1 0 0 1-1.1 1.07h-.98a2 2 0 0 0-1.93-1.54 1.93 1.93 0 0 0-1.91 1.54h-1.25V8.46h.62zM3.25 5.64a.19.19 0 0 1 .19-.18h9.35c.57 0 .57.11.57.18v8.67H3.25V5.64zm-.5 9.85v-.44h10.6v1.82H8.42a2.08 2.08 0 0 0-4.08 0H2.75v-1.38zm3.63 3a1.3 1.3 0 1 1 1.33-1.3 1.32 1.32 0 0 1-1.33 1.35v-.05zm10.91-.12a1.22 1.22 0 0 1-.87-.35 1.15 1.15 0 0 1-.35-.85 1.21 1.21 0 0 1 2.41 0 1.18 1.18 0 0 1-1.19 1.25v-.05z" /><path fill="#282828" d="M19.2 17.61h.95A1.74 1.74 0 0 0 22 15.8v-1.89a1.5 1.5 0 0 0-.08-.44c-.49-1.34-1-2.67-1.48-4a2.72 2.72 0 0 0-2.54-1.74h-3.79V5.64c0-.6-.45-.91-1.32-.91H3.44a.93.93 0 0 0-.94.91v8.68h-.12a.37.37 0 0 0-.37.37v2.57a.38.38 0 0 0 .37.35h2a2.08 2.08 0 0 0 4.08 0h6.94c.066.381.252.731.53 1a2 2 0 0 0 1.4.56 1.94 1.94 0 0 0 1.87-1.56zm.8-7.21c.34.9.67 1.8 1 2.7l-.74-.1-1.26-.3h-.11l-.58-.11c-.21-.05-.24-.1-.24-.28V10.4H20zm-5.27-1.94h3.17a2 2 0 0 1 1.82 1.2h-2a.38.38 0 0 0-.38.37v2.26a1 1 0 0 0 .83 1l.6.11h.11l1.26.25 1.14.23v1.9a1 1 0 0 1-1.1 1.07h-.98a2 2 0 0 0-1.93-1.54 1.93 1.93 0 0 0-1.91 1.54h-1.25V8.46h.62zM3.25 5.64a.19.19 0 0 1 .19-.18h9.35c.57 0 .57.11.57.18v8.67H3.25V5.64zm-.5 9.85v-.44h10.6v1.82H8.42a2.08 2.08 0 0 0-4.08 0H2.75v-1.38zm3.63 3a1.3 1.3 0 1 1 1.33-1.3 1.32 1.32 0 0 1-1.33 1.35v-.05zm10.91-.12a1.22 1.22 0 0 1-.87-.35 1.15 1.15 0 0 1-.35-.85 1.21 1.21 0 0 1 2.41 0 1.18 1.18 0 0 1-1.19 1.25v-.05z" /></g></symbol><symbol viewBox="0 0 24 24" id="visibility"><path d="M0 0h24v24H0z" fill="none" /><path d="M12 4.5C7 4.5 2.73 7.61 1 12c1.73 4.39 6 7.5 11 7.5s9.27-3.11 11-7.5c-1.73-4.39-6-7.5-11-7.5zM12 17c-2.76 0-5-2.24-5-5s2.24-5 5-5 5 2.24 5 5-2.24 5-5 5zm0-8c-1.66 0-3 1.34-3 3s1.34 3 3 3 3-1.34 3-3-1.34-3-3-3z" /></symbol><symbol viewBox="0 0 24 24" id="visibility-off"><path d="M0 0h24v24H0zm0 0h24v24H0zm0 0h24v24H0zm0 0h24v24H0z" fill="none" /><path d="M12 7c2.76 0 5 2.24 5 5 0 .65-.13 1.26-.36 1.83l2.92 2.92c1.51-1.26 2.7-2.89 3.43-4.75-1.73-4.39-6-7.5-11-7.5-1.4 0-2.74.25-3.98.7l2.16 2.16C10.74 7.13 11.35 7 12 7zM2 4.27l2.28 2.28.46.46A11.804 11.804 0 0 0 1 12c1.73 4.39 6 7.5 11 7.5 1.55 0 3.03-.3 4.38-.84l.42.42L19.73 22 21 20.73 3.27 3 2 4.27zM7.53 9.8l1.55 1.55c-.05.21-.08.43-.08.65 0 1.66 1.34 3 3 3 .22 0 .44-.03.65-.08l1.55 1.55c-.67.33-1.41.53-2.2.53-2.76 0-5-2.24-5-5 0-.79.2-1.53.53-2.2zm4.31-.78l3.15 3.15.02-.16c0-1.66-1.34-3-3-3l-.17.01z" /></symbol><symbol viewBox="0 0 24 24" id="vouchers"><path fill="#282828" fill-rule="evenodd" d="M21 10.25c-.99 0-1.8.787-1.8 1.75s.81 1.75 1.8 1.75v3.5c0 .963-.81 1.75-1.8 1.75H4.8c-.99 0-1.8-.787-1.8-1.75v-3.5c.999 0 1.8-.787 1.8-1.75s-.801-1.75-1.791-1.75v-3.5C3.009 5.787 3.81 5 4.8 5h14.4c.99 0 1.8.787 1.8 1.75v3.5zm-1.781-1.277V6.732H4.703l.009 2.241C5.783 9.576 6.6 10.705 6.6 12c0 1.286-.794 2.401-1.866 3.005v2.223H19.25v-2.223c-1.071-.604-1.85-1.719-1.85-3.005 0-1.286.747-2.424 1.819-3.027zm-4.325 2.13c.213.035.284.284.16.443l-1.298 1.263c-.036.035-.036.09-.036.142l.303 1.76a.247.247 0 0 1-.356.266l-1.618-.853a.192.192 0 0 0-.142 0l-1.582.836c-.178.09-.392-.07-.356-.267l.302-1.795a.138.138 0 0 0-.035-.143l-1.28-1.244c-.142-.142-.053-.39.142-.427l1.796-.267c.035-.017.089-.035.106-.089l.783-1.6c.089-.177.355-.177.444 0l.8 1.636c.017.053.054.09.106.09l1.76.248z" /></symbol><symbol viewBox="0 0 24 24" id="warning"><path d="M4.47 21h15.06c1.54 0 2.5-1.67 1.73-3L13.73 4.99c-.77-1.33-2.69-1.33-3.46 0L2.74 18c-.77 1.33.19 3 1.73 3zM12 14c-.55 0-1-.45-1-1v-2c0-.55.45-1 1-1s1 .45 1 1v2c0 .55-.45 1-1 1zm1 4h-2v-2h2v2z" /></symbol></defs></svg>