<svg xmlns="http://www.w3.org/2000/svg" xmlns:xlink="http://www.w3.org/1999/xlink"><defs><symbol viewBox="0 0 40 40" id="app"><rect width="40" height="40" fill="#F68B1E" rx="4" /><path fill="#FFF" d="M26.95 9A5.11 5.11 0 0 1 32 14.17a5.12 5.12 0 0 1-5.05 5.18 5.11 5.11 0 0 1-5.05-5.18A5.11 5.11 0 0 1 26.95 9zm0 .77l-1.27 2.65-2.85.42 2.06 2.06-.49 2.9 2.55-1.36 2.55 1.37-.49-2.9 2.06-2.07-2.84-.42-1.28-2.65zm-3.47 11.1a.72.72 0 0 0-.15-.57.68.68 0 0 0-.53-.25h-.26a.79.79 0 0 0-.78.8v1.9c0 .38.3.69.67.69.37 0 .68-.27.75-.65l.3-1.92zm-3.43-3.42v-1.64c0-.44-.34-.8-.77-.8h-1.04a.71.71 0 0 0-.7.82l.26 1.66c.08.44.44.76.88.76h.6c.42 0 .77-.36.77-.8zm0 5.3v-1.9c0-.44-.35-.8-.78-.8H19c-.2 0-.4.09-.52.25a.72.72 0 0 0-.16.57l.31 1.92c.06.38.38.65.74.65.38 0 .68-.3.68-.69zm-3.32.43a.7.7 0 0 0 .15-.56l-.3-1.81a.89.89 0 0 0-.87-.76h-.4c-.21 0-.4.1-.53.26a.64.64 0 0 0-.12.54l.42 1.64.07.24c.1.42.48.7.9.7h.12c.21 0 .42-.09.56-.25zm-2.85-5.64c.1.42.47.7.9.7h.6c.2 0 .4-.08.53-.24a.72.72 0 0 0 .15-.57l-.26-1.66a.88.88 0 0 0-.86-.76h-.85c-.21 0-.4.1-.54.27a.67.67 0 0 0-.1.57l.1.41.33 1.28zm13.35 3.34a.69.69 0 0 0 .01-.28c.68-.05 1.32-.2 1.92-.46l-1 4.09a1.3 1.3 0 0 1-1.26 1H15a1.3 1.3 0 0 1-1.26-1l-2.87-12.04a.94.94 0 0 0-.91-.73h-1.2a.77.77 0 0 1-.76-.78c0-.43.34-.78.76-.78h2.2c.6 0 1.12.4 1.26 1l.4 1.58c.1.43.48.73.92.73h7.43a6.1 6.1 0 0 0 4.4 7.23.91.91 0 0 0-.15.37l-.29 1.8c-.03.22.02.43.16.59.12.15.3.24.5.24h.29c.4 0 .77-.3.88-.74l.06-.2c.11-.43.26-.98.41-1.62zm-11.51 5.55c1.2 0 2.18 1.02 2.18 2.28 0 1.27-.98 2.29-2.18 2.29a2.24 2.24 0 0 1-2.18-2.29c0-1.26.98-2.28 2.18-2.28zm10.46 0c1.2 0 2.18 1.02 2.18 2.28 0 1.27-.98 2.29-2.18 2.29a2.23 2.23 0 0 1-2.17-2.29c0-1.26.97-2.28 2.17-2.28z" /></symbol><symbol viewBox="0 0 114 12" id="express"><g fill="none" fill-rule="evenodd"><path fill="#282828" d="M12.85 9.31c-.5.35-1.27.52-2.46.52H8.17c-.25 0-.5 0-.68-.08-.25-.1-.42-.1-.68-.18a1.53 1.53 0 0 1-.6-.43c-.17-.18-.25-.35-.42-.61-.09-.26-.17-.52-.17-.87V2.09h1.45v5.48c0 .61.5.87 1.61.87h1.96c1.02 0 1.53-.26 1.53-.87V2.09h1.45v5.57c0 .7-.25 1.3-.77 1.65zm11.58.61V4.87l-3.06 4.7c-.09.18-.26.26-.34.35-.17.09-.26.09-.43.09-.34 0-.6-.18-.85-.52l-3.15-4.7v5.13h-1.45V2.87a.8.8 0 0 1 .26-.6c.17-.18.34-.27.5-.27.35 0 .6.17.78.44L20.52 8l3.74-5.57a.89.89 0 0 1 .77-.44c.25 0 .42.09.6.26.16.18.25.35.25.7v6.96h-1.45zm2.81-.09V2h1.45v7.83h-1.45zM34.9 4l-1.36 2.35h2.72L34.9 4zm3.5 5.92l-1.2-2.09h-4.43l-1.19 2.09h-1.7l4.26-7.31a.9.9 0 0 1 .76-.52c.34 0 .6.17.85.52l4.18 7.31h-1.54zM4.33 6.35c0 2.35-.85 3.4-2.38 3.74-1.45.35-1.96.35-1.96.35V8.8c.6 0 1.45-.18 2.04-.35.51-.17.94-.7.85-2.09V2h1.45v4.35z" /><path fill="#F63" d="M57.47 10a4.1 4.1 0 0 1-1.2-.15c-.31-.1-.57-.25-.75-.47-.2-.21-.33-.5-.4-.84A6.05 6.05 0 0 1 55 7.26V4.74c0-.5.04-.92.12-1.27.07-.36.2-.64.4-.85.18-.22.44-.38.76-.47.31-.1.71-.15 1.19-.15h4.46v1.17h-4.46c-.29 0-.51.03-.69.08a.8.8 0 0 0-.4.26c-.1.12-.17.28-.21.48-.04.2-.05.45-.05.75v.67h5.81v1.15h-5.81v.7c0 .32.01.58.05.78.04.2.1.35.2.47s.24.2.41.25c.18.04.4.07.69.07h4.5V10h-4.5zm12.69 0l-3.02-3.25L64.09 10h-1.64l3.92-4.13L62.67 2h1.68l2.84 3.05L70.15 2h1.6l-3.72 3.87L71.86 10h-1.7zm8.85-5.45a3 3 0 0 0-.06-.68.85.85 0 0 0-.22-.42.83.83 0 0 0-.4-.2 2.64 2.64 0 0 0-.6-.07h-4.07v3.35h4.09c.24 0 .44-.02.6-.05a.8.8 0 0 0 .39-.2c.1-.1.17-.22.2-.4.05-.16.07-.38.07-.64v-.7zm-5.35 3.1V10h-1.12V2.01h5.2c.46 0 .84.05 1.14.14.3.09.55.23.74.44.18.2.32.46.4.78.07.32.1.71.1 1.18v.68c0 .47-.03.86-.1 1.17-.08.3-.2.55-.39.74-.18.19-.43.32-.73.4-.31.07-.7.1-1.16.1h-4.08zm13.9-3.27c0-.26-.02-.47-.06-.63a.67.67 0 0 0-.22-.37.93.93 0 0 0-.45-.18 4.68 4.68 0 0 0-.74-.05H82.2v3h3.9c.29 0 .53-.02.72-.06.19-.03.34-.09.45-.18a.7.7 0 0 0 .22-.38c.04-.16.06-.38.06-.64v-.5zM86.62 10L82.2 7.08V10h-1.12V2h5.01c.44 0 .83.03 1.15.1a1.52 1.52 0 0 1 1.28 1.07c.1.3.15.71.15 1.21v.5c0 .46-.05.84-.15 1.14a1.6 1.6 0 0 1-1.28 1.1c-.32.07-.7.11-1.15.11h-1.66L88.76 10h-2.13zm5.4 0a4.1 4.1 0 0 1-1.19-.15c-.31-.1-.57-.25-.76-.47-.19-.21-.32-.5-.4-.84a6.05 6.05 0 0 1-.11-1.28V4.74c0-.5.04-.92.11-1.27.08-.36.21-.64.4-.85.2-.22.45-.38.76-.47.32-.1.72-.15 1.2-.15h4.46v1.17h-4.47c-.28 0-.5.03-.68.08a.8.8 0 0 0-.41.26c-.1.12-.17.28-.2.48-.04.2-.05.45-.05.75v.67h5.81v1.15H90.7v.7c0 .32.01.58.05.78.03.2.1.35.2.47s.24.2.41.25c.17.04.4.07.68.07h4.51V10h-4.5zm5.3 0V8.83h5.02c.32 0 .55-.06.7-.17.13-.1.2-.34.2-.69v-.59c0-.32-.07-.55-.2-.68-.15-.12-.38-.18-.7-.18H99.1c-.34 0-.63-.04-.86-.13a1.22 1.22 0 0 1-.82-.98 4.25 4.25 0 0 1-.08-.86V4.2c0-.41.03-.75.1-1.03.06-.28.16-.5.3-.68.15-.18.33-.3.55-.38.23-.08.5-.12.81-.12h5.19v1.17h-5.11c-.28 0-.48.07-.61.2-.13.14-.2.41-.2.84v.34c0 .32.06.54.17.66.12.12.33.18.62.18h3.2c.35 0 .65.04.9.11.24.08.44.2.6.36.15.16.26.37.32.62.07.25.1.55.1.9v.6c0 .36-.03.67-.1.92-.06.26-.17.47-.33.63-.15.17-.35.28-.6.36a3.1 3.1 0 0 1-.9.11h-5.02zm7.72 0V8.83h5.01c.32 0 .56-.06.7-.17.14-.1.2-.34.2-.69v-.59c0-.32-.06-.55-.2-.68-.14-.12-.37-.18-.69-.18h-3.25c-.35 0-.64-.04-.86-.13a1.22 1.22 0 0 1-.83-.98 4.25 4.25 0 0 1-.07-.86V4.2c0-.41.03-.75.1-1.03.06-.28.16-.5.3-.68.14-.18.32-.3.55-.38.22-.08.5-.12.8-.12h5.09v1.17h-5c-.28 0-.48.07-.62.2-.13.14-.2.41-.2.84v.34c0 .32.06.54.18.66s.32.18.62.18h3.2c.35 0 .65.04.89.11.24.08.44.2.6.36.15.16.26.37.33.62s.1.55.1.9v.6c0 .36-.03.67-.1.92-.07.26-.18.47-.33.63-.16.17-.36.28-.6.36a3.1 3.1 0 0 1-.9.11h-5.02zm-52.1-8.96c.04.05.06.12.04.2l-2.83 7.6a.18.18 0 0 1-.1.1.17.17 0 0 1-.14 0l-2.87-.65-1.01 2.65a.17.17 0 0 1-.18.05.18.18 0 0 1-.12-.15l.04-2.97c0-.05.09-.14.12-.18l4.98-4.65-6.43 4.56a.17.17 0 0 1-.18.01L41.1 6.52a.18.18 0 0 1-.1-.16c0-.07.04-.13.1-.16l11.66-5.18a.17.17 0 0 1 .18.02z" /></g></symbol><symbol viewBox="0 0 110 12" id="global"><g fill="none" fill-rule="evenodd"><path fill="#282828" d="M12.85 8.6c-.5.34-1.27.52-2.46.52H8.17c-.25 0-.5 0-.68-.09-.25-.08-.42-.08-.68-.17-.25-.09-.42-.26-.6-.44-.17-.17-.25-.35-.42-.6a2.62 2.62 0 0 1-.17-.88V1.37h1.45v5.49c0 .6.5.87 1.61.87h1.96c1.02 0 1.53-.27 1.53-.87V1.37h1.45v5.57c0 .7-.25 1.3-.77 1.66zm11.58.6V4.17l-3.06 4.7c-.09.17-.26.26-.34.35-.17.08-.26.08-.43.08-.34 0-.6-.17-.85-.52l-3.15-4.7v5.14h-1.45V2.16a.8.8 0 0 1 .26-.61c.17-.18.34-.26.5-.26.35 0 .6.17.78.43l3.83 5.57 3.74-5.57a.89.89 0 0 1 .77-.43c.25 0 .42.08.6.26.16.17.25.35.25.7V9.2h-1.45zm2.81-.08V1.29h1.45v7.83h-1.45zm7.66-5.83l-1.36 2.35h2.73L34.9 3.29zm3.5 5.92l-1.2-2.1h-4.43l-1.19 2.1h-1.7l4.26-7.32a.9.9 0 0 1 .76-.52c.34 0 .6.18.85.52l4.17 7.31H38.4zM4.33 5.64c0 2.35-.85 3.4-2.38 3.74C.5 9.73 0 9.73 0 9.73V8.07c.6 0 1.45-.17 2.04-.34.51-.18.94-.7.85-2.1V1.3h1.45v4.35z" /><path fill="#0040CE" d="M62.77 6.5h-2.3V5.36h3.49V7.3c0 .5-.04.92-.12 1.27a1.75 1.75 0 0 1-.43.83 1.78 1.78 0 0 1-.82.46c-.34.1-.76.14-1.27.14h-2.7c-.5 0-.93-.05-1.27-.14-.33-.1-.6-.25-.8-.46-.2-.21-.35-.49-.43-.83A5.5 5.5 0 0 1 56 7.3V4.84c0-.49.04-.9.12-1.25.09-.35.23-.63.43-.84.2-.2.47-.36.8-.46.34-.1.77-.14 1.27-.14h5.34V3.3h-5.34c-.28 0-.52.03-.7.08a.9.9 0 0 0-.45.25.98.98 0 0 0-.22.47 3.66 3.66 0 0 0-.06.74V7.3c0 .32.02.59.07.8a.95.95 0 0 0 .23.46c.1.11.25.19.43.23.19.04.42.06.7.06h2.73c.26 0 .49-.02.67-.06a.84.84 0 0 0 .44-.23 1 1 0 0 0 .24-.5c.05-.21.07-.5.07-.86v-.7zm5.12 3.5c-.5 0-.93-.05-1.26-.14-.34-.1-.61-.25-.81-.46-.2-.22-.35-.5-.43-.84a5.5 5.5 0 0 1-.12-1.26V2.14h1.19V7.3c0 .28.02.52.06.71.05.2.13.36.24.48a.99.99 0 0 0 .47.27c.2.06.46.09.76.09h4.11V10h-4.21zm11.74-5.16c0-.3-.02-.55-.07-.75a.98.98 0 0 0-.23-.48.89.89 0 0 0-.44-.24 2.94 2.94 0 0 0-.7-.07h-2.6c-.3 0-.55.03-.74.07a.83.83 0 0 0-.43.24.93.93 0 0 0-.2.48c-.04.2-.06.45-.06.75V7.3c0 .33.02.59.05.79.04.2.1.35.2.46a.81.81 0 0 0 .44.23c.19.05.44.07.74.07h2.6c.29 0 .52-.02.7-.07a.87.87 0 0 0 .44-.23.94.94 0 0 0 .23-.46c.05-.2.07-.46.07-.79V4.84zM75.59 10c-.5 0-.93-.05-1.26-.14-.34-.1-.61-.25-.81-.46-.2-.22-.34-.5-.43-.83a5.5 5.5 0 0 1-.12-1.26V4.84c0-.49.04-.9.12-1.25.09-.35.23-.62.43-.84.2-.2.47-.36.8-.46.34-.1.77-.14 1.27-.14h2.6c.51 0 .93.05 1.27.14.34.1.6.25.81.46.2.21.34.5.42.84.09.34.13.76.13 1.25v2.47c0 .5-.04.92-.13 1.26-.08.34-.22.61-.42.83-.2.2-.47.36-.8.46-.35.1-.77.14-1.28.14h-2.6zm7.83-3.52v2.39h4.71c.37 0 .63-.05.78-.15.16-.1.23-.3.23-.6v-.6c0-.22-.01-.4-.04-.53a.65.65 0 0 0-.16-.31.58.58 0 0 0-.3-.16 2.1 2.1 0 0 0-.44-.04h-4.78zm0-3.24v2.23h4.78c.34 0 .56-.06.68-.18.11-.13.17-.35.17-.68V4c0-.3-.07-.5-.22-.6-.15-.1-.44-.15-.86-.15h-4.55zm-1.19-1.1h5.74c.4 0 .74.03 1.02.1.28.05.5.15.69.3.17.14.3.32.38.55.08.23.12.5.12.84v.62c0 .46-.08.8-.23 1a1.05 1.05 0 0 1-.61.4c.3.05.53.2.69.45.16.24.24.65.24 1.21v.67c0 .32-.04.59-.12.8-.08.22-.2.4-.37.53-.17.14-.4.24-.67.3a4.59 4.59 0 0 1-.99.09h-5.89V2.14zm11.5 4.83h4l-2-3.55-2 3.55zm4.61 1.08h-5.22L92.02 10h-1.4l4.22-7.4c.1-.18.2-.32.34-.43a.86.86 0 0 1 .57-.17c.24 0 .43.06.56.17.14.1.26.25.35.43l4.2 7.4h-1.41l-1.1-1.95zM103.8 10c-.5 0-.93-.05-1.26-.14-.34-.1-.61-.25-.81-.46-.2-.22-.35-.5-.43-.84a5.5 5.5 0 0 1-.12-1.26V2.14h1.19V7.3c0 .28.02.52.06.71.05.2.13.36.24.48a.99.99 0 0 0 .47.27c.2.06.46.09.76.09H108V10h-4.21z" /><path fill="#0040CE" fill-rule="nonzero" d="M54.03 2.45c-.54.48-2.94 2.51-2.94 2.51l1.43 5.22-1.12.82-2.25-4.12-2.56 2.03.2 1.81-.73.28-.85-1.7-2.19-1.04.56-.65 1.86.1 2.14-2.19L43 3.32l.85-.87 5.94 1.27s1.8-1.53 2.65-2.43c.84-.87 2.43.41 1.59 1.16z" /></g></symbol><symbol viewBox="0 0 139 32" id="logo"><g fill="none" fill-rule="evenodd"><path fill="#F68B1E" d="M131.27.26a7.33 7.33 0 0 1 7.21 7.43c0 4.1-3.23 7.43-7.21 7.43a7.33 7.33 0 0 1-7.22-7.43c0-4.1 3.23-7.43 7.22-7.43zm0 1.1l-1.83 3.8-4.07.62 2.95 2.95-.7 4.18 3.64-1.97 3.65 1.97-.7-4.18 2.95-2.95-4.07-.61-1.83-3.8z" /><path fill="#282828" d="M126.3 17.3c.05-.3-.03-.6-.21-.82a.97.97 0 0 0-.76-.36h-.38c-.61 0-1.11.52-1.11 1.15V20c0 .55.43 1 .97 1 .52 0 .97-.4 1.06-.94l.44-2.76zm-4.9-4.9v-2.37c0-.63-.5-1.14-1.1-1.14h-1.5a1.02 1.02 0 0 0-1 1.18l.39 2.38c.1.63.62 1.09 1.24 1.09h.86c.6 0 1.1-.52 1.1-1.15zm0 7.6v-2.73c0-.63-.5-1.15-1.11-1.15h-.4a.97.97 0 0 0-.74.36c-.19.23-.27.53-.22.82l.44 2.76c.09.54.53.93 1.06.93s.97-.44.97-.98zm-4.76.62c.19-.23.27-.52.22-.8l-.42-2.61a1.27 1.27 0 0 0-1.24-1.09h-.6c-.29 0-.57.14-.74.38a.93.93 0 0 0-.16.78c.22.93.43 1.72.6 2.35l.09.35c.15.6.69 1.01 1.3 1.01h.16c.3 0 .6-.13.8-.37zm-4.07-8.1c.15.6.68 1.02 1.3 1.02h.86c.28 0 .56-.13.75-.36.18-.23.26-.53.22-.82l-.39-2.39a1.26 1.26 0 0 0-1.22-1.08h-1.22a.96.96 0 0 0-.92 1.2l.15.6.47 1.83zm19.1 4.8a1 1 0 0 0 .01-.4c.97-.07 1.9-.3 2.75-.67L133 22.12c-.2.86-.95 1.46-1.8 1.46h-17.02c-.86 0-1.6-.6-1.8-1.46l-4.11-17.28a1.35 1.35 0 0 0-1.3-1.06h-1.72c-.6 0-1.08-.5-1.08-1.1 0-.62.48-1.13 1.08-1.13h3.14c.86 0 1.6.59 1.82 1.44l.56 2.27c.16.61.7 1.04 1.31 1.04h10.63a8.76 8.76 0 0 0 6.3 10.38c-.1.15-.18.33-.22.53l-.41 2.6c-.05.3.03.6.22.84.18.22.44.34.72.34h.4c.6 0 1.11-.44 1.28-1.06l.07-.29c.17-.62.37-1.4.6-2.33zm-16.47 7.96a3.2 3.2 0 0 1 3.12 3.29 3.2 3.2 0 0 1-3.12 3.28 3.2 3.2 0 0 1-3.11-3.28 3.2 3.2 0 0 1 3.11-3.29zm14.97 0a3.2 3.2 0 0 1 3.1 3.29 3.2 3.2 0 0 1-3.1 3.28 3.2 3.2 0 0 1-3.12-3.28 3.2 3.2 0 0 1 3.12-3.29zm-94.97.14c-1.38 1-3.6 1.5-6.63 1.5h-4.29c-.58 0-1.2 0-1.88-.04-.66-.02-1.31-.1-1.96-.24a9.03 9.03 0 0 1-1.84-.6 4.86 4.86 0 0 1-2.62-2.8 6.8 6.8 0 0 1-.4-2.5V5.45h3.92V20.5c0 1.6 1.45 2.39 4.35 2.39h5.27c2.85 0 4.28-.8 4.28-2.39V5.45h3.87v15.29c0 2.11-.7 3.67-2.07 4.68zm39.16 1.5V5.46h3.92v21.48h-3.92zm21-16.12l-3.73 6.4h7.53l-3.8-6.4zm9.38 16.24l-3.25-5.8H89.4l-3.17 5.8h-4.63L93.29 6.9c.56-.96 1.3-1.45 2.18-1.45.92 0 1.65.48 2.22 1.43l11.46 20.16h-4.41zm-38.14.03V13.1l-8.37 12.85c-.3.45-.64.78-1.02 1-.4.23-.8.34-1.25.34-.95 0-1.73-.45-2.3-1.34l-8.5-12.96v14.1h-3.93V7.8c0-.74.2-1.31.59-1.73.39-.42.9-.63 1.51-.63.91 0 1.63.37 2.15 1.1l10.5 15.41L66.29 6.6a2.33 2.33 0 0 1 2.07-1.14c.65 0 1.18.23 1.58.7.4.46.6 1.07.6 1.83v19.1H66.6zm-54.8-9.72c0 6.55-2.36 9.32-6.42 10.23-4.05.91-5.34.9-5.34.9L0 24.03c1.61-.1 4.05-.37 5.58-1 1.4-.58 2.51-1.97 2.4-5.68l.08-7.87V5.45l3.91.02-.16 11.88z" /></g></symbol><symbol viewBox="0 0 138 32" id="logo-inv"><g fill="none"><path d="M131.366 16.02a28.307 28.307 0 0 1-.685 2.265v.227c-.23.679-.686.905-1.143.905h-.458c-.228 0-.457-.226-.685-.226-.23-.227-.23-.453-.23-.68l.458-2.49c0-.227 0-.453.229-.453-3.658-.906-6.401-4.076-6.401-8.152 0-.68 0-1.132.228-1.812h-10.515c-.686 0-1.143-.452-1.372-.905l-.457-2.038c-.229-.906-.914-1.359-1.829-1.359h-3.2c-.686 0-1.143.453-1.143 1.132 0 .68.457 1.132 1.143 1.132h1.6c.686 0 1.143.453 1.372.906l4.114 16.304c.229.906.915 1.359 1.83 1.359h16.687c.915 0 1.6-.453 1.829-1.36l1.372-5.66c-.915.453-1.83.453-2.744.68v.226zm-18.974-4.528c-.228-.68-.228-1.132-.457-1.812l-.228-.453c0-.226 0-.452.228-.679.229-.226.457-.453.686-.453h1.143c.686 0 1.143.453 1.143 1.132l.457 2.265c0 .226 0 .453-.228.68-.229.226-.458.226-.686.226h-.686c-.686 0-1.143-.227-1.372-.906zm4.115 7.699c-.228.226-.457.453-.686.453h-.228c-.686 0-1.143-.453-1.372-.906v-.226a28.307 28.307 0 0 1-.686-2.265c0-.226 0-.453.229-.68.229-.226.457-.452.686-.452h.686c.685 0 1.143.453 1.143 1.132l.457 2.491s0 .226-.229.453zm4.572-.68c0 .453-.457.906-.914.906s-.915-.453-1.143-.905l-.457-2.718c0-.226 0-.453.228-.68.229-.226.457-.452.686-.452h.457c.686 0 1.143.453 1.143 1.132v2.718zm0-7.02c0 .68-.457 1.133-1.143 1.133h-.914c-.686 0-1.143-.453-1.143-1.132l-.457-2.265c0-.226 0-.452.228-.679.229-.226.457-.453.686-.453h1.372c.685 0 1.143.453 1.143 1.132v2.265h.228zm4.8 4.53l-.456 2.717c0 .453-.458.906-1.143.906-.458 0-.915-.453-.915-.906v-2.49c0-.68.457-1.133 1.143-1.133h.457c.23 0 .458.226.686.453.229 0 .457.226.229.453z" fill="#FFF" /><path d="M130.854 0c-3.927 0-7.16 3.234-7.16 7.161 0 3.927 3.233 7.161 7.16 7.161 3.928 0 7.162-3.234 7.162-7.16 0-3.928-3.234-7.162-7.162-7.162zm3.466 12.243l-3.697-1.848-3.696 1.848.693-3.927-3.003-2.772 4.158-.693 1.848-3.696 1.849 3.696 4.158.693-3.003 2.772.693 3.927z" fill="#F90" /><path d="M115.23 24.739a3.244 3.244 0 0 0-3.255 3.255 3.244 3.244 0 0 0 3.255 3.255 3.244 3.244 0 0 0 3.255-3.255c0-1.628-1.502-3.255-3.255-3.255zm15.624 0a3.244 3.244 0 0 0-3.255 3.255 3.244 3.244 0 0 0 3.255 3.255 3.244 3.244 0 0 0 3.256-3.255c0-1.628-1.503-3.255-3.256-3.255zm-95.716-.677c-1.396.937-3.49 1.406-6.748 1.406h-6.05c-.699 0-1.397 0-1.862-.235-.698-.234-1.164-.234-1.862-.468-.698-.235-1.163-.703-1.629-1.172-.465-.469-.698-.938-1.163-1.64-.233-.704-.466-1.407-.466-2.344v-15h3.956v14.765c0 1.64 1.397 2.344 4.422 2.344h5.352c2.792 0 4.189-.703 4.189-2.344V4.61h3.956v15c0 1.875-.698 3.515-2.095 4.453zm31.648 1.64V12.11L58.41 24.765c-.233.468-.698.703-.931.937-.466.235-.698.235-1.164.235-.93 0-1.629-.47-2.327-1.407l-8.61-12.655v13.827h-3.956V6.718c0-.703.233-1.171.698-1.64.466-.469.931-.703 1.397-.703.93 0 1.629.469 2.094 1.172l10.472 15 10.239-15c.465-.703 1.163-1.172 2.094-1.172.698 0 1.164.234 1.629.703.465.469.698.937.698 1.875v18.75h-3.956zm7.679-.234V4.375h3.956v21.093zm30.485.234l-3.258-5.625H89.59l-3.258 5.625H81.68L93.314 6.015c.466-.937 1.397-1.406 2.095-1.406.93 0 1.629.469 2.327 1.406l11.402 19.687h-4.188zM95.409 9.765l-3.724 6.328h7.447l-3.723-6.328zm-83.541 6.328c0 6.328-2.327 9.14-6.516 10.078-3.956.937-5.352.937-5.352.937v-4.453c1.629 0 3.956-.468 5.585-.937 1.396-.469 2.56-1.875 2.327-5.625V4.375h3.956v11.718z" fill="#FFF" /></g></symbol></defs></svg>